<svg xmlns="http://www.w3.org/2000/svg" width="720" height="393.830200907" version="1.1">
<g class="mapa"><g class="mod" transform="scale(0.233311730395,-0.233311730395)"><g class="mod" transform="translate(38238,8813)"><g id="2700102"><path d="M-37825 -9240 l15 -15 l29 -28 l10 -10 v-1 l-2 -2 v-1 v-2 v-3 l-3 -1 l-1 -5 v-3 v-6 l-3 -8 l-2 -2 l-2 -1 h-2 l-2 1 l-6 -1 l-1 -1 h-4 l-1 1 l-4 -2 h-1 l-1 1 l-1 1 l-2 -2 h-1 l-5 -6 h-1 h-5 v-1 l-2 -1 v-1 l-1 -1 l-1 -1 l-1 -1 l-1 -6 l-1 -3 h-2 l-4 -2 h-2 l-1 -3 l1 -3 l-1 -2 v-2 v-1 l-9 -8 l-3 -2 v-1 v-5 l-3 -7 v-1 v-2 v-1 l-3 -2 v-2 l-2 -1 h-2 h-1 l-2 -1 l1 -3 l-1 -2 h-1 h-3 h-1 l-1 -3 l-3 -2 h-1 l-2 3 l-1 -1 l-1 -1 l1 -3 l-1 -1 l-1 -3 l-64 36 l-66 38 l4 2 l17 6 l4 18 h2 l1 1 v5 l-1 1 l-2 2 l-1 1 v1 l1 1 l4 1 v1 v1 l-2 2 v3 v1 l-5 5 l1 2 l2 5 v2 v2 l1 1 v1 l2 6 l6 7 l1 4 l2 2 l3 2 l3 3 h2 l2 2 v1 l-1 1 l-3 1 h-1 l-7 1 l-4 1 h-3 l-3 -1 h-1 l-4 1 l-1 1 l3 3 l1 2 l5 4 l1 1 l2 3 v1 l1 2 v3 h1 l1 2 l-1 2 l-1 2 h1 l2 2 h1 v1 v1 l-3 6 l-2 1 v2 l-1 5 l-3 4 v3 v2 l-3 5 l-1 6 h-1 h-1 l-3 2 l-1 -1 h-2 l-3 3 l-2 1 h-1 h-2 l-1 2 v3 l-1 3 l-2 1 l1 3 l-4 2 l-1 2 l-3 2 l2 1 l2 1 h2 l6 2 l5 -3 h3 l3 1 l2 2 l1 2 l4 1 l2 1 l1 2 v3 l1 1 l1 6 v1 l4 4 l1 3 v2 v2 l2 1 l7 2 v1 l4 4 l3 5 l1 1 l35 -35 l44 -45 l18 -18 l15 -14 l17 -18 Z"></path></g><g id="2700201"><path d="M-36385 -9655 l-2 2 l-1 1 l-1 1 l-3 1 l-1 1 l-1 1 l13 13 l-8 6 l-3 23 v3 l41 11 l1 -1 h2 l1 -1 v-1 v-1 h1 v-1 l1 -1 v-1 v-1 v-1 v-1 l-1 -1 v-1 l-1 -1 h-1 h-1 h-1 v-1 l-1 -1 l30 -1 h1 h2 l24 6 l1 -1 l1 1 h1 v-1 v-2 l2 -1 l1 -1 v-1 v-1 l34 -15 l4 -12 l7 -27 l2 -10 h1 v-1 v-1 h1 l-1 -1 v-2 v-1 l-7 -53 l-5 2 h-1 h-1 h-3 h-3 h-3 h-4 l-3 -1 l-2 -1 l-4 -2 h-3 l-3 1 l-3 1 l-2 1 l-3 1 l-3 1 l-2 1 h-3 h-3 l-4 2 l-6 3 h-2 h-2 h-3 l-2 1 l-2 1 l-1 2 v2 l-1 4 h-8 l-1 -1 l-1 -4 v-2 l-1 -7 v-1 l-1 -1 l-2 -3 l-1 -1 l-2 -1 l-2 -2 v-1 v-2 v1 h-1 v2 l1 1 v1 v1 l-1 3 v4 v2 v1 l-1 1 l1 2 v1 v1 v1 v1 l1 2 v1 h-1 v1 l-2 1 l-1 1 l-1 -1 l-2 1 h-1 l-2 1 l-1 1 h-1 h-1 v1 h-1 l-1 1 l-1 2 h-1 h-1 v1 h-1 l-2 1 v1 v1 v1 h-1 l-1 -1 h-1 l-1 1 l-2 1 h-1 v3 v1 l-1 1 v1 l-1 1 l1 1 h-1 v1 v1 v1 v1 v1 v1 l1 1 v1 v1 v1 v2 v2 h-2 v2 l-1 1 v2 v1 l-1 1 v2 v1 v1 l-1 1 l-1 2 v2 l-1 1 v1 l-1 1 l-4 2 h-1 Z"></path></g><g id="2700300"><path d="M-36737 -9674 l18 11 l4 2 l12 4 l1 2 l10 15 l2 5 l11 -2 l20 -5 l4 -1 l3 2 l2 1 h4 l3 2 l3 2 l2 -1 h1 l1 -4 l2 -2 l2 -1 l3 -1 l2 -6 l2 -2 l2 -2 l2 -1 l3 1 l2 1 l3 1 h1 l1 -1 h2 l1 -3 v-1 l-1 -1 v-2 l-2 -2 l1 -3 l1 -1 l1 -2 l2 -1 h1 l1 -1 v-2 l2 -4 l3 -3 l3 -4 l1 -2 v-6 h7 l2 -1 v-2 l-1 -1 v-1 l1 -1 v-1 h1 v-1 h1 h2 l1 -1 l1 -3 l1 -1 l2 -2 l3 1 h1 l3 -3 h-1 h-1 l-5 -1 l-5 2 l-1 -2 l-1 -4 l1 -2 l2 -3 l4 -5 l1 -4 v-1 l-1 -4 l-1 -4 l1 -3 l3 -4 l1 -1 v-5 l7 -9 l2 -2 h1 l5 -3 l1 -2 v-1 h-2 v-1 l2 -2 l4 -1 h1 l-1 -1 v-2 l-2 -3 l-2 -4 l-2 -5 l-4 -5 l-1 -7 l-1 -3 v-3 h1 l8 -1 l7 -4 v-2 l-2 -2 l-1 -2 v-4 l-1 -3 l-1 -8 l-1 -4 v-1 v-4 v-1 v-1 v-1 v-9 l1 -5 l8 -9 l1 -4 l1 -1 l2 -1 l1 -1 h-1 h-1 l1 -7 v-1 v-1 v-1 l-1 1 h-1 v1 h-1 l-6 2 l-8 3 l-2 1 h-2 l-6 -1 l-5 -2 v-1 h-1 l-6 -1 l-4 -2 l-4 1 l-2 1 l-1 5 l1 1 v1 v1 h-1 h-1 v1 h-1 v1 h-1 l-23 6 l-1 1 h-1 l-2 2 l-8 23 l-1 3 h-1 l-10 7 l-11 5 l-14 6 l-24 12 l-8 12 l-18 28 l-4 6 l-13 20 l-1 1 l-18 27 l-3 5 l2 2 l8 10 l7 7 v1 v1 l2 10 Z"></path></g><g id="2700409"><path d="M-35957 -9383 l8 2 l20 6 l-8 -26 l2 -46 l2 -33 v-1 l-1 -2 h-1 v-1 v-1 v-1 l-1 -1 v-1 l-1 -1 v-1 v-2 h-2 l-1 -1 v-1 l1 -1 v-1 l-1 -2 l-1 -1 l-4 -4 l-15 -25 v-1 h-1 l-1 -1 v-1 l-1 -1 l-1 -2 l-16 -16 l4 -6 h-1 l-23 -18 l-1 -2 l-1 -4 l-1 -1 l-1 -1 v-1 l-1 -1 l-1 -2 h-1 v1 h-1 l-1 1 v1 h-1 l-3 3 l-2 2 l-1 1 h-1 v1 h-1 h-2 v-1 l-51 -19 l-2 -1 h-1 l-1 -1 l-2 1 h-1 l-1 -1 h-2 v-1 h-2 v-1 h-3 h-1 h-2 l-2 -1 h-2 h-2 l-1 1 l-2 1 h-1 l-4 2 h-3 h-4 h-3 l-3 1 h-1 h-3 l-2 -1 l-3 -1 l-2 -1 h-1 l-1 -4 l-1 -1 l-2 -3 l-3 -2 l-4 -4 h-1 h-2 h-2 h-2 h-1 l-2 1 h-1 l-2 -1 l-3 -2 l-1 -1 v-1 l-1 -1 l-2 -1 l-2 1 h-1 l-3 1 h-1 l-2 1 h-1 l-1 1 l-2 1 l-1 1 l-1 1 h-1 h-2 v-1 h-1 l-2 1 l-2 -1 l-10 13 l-22 30 l-5 6 l-9 48 v1 v2 l4 13 l7 26 l9 19 l53 -17 h2 v2 l1 1 l1 1 l1 1 v1 h1 l1 1 l2 1 h1 v1 v1 l1 1 l2 1 l1 -1 h1 h1 h1 l3 4 l1 1 h1 h29 l4 3 l27 21 l19 9 l28 15 l11 7 h1 l12 4 l45 14 Z"></path></g><g id="2700508"><path d="M-35524 -9443 v1 h-1 v1 h-1 v1 v1 h-1 v1 h-1 l1 1 h-1 v1 h-1 v-1 v-1 h-1 l1 1 h-1 v1 h-1 v1 v1 v1 v1 h-1 h-1 l-1 1 v1 h-1 v1 l-2 2 v1 l1 1 h-1 v1 l-1 1 l-3 1 h-1 v1 v1 h-1 v1 l-2 1 v1 h-1 v1 v1 l1 1 v1 v2 h1 l-1 1 v1 l-1 1 v1 h-1 v1 l-1 1 l-1 1 h-1 l-1 1 l-2 -1 h-1 h-1 h-1 h-1 l-3 -1 h-2 h-2 l-2 1 v1 l-1 1 h-1 h-1 h-1 h-1 v1 h-1 v-1 l-1 -1 v1 h-1 h-1 h-1 h-1 l-2 -2 h-1 v1 l-1 1 v-1 h-1 h-1 l-3 -1 h-1 h-1 h-1 h-1 l-1 -1 h-1 l-1 -1 v-1 h-1 l-1 -1 v-1 l-1 1 v1 l-1 -1 l-2 1 l-1 1 v1 h-1 h-1 v-1 v-1 h-1 v1 l-1 -1 h-1 v-1 l-1 -1 l-1 1 v1 h-1 h-1 h-1 v-1 h-1 v2 v1 h-1 h-1 l-1 -1 h-1 h-1 h-1 v-1 v-1 h-1 l-2 -2 h-1 v1 v1 h-1 h-1 l-2 1 v1 h-1 h-1 l-1 1 h-1 l-2 -1 h-1 h-2 l-1 1 h-1 l-1 2 l-3 1 h-1 h-1 h-1 v-1 h-1 h-1 h-1 l-2 -1 h-1 v-1 h-1 h-1 l-1 1 h-1 l-1 1 h-1 l-2 -1 h-1 v1 h-1 l-1 1 v1 h-1 l-1 1 h-1 h-1 l-1 1 h-1 h-1 h-1 h-1 h-3 h-1 l-1 1 h-1 h-2 l-11 27 h2 l97 11 l7 1 h4 l3 1 l1 1 l5 1 l1 1 h3 l2 -2 l1 -1 h1 l1 1 h2 l1 1 l1 1 h1 h1 v1 h1 h1 l2 1 l3 1 l4 2 l5 2 l2 1 h4 l2 -2 l2 -3 l1 -1 l2 -1 l2 -1 h2 h2 l1 1 l1 1 v1 l1 1 l1 2 l1 2 l-1 3 v2 v2 v2 l-1 1 l-2 4 v1 l-1 1 v2 l-1 6 v1 l2 2 l1 1 v2 l3 3 l1 1 v3 l-1 2 l14 -10 l25 -21 l11 -9 v-1 l-2 -1 v-1 l-1 -2 l-3 -3 l-2 -2 l-2 -2 l-1 -1 l-1 -1 l-1 -1 l-1 -1 l-1 -1 l-2 -2 l-2 -2 l-1 -2 l-1 -1 l-1 -2 l-1 -1 l-1 -1 v-1 l-1 -2 l-1 -1 l-1 -1 v-1 l-1 -2 v-1 l-1 -1 l-1 -1 v-1 v-1 l-1 -2 v-1 l-1 -2 v-3 v-2 v-2 l1 -2 v-1 v-1 l-1 -1 v-2 v-2 l-1 -2 v-1 l-1 -3 v-1 v-2 v-1 l-1 1 l-1 1 h-1 h-1 l-1 -1 l1 -1 v-1 h1 l-1 -1 l-1 -1 v-1 l-2 -2 l-2 -3 l-1 -1 v-1 l-1 -1 l-1 -1 l-1 -1 v-1 h1 v-1 h-1 v-1 v-1 l-1 -1 l-1 -1 l-1 -1 h-1 l-3 1 h-1 l-1 -1 h-2 l-1 -1 l-1 -1 Z"></path></g><g id="2700607"><path d="M-35903 -9870 l-1 2 v2 v1 v2 v1 l1 2 l-1 3 l-2 3 v1 l-1 1 l-1 3 l-1 1 l-2 2 l-3 2 l-1 2 l-1 2 l-2 1 l-3 1 h-2 h-1 l-2 -1 l-1 -1 l-2 -1 l-1 -1 l-2 -1 h-1 l-5 -2 h-4 h-2 h-4 h-2 h-2 l-1 1 l-1 1 l-1 1 v1 l-2 1 l-1 1 l-1 1 l-2 1 v1 v1 l-1 1 l-1 1 l-2 1 h-1 l-1 1 l-2 1 l-2 1 v1 h-1 l-2 1 h-1 v1 h-3 h-1 h-1 h-1 h-2 h-1 l-2 2 l-1 1 v2 l-3 2 l-1 1 h-1 l-4 -2 h-1 h-1 v1 h-1 l-1 1 v1 v1 v1 l-5 3 l-1 1 v-1 h-1 h-1 l-1 1 h-1 v-1 l-1 1 v1 h-1 h-2 v1 l-1 1 h-1 l-1 -1 l-1 1 h-1 l-2 -1 v-1 l-1 -1 h-1 l-1 -1 h-1 h-1 l-1 1 v1 h1 v1 h-1 h-1 l23 42 l1 -2 l1 -1 l2 -5 h1 l1 -1 l1 -1 l1 -1 h1 l1 -1 v-1 h1 l1 -1 l2 -1 l1 1 h1 l2 -1 l1 -1 l1 -1 l1 -1 h1 h1 l1 -1 h1 l1 1 h1 v1 h1 h3 h1 l1 -1 v-1 h1 l2 -1 v-1 h1 h1 h2 h1 v-1 l2 -1 h1 h1 l1 1 h1 v1 v1 h1 h1 h1 h3 h3 h1 h1 h2 l1 -1 h1 h1 h1 h1 v-1 h1 l1 -1 v-1 v-2 v-1 l1 -1 l2 1 v-1 v-1 h1 l1 -1 h1 l1 1 l1 1 l2 -1 h1 h1 l1 -1 l1 -1 v-1 h1 l1 -1 v-1 v-2 v-1 h2 v-1 h1 h3 v-1 h1 v-2 v-2 h2 h1 l1 1 h1 v-1 h1 v-1 h2 l1 -1 l43 20 h1 l3 2 l4 2 l-1 -2 l-1 -1 l-1 -1 v-1 l-1 -2 l-1 -1 l-1 -1 l-1 -1 l-1 -1 v-2 l-2 -2 l-1 -1 v-1 h-1 l-1 -2 l-2 -3 l-1 -2 v-1 l-1 -1 l-1 -1 v-1 l-1 -1 v-1 l-1 -1 l-1 -1 v-2 l-1 -1 v-1 h-1 l-1 -2 v-1 h-1 l-1 -2 l-1 -1 l-1 -2 l-2 -2 l-1 -2 l-3 -3 l-1 -1 l-13 -30 Z"></path></g><g id="2700706"><path d="M-37042 -9808 l-2 1 l-2 1 l-2 1 v3 l-2 1 h-3 l-3 1 l-4 3 l-4 5 l-4 2 l-4 -2 l-11 -2 h-3 h-6 l-6 3 l-5 2 v-2 l-47 28 l-1 1 l-4 1 l-6 6 l-2 1 v3 l1 2 l-1 2 l-4 5 l-2 1 h-6 l-3 2 l-3 1 l-4 1 l-34 27 v3 l-1 2 v2 h1 l3 -1 h1 l-1 3 v2 l1 3 l1 1 l2 2 l21 3 l24 47 l14 29 l-1 1 l-2 -1 l-1 1 v4 l-1 1 l-2 -1 h-1 l-1 1 h-1 v1 l1 1 l1 1 l1 2 v1 l7 -1 l43 -3 l58 -14 l-2 -3 l-2 -1 l-4 -3 l-1 -1 l-1 -2 l-1 -3 l-2 -2 l-2 -1 l-1 -1 l1 -21 l35 -30 l24 -20 l2 -2 l6 -5 l2 -2 l1 -1 l1 -1 l1 -1 l2 -1 l-3 -2 l-4 -5 l-1 -1 l-2 -4 l1 -3 v-2 l3 -1 v-1 v-4 l1 -14 v-2 v-3 l-2 -1 h-3 l-1 -1 l-2 -2 l-5 -2 v-1 h-2 l-1 -1 l-1 -1 l-1 -2 l-2 -1 l-1 -2 l-1 -5 l-1 -3 l-1 -2 l-7 -2 l-4 -4 l-3 -8 l-1 -4 v-1 v-1 h-1 h-1 h-1 h-1 l-1 -1 Z"></path></g><g id="2700805"><path d="M-36527 -9529 l1 1 l1 11 v2 l4 7 h2 l1 2 v2 l2 1 h4 l10 2 l1 2 v1 l1 2 l1 -1 l2 -3 l1 -1 h1 l3 -2 h2 l2 1 l22 -65 l2 -5 l18 -14 h1 l1 -1 l-30 -16 l-1 2 l-2 1 l-1 1 v2 l-1 3 l-1 1 l-1 1 l-2 1 l-1 1 l-1 1 l-1 1 l-3 2 l-3 1 l-1 -1 h-1 l-1 1 l-2 1 h-1 h-1 l-1 2 l-1 1 l-1 1 l-1 2 v3 v3 l1 3 v2 v2 l-1 2 l-1 2 l-2 1 l-1 2 l-1 2 l-1 1 l-1 1 h-2 l-2 2 l-1 1 v2 l-2 1 l-2 1 l-2 1 l-11 14 v1 v1 l5 1 Z"></path></g><g id="2700904"><path d="M-37045 -9811 l-54 -35 l-2 -1 l-1 -1 l-1 -1 h-1 v-1 h-1 l-1 -2 l-1 -4 l-1 -8 v-4 l-2 -2 h-4 l-2 -1 l-3 -5 l-1 -9 v-2 l1 -2 v-2 h-2 l-2 -1 l-3 -1 l-2 -8 l-7 2 v-2 l1 -2 l2 -2 l3 -1 l1 -2 l-1 -1 l-2 -2 l-2 -3 l-10 8 l-10 5 l-14 2 l-13 1 h-15 h-5 l-27 -1 h-3 l-6 3 l-4 3 l-6 6 l-1 2 l-2 3 l-2 4 l-6 18 l-7 10 l-2 2 l-19 17 l-7 2 l-4 1 h-1 l-1 5 v3 v3 l-9 9 l-2 2 l-1 2 l1 3 l3 3 l1 2 l3 2 l1 2 l-1 2 l1 1 l1 1 l3 5 l4 2 l3 2 h5 v2 l-2 3 v2 l2 1 l4 -2 l2 -1 h3 l1 5 l2 2 l4 2 l2 2 l2 1 l6 3 l1 1 l-1 2 l2 2 l5 2 l1 2 l1 7 l1 4 l2 1 h2 l5 1 h2 l1 3 v3 h2 h4 l1 1 v6 l1 2 l2 -1 l3 -1 l3 1 l1 2 v5 l1 6 l34 -27 l4 -1 l3 -1 l3 -2 h6 l2 -1 l4 -5 l1 -2 l-1 -2 v-3 l2 -1 l6 -6 l4 -1 l1 -1 l47 -28 v2 l5 -2 l6 -3 h6 h3 l11 2 l4 2 l4 -2 l4 -5 l4 -3 l3 -1 h3 l2 -1 v-3 l2 -1 l2 -1 l2 -1 l1 1 h1 h1 h1 h1 v-1 l1 -1 l-2 1 v-1 h-1 h-1 v-1 h-1 v1 h-1 l-3 -2 Z"></path></g><g id="2701001"><path d="M-36111 -9702 l-17 -4 l-51 -11 l-2 -7 v-1 l-37 -4 l-29 -3 l7 53 v1 v2 l1 1 h-1 v1 v1 h-1 l-2 10 l-7 27 l-4 12 l-10 28 h1 l13 -1 l58 -3 l10 -13 h1 v-1 h1 l-1 -1 l1 -1 h1 l1 -1 v-1 l1 -1 l-1 -1 l1 -1 h1 l1 -1 l1 -1 h1 l1 1 h1 h1 h1 v-1 h1 l2 -1 h1 h1 l2 -1 h1 l1 1 h1 h1 l2 -1 h1 v-1 v-1 l2 -1 h1 h1 v-1 v-1 h1 v-1 v-1 h1 v-1 h1 h1 l1 -1 v-1 l1 -1 v-1 v-1 h2 v-1 h1 h1 v-1 v-1 v-1 v-1 h-1 l1 -1 v-1 l2 -1 h2 l3 1 v-1 v-3 v-1 h1 l1 -1 l1 1 l1 1 h1 h1 h1 h1 h2 h1 l1 -1 h1 v1 l1 -1 h2 l1 1 l1 -1 l1 1 l1 1 h1 l1 1 l1 1 l1 1 h1 l1 1 l3 5 h1 v-2 l1 -1 l1 -2 v-1 h1 v-1 l2 -1 v-3 v-1 v-1 h1 h1 h1 l1 -1 v-1 v-1 l1 -1 h1 h1 h1 h1 l1 -3 l3 -3 v-1 l1 -1 h1 h1 l1 -2 h1 l1 -1 l1 -1 l1 -1 v-2 l1 -1 l2 -2 l-4 -6 l10 -9 l-10 -5 l-32 -8 Z"></path></g><g id="2701100"><path d="M-36032 -9203 l13 5 l11 5 l9 4 l17 7 l29 13 l10 5 l54 26 l-67 -76 l-48 -51 v-1 l-2 -1 l-57 -17 h-2 l-25 21 l-15 5 l-21 6 l-6 2 l-49 37 h3 h3 l2 1 h1 l1 1 l1 1 l2 -1 l3 -2 l2 1 l4 2 l2 1 l4 1 l2 1 l3 1 h1 l4 1 l4 1 l4 1 l1 1 h2 h1 h2 h1 h1 h1 l3 -2 l1 -1 l2 -1 l3 -2 h3 h1 l2 -1 h3 h1 l1 1 h1 l2 1 h2 l3 2 l3 1 h2 l1 1 l6 1 l3 -1 h1 l-1 -1 l3 -2 h3 l3 -1 l2 1 l2 1 h2 l1 -2 h2 l2 -2 l1 -2 l1 -3 v-1 l1 -1 l1 1 l26 11 l1 1 Z"></path></g><g id="2701209"><path d="M-36977 -9362 v1 l1 -1 l7 -7 l8 -7 l2 -3 l4 -2 l3 -2 h6 l2 1 l4 2 l3 3 l36 -21 l3 1 l23 3 l10 1 l10 1 l28 1 v-1 l-1 -3 l-2 -2 v-6 v-4 l-3 -1 l1 -2 l4 -2 v-4 v-2 v-3 v-1 l-1 -6 l-4 -3 l-2 -1 l-6 -6 l-4 -3 l-1 -1 l1 -2 v-7 v-1 l1 -6 l1 -7 l1 -1 v-2 l2 -2 l-2 -3 l-1 -1 l-1 -1 l3 -4 l-2 -4 v-4 l10 -11 l2 -4 l-2 -5 l-1 -1 l-1 -1 l-1 -1 h-3 l-1 -1 l-1 -1 v-1 l1 -1 h1 l1 -1 l1 -3 l1 -2 l1 -3 l1 -1 v-1 l2 -2 l1 -1 h-1 l-3 -1 l-1 -1 l-1 -1 v-1 h-1 h-2 h-2 h-2 h-8 h-5 h-2 h-5 h-2 l-3 -1 l-6 -1 l-2 -1 l-1 1 l-2 1 l-3 1 l-3 1 h-2 l-3 1 l-3 1 l-3 2 l-3 1 l-4 2 h-1 l-9 4 l-36 18 l-4 1 l-27 14 l1 1 v1 v2 l-1 1 l-1 3 l-1 1 v2 l-3 3 l-3 2 l-1 1 h-1 l-1 1 v1 v1 v1 v1 l-2 1 l-1 2 h-1 h-1 h-1 l-1 1 h-1 l-2 2 l-1 4 v2 l-1 3 l-2 1 l-2 2 l-1 3 l-8 7 l-1 2 l1 2 l1 2 l-1 1 l-1 2 l-1 3 l-1 2 l-1 4 v2 l1 2 v1 l-10 22 l2 6 v2 l1 2 l1 2 v2 l1 2 v3 v1 l1 1 l1 1 l22 -3 l9 -2 l15 13 Z"></path></g><g id="2701308"><path d="M-36179 -9359 v1 l-1 14 l-2 35 l39 -1 l31 -1 l2 -29 l1 -15 l-10 -25 l-9 -23 l-1 -3 l-26 -66 l-53 17 l1 1 l-4 1 l9 27 l17 50 l6 17 Z"></path></g><g id="2701357"><path d="M-35506 -8950 h-2 v1 h-2 h-1 h-2 h-1 h-1 h-1 h-1 l-1 1 l-2 1 l-1 1 h-1 h-1 l-1 -1 l-1 -1 v1 h-1 v1 l-1 2 l-1 1 v1 v2 v1 l-3 4 v1 v1 l-1 1 l-1 1 h-1 l-1 1 v-1 h-1 l-1 1 l-1 1 l-1 1 v2 l-1 3 l-1 2 l-1 2 l-1 2 l-1 2 h-1 v1 l-1 1 l-1 1 l-2 2 l-1 1 v1 l-1 1 l-1 2 l-2 -1 l-2 -1 l-2 -1 l-2 -1 l-1 -1 l-3 -1 h-1 l-2 -1 l-5 -2 l-1 -1 h-2 l-1 1 h-1 l-1 1 l-1 1 l-1 2 v1 l-1 2 l1 1 l-1 2 v2 l-1 1 l-1 1 l-1 1 v1 v2 l-1 1 v1 l-1 2 l1 6 l1 2 l2 2 v1 l2 6 l1 1 l1 4 l1 3 v2 l-5 4 l1 3 v2 v1 h2 l1 1 h1 v1 l1 2 l1 1 v1 v1 l2 1 l1 1 v1 l1 1 v1 h1 l1 1 h1 l1 7 h1 l2 2 v1 l2 1 l2 -2 l1 1 h1 l2 1 l1 2 h1 h2 l4 1 h1 l1 1 l-1 1 v1 h2 l1 -1 v2 h1 l1 1 l2 2 l-8 -23 l4 -16 l6 -22 l1 -2 v-1 h-1 v-1 l1 -1 v-1 l1 -1 h1 l1 1 l3 2 l1 1 h1 h1 h4 h2 l1 1 l2 1 l3 1 h1 l3 -1 l2 -2 l2 -1 h1 h1 l3 -2 l2 -2 l3 -3 h1 v-1 v-2 v-2 l1 -3 l-1 -2 v-2 v-1 v-2 v-2 l-1 -1 v-2 l-1 -1 l-1 -1 v-1 v-3 v-1 l3 -2 l1 -2 v-1 v-2 l-1 -4 v-1 l1 -2 l1 -1 l2 -2 l1 -2 v-1 v-1 v-1 v-1 l-2 -1 l-2 -1 l-2 -1 l-1 -1 l-1 1 l-1 1 l-1 -4 h-1 l-1 -1 h-2 Z"></path></g><g id="2701407"><path d="M-36336 -9729 l1 1 v1 l1 7 v2 l1 4 l1 1 h8 l1 -4 v-2 l1 -2 l2 -1 l2 -1 h3 h2 h2 l6 -3 l4 -2 h3 h3 l2 -1 l3 -1 l3 -1 l2 -1 l3 -1 l3 -1 h3 l4 2 l2 1 l3 1 h4 h3 h3 h3 h1 h1 l5 -2 l2 -1 l2 -2 v-3 h1 v-2 l5 -4 l2 -2 l4 -4 l14 -14 l2 -1 l2 -2 l1 -1 l1 -1 l21 -21 v-1 l1 -1 l1 -1 l1 -1 v-1 v-2 l-1 -1 l-1 -1 l-1 -1 h-2 l-2 -1 h-2 l-4 -2 l-2 -1 h-2 l-2 -1 h-1 v-1 h-1 l1 -1 h1 v-1 h1 l1 -4 l2 -3 l2 -4 l3 -7 v-3 v-1 l-1 -1 v-1 l1 -2 l1 -1 v-1 l-1 -2 h-2 l-1 -1 l-2 -1 h-2 l-3 -2 l-2 -1 h-1 h-1 l-1 1 l-4 3 l-1 1 l-1 1 h-1 l-8 -13 l-13 -22 l53 -7 l5 -1 l3 -9 l-13 -2 l-25 -12 v-1 h-1 h-1 h-1 v-1 l-1 1 h-1 h-1 l-13 2 l-14 3 l-6 -1 h-8 l-13 1 l-1 7 l-35 5 l-9 7 l-2 1 l-1 2 l-1 1 l-1 3 l-1 3 l-2 4 l-4 8 l-1 1 l-1 2 l-1 2 l-2 2 l-2 2 l-2 1 v1 v1 h-1 v1 l-2 1 l-8 10 l-4 3 l-5 4 l-5 5 l-7 9 l-1 -1 l-4 5 l-1 2 l-2 2 l-1 2 l-2 1 l-3 3 v1 l-1 2 l-2 1 l-1 1 l-1 1 v19 l6 3 l2 1 h1 v1 h4 l5 1 l3 1 l3 1 h1 l3 -1 h1 l1 1 l4 -3 v1 l2 3 v1 l3 4 v1 l1 1 v1 l-1 1 v1 v1 h-1 l-1 1 h-1 h-3 v1 h1 v1 v1 l2 1 h2 l2 2 h1 h2 l2 -2 h1 h1 l1 4 h1 v1 l2 2 v3 v2 v1 l2 2 l2 1 l1 1 l2 3 Z"></path></g><g id="2701506"><path d="M-36770 -9909 l1 1 l1 1 l2 3 l2 2 h2 h1 l1 1 l1 3 v1 l1 2 l1 1 l3 3 l1 2 l1 2 v1 v1 v2 l2 -1 l1 -1 h1 l2 1 l1 -1 l2 -3 v-2 h1 h1 l2 -1 h2 v2 h1 l1 1 l1 -2 v-2 v-2 l1 -2 v-1 l2 -1 v-2 l1 -2 l2 -2 l3 -1 h1 l1 1 l1 1 h1 l1 1 v1 h1 v-1 l2 -1 l2 -1 h1 v-3 h1 l1 -1 l3 -1 h2 l1 -1 v-2 l2 1 h2 h1 h4 l2 -1 h2 h1 v-2 l-1 -2 v-2 v-2 l1 -1 l2 -1 h1 l-1 -3 v-1 l1 -1 l1 -2 l3 -2 l2 -1 l1 -1 l1 2 v1 l2 -1 v-2 l1 -1 h1 l1 -1 l1 -1 v-1 l2 -1 l-1 -3 l-1 -2 v-1 l-1 -2 l-1 -2 l-1 -3 l-4 -3 l-2 -1 l-1 -2 v-1 v-4 l-1 -1 l-14 -26 l-6 -9 l-1 -2 v-1 l1 -5 l-1 -5 l2 -6 v-3 l-8 -21 l-1 -2 l-28 8 l-2 1 l-34 10 l-10 3 l-1 1 v2 l-1 1 l1 1 h1 h1 l1 1 l-1 1 h-1 h-2 l-1 1 l-1 1 h-2 v1 l-1 1 l-2 1 h-1 v1 v2 h-1 h-1 l-2 -1 l-1 -1 l-2 -1 l-4 -1 h-1 v1 h-1 v1 l-1 2 h-1 h-2 h-1 v1 v1 l-1 1 h-1 h-1 v1 h-1 l-1 -1 l-1 -1 l-2 -1 h-2 l-2 -3 h-1 l-2 -1 l-2 -2 l-1 -2 h-1 h-1 h-2 h-2 l-1 2 h-1 l-1 1 v1 l1 3 l4 4 l1 1 h3 l7 3 l4 4 l5 3 l2 3 l2 2 l3 2 l1 2 l2 7 l6 8 l2 6 l1 2 h1 v1 l1 1 l1 1 v1 v1 h-1 v1 h1 v1 v1 h1 v1 l1 1 v2 l2 2 v1 v2 l1 3 v4 v1 v1 v3 v2 l2 2 l2 1 l1 1 l1 1 l1 2 l2 6 l1 2 l3 1 h1 l4 1 l3 2 Z"></path></g><g id="2701605"><path d="M-37542 -8999 l12 36 l13 -4 l17 -1 l5 1 l5 1 l3 -10 l-3 -13 l-1 -6 l-1 -3 l-2 -3 l8 -8 l4 -4 l3 -7 l6 -4 l4 -4 h7 l16 1 h6 l6 -3 l6 -2 l7 -10 l3 -2 l4 -2 l8 -3 l5 -3 l-3 -4 l-4 -7 l-2 -2 l-4 -3 l-2 -4 l-4 -4 v-2 v-2 v-1 l-1 -5 l-1 -6 l-4 -8 l-1 -2 l2 -6 l-1 -13 l2 -4 v-7 l4 -5 v-1 l-4 -14 l-1 -3 l1 -3 h1 v-1 l1 -1 v-1 v-1 l-2 -2 l-5 -7 l-4 -4 l-1 -4 l-1 -4 l-5 -4 l-3 -4 l-1 -2 l-8 -3 l-1 -1 l-4 -1 v-1 l-1 -3 l-1 -1 h-4 l-2 -1 l-1 -4 h-1 h-2 v-2 l-1 -1 l-1 -1 l-2 1 h-2 h-1 v-1 v-1 l-2 -1 l-2 -1 v-2 v-2 l1 -2 l-1 -3 l-2 -1 l-2 -1 l-2 1 h-2 l-1 -1 v-3 l-1 -1 l-6 -2 l-2 -2 l-2 -1 l-3 -1 h-3 l-2 -2 l-3 -3 l-3 -1 h-3 l-3 -2 v-2 l-1 -2 l-2 -2 v-2 l-1 -2 l-4 -4 l-4 -2 l-1 1 l-4 1 l-5 -1 l-2 -3 l-5 -5 h-1 l-9 -5 h-3 l-3 -1 l-3 -5 l-3 -5 l-3 -1 l-3 1 l-1 -1 l-2 -2 l-8 -3 h-3 l-2 -2 h-2 l-1 1 l-4 4 l-2 1 l-3 3 l-3 1 l-2 4 l-1 2 v2 v3 l2 3 v2 l1 3 l-1 2 l-1 4 v1 l-2 2 v3 l-3 1 l-3 1 h-3 v1 l1 3 l-1 3 v2 l1 1 l3 1 l3 3 l3 1 v1 v4 l-2 1 l-6 2 l-4 3 l-2 2 v2 v4 l2 2 v2 l2 1 h1 l2 3 l-3 5 v3 l-1 4 l-4 1 l-64 16 h-2 l1 1 l18 18 l3 2 l8 10 l13 17 l13 18 v1 l17 12 l10 7 l23 32 h1 l11 16 l20 27 l11 15 l1 2 Z"></path></g><g id="2701704"><path d="M-36047 -9328 l1 -5 l42 7 l3 -12 l-11 -27 v-1 l-18 -9 l16 -26 h-1 l-11 -7 l-28 -15 l-19 -9 l-27 -21 l-4 -3 h-29 h-1 l-1 -1 l-3 -4 h-1 h-1 h-1 l-1 1 l-2 -1 l-1 -1 v-1 v-1 h-1 l-2 -1 l-1 -1 h-1 v-1 l-1 -1 l-1 -1 l-1 -1 v-2 h-2 l26 66 l1 3 l9 23 l10 25 l-1 15 l-2 29 l-31 1 l-39 1 l1 96 l49 -37 l6 -2 l21 -6 l15 -5 l25 -21 l6 -10 v-18 l5 15 l7 -31 Z"></path></g><g id="2701803"><path d="M-37326 -9423 l7 2 l49 -32 l-41 -14 l-18 -16 l-5 -5 l-14 -12 l-25 -25 l-9 6 l-4 3 l-30 19 l-27 19 l-2 1 l-1 5 l-4 19 l37 9 l62 15 l19 5 l3 1 h3 Z"></path></g><g id="2701902"><path d="M-36244 -9196 l63 -17 l-55 -77 l-1 -1 l-22 -8 l-19 -6 l-19 -7 h-2 h-1 l-1 1 h1 l1 1 v1 v1 l-1 -1 h-1 h-1 l1 1 v1 l1 2 l-1 1 v1 v1 h-2 h-1 h-3 h-1 h-2 h-1 h-1 l-2 -1 v1 v1 l-1 1 l-1 2 v1 l-4 -1 h-2 h-1 l-1 1 l-2 1 v2 v2 l2 1 l1 1 l1 1 h-2 l-3 2 v1 v1 l1 1 l1 1 v1 v1 l1 1 l-1 1 h-1 v1 v1 h1 v1 v1 l-1 1 h-1 h-1 v-1 h-1 l-1 1 v-1 h-1 l-1 1 h-1 l-1 1 l-1 1 v-1 h-1 h-1 v1 h1 v1 l-1 1 v2 v1 v1 l-2 14 l-1 4 v1 h-1 v1 v2 v2 v2 v1 h-1 h-1 l-1 1 l-1 1 h-2 v1 v2 l-1 1 l-1 2 l-1 2 l-1 1 v3 l-3 3 l-2 4 l1 -2 h1 h1 l1 3 h2 l1 1 v1 v2 l-2 4 l-3 4 l-1 2 l1 2 h3 l2 -2 l5 -2 l3 -2 h2 l4 2 l3 1 l3 1 l1 2 l2 3 l1 5 l2 2 v1 l1 5 l3 1 l1 1 l2 1 l4 2 v2 v4 l2 2 l1 -1 v-4 l1 -1 l2 -1 l2 2 h2 l2 1 l2 -1 h1 l1 2 l1 3 l2 -1 l1 -1 h1 h1 l1 1 h1 l3 -10 l3 -2 v-1 l38 -10 Z"></path></g><g id="2702009"><path d="M-36575 -9567 l1 1 v1 h1 v1 h1 h1 l1 -1 l14 -42 l5 -14 l7 -7 l1 -13 l1 -4 l1 -3 l5 -15 l-1 -2 l-2 -1 l-4 -2 l-1 -1 l-2 -2 l-1 -1 l-2 -2 l-1 -1 l-2 -1 l-2 -1 l-2 -1 h-1 l-2 -1 l-1 -1 l-1 -1 h-3 l-2 -1 l-2 -3 l-1 -1 l-2 -2 l-2 -1 l-1 -1 l-1 -1 l-1 -1 l-1 -1 v-1 l-1 -1 v-1 l-2 -1 l-2 -2 l-1 -1 h-1 h-1 v1 h-1 v1 l-1 1 v1 l1 1 v2 l-2 1 h-7 v6 l-1 2 l-3 4 l-3 3 l-2 4 v2 l-1 1 h-1 l-2 1 l-1 2 l-1 1 l-1 3 l2 2 v2 l1 1 v1 l-1 3 v1 h1 h2 l-1 2 v1 h-1 h-1 l-1 1 l1 2 l-1 1 l-1 1 v2 v1 v1 v1 l1 2 v1 l1 1 v2 l-3 1 l-1 3 l-1 2 l-1 1 h-2 l-2 -3 h-2 l-2 -1 l-3 -2 h-1 l-2 1 l-1 2 v1 h1 l2 1 v1 l1 1 v1 v1 h2 v2 l1 1 h1 l2 -1 l2 -1 h2 h2 l1 1 l1 1 l1 2 l-4 7 l1 2 l-1 1 l-2 1 h-1 v-1 h-1 l-2 2 l-2 2 l-1 1 v1 v2 v1 l-1 1 l1 2 l-1 1 l1 1 l1 1 l1 1 v2 h-1 h-1 v1 l3 3 v1 h-1 h-1 l-1 1 l1 1 l1 1 l-1 1 l-1 1 l3 2 v1 l1 1 l2 -1 l3 -2 h1 l2 1 l1 1 h1 h1 l1 1 h3 l2 1 l1 1 v2 l-1 2 l1 2 l1 1 l1 -1 h1 h2 l1 -1 l1 -1 l1 -1 h1 l1 -1 h1 h1 h1 h3 h2 l1 1 l1 1 l1 1 l3 2 l1 1 h2 Z"></path></g><g id="2702108"><path d="M-35835 -8945 l8 75 h1 l2 1 l-2 5 l3 7 h1 h2 h4 l4 -3 l2 -1 l2 1 l1 1 l2 2 l3 3 l2 2 v2 h2 l1 2 l1 1 l1 -1 l1 -2 l3 -3 h1 l1 2 h1 l3 -4 l2 -1 l2 -5 h1 l1 1 l2 2 h1 v-2 l-1 -1 v-1 l1 -2 l-1 -5 l-2 -3 v-1 l-2 -5 l-1 -1 l-2 -3 l2 -1 l1 -5 l2 -1 v-1 l-1 -1 l-3 -7 l1 -1 l2 1 l2 -1 l5 -7 h1 l3 -1 h2 l4 -1 h2 l2 -2 l4 -2 l3 -3 l4 -2 h3 l2 2 l7 3 l7 1 l4 1 l2 1 h1 l1 1 h1 l2 1 l4 2 h2 l4 -2 h8 l8 6 l3 2 h1 l4 1 l3 1 l2 -1 h2 l2 1 h4 l1 2 l7 5 l2 7 l3 2 l2 1 l2 -1 l1 -1 h1 l6 -15 l-18 -19 l-17 -18 l1 -3 l2 -7 l-19 -17 l-17 -15 l-3 -39 l39 5 v-1 l-1 -2 v-2 v-5 l-1 -2 l-2 -3 v-1 l-1 -3 l-13 3 l-12 3 l-36 10 l-13 3 l-78 26 v39 Z"></path></g><g id="2702207"><path d="M-35770 -9635 l1 -1 v-2 v-1 l-2 -2 l-2 -2 v-1 l-1 -1 l-1 -2 l-2 -2 l-3 -5 v-2 l-1 -2 l1 -2 v-3 v-2 v-2 h-1 l-1 -1 h-1 h-1 v-1 h-1 l-1 -1 v-1 l-1 -1 v-1 l-1 -2 l-1 -1 l-1 -1 l-1 -2 v-2 l-7 1 l-4 1 l-3 2 v1 l-1 2 l-1 2 v2 v2 l-1 1 l-2 3 v3 l-1 1 v1 l-2 2 l-2 1 l-1 1 h-1 l-1 -2 h-3 h-2 l-1 -1 h-2 l-1 1 l-1 2 h-3 h-1 h-1 h-1 h-1 h-29 l-4 14 v14 l13 -9 l2 -1 l1 -1 l2 -1 h1 h2 l2 -3 h2 h3 l3 1 l3 1 h1 h2 h4 h1 l1 1 l1 1 h1 l1 2 l1 3 l1 2 l1 2 l2 2 l3 3 l1 3 v2 v1 l2 1 l2 1 l2 1 l2 1 v1 v2 v1 l1 1 l3 3 l1 1 l1 1 l2 1 l2 2 l1 1 l2 -1 v-1 h1 v-1 l1 -1 l1 -7 l1 -2 l2 -3 v-1 l3 -4 l1 -1 l1 -2 l3 -2 l2 -3 l3 -1 l1 -2 l2 -3 Z"></path></g><g id="2702306"><path d="M-36280 -9935 l156 1 l1 -1 l1 -1 h1 l1 -1 l1 -2 l2 -1 l3 -4 l1 -2 l2 -2 h2 l1 -1 v-1 l1 -1 l1 -1 l1 -2 v-1 v-2 v-1 l1 -2 l2 -2 l6 -5 l3 -2 l4 -8 h2 l3 -2 l2 -1 l1 -2 l2 -5 l2 -4 l2 -9 l1 -3 l2 -1 h3 l4 -2 l2 -1 l1 -2 l5 -3 l1 -2 l-1 -3 v-4 l1 -6 l1 -2 h1 h1 l1 -1 v-1 l-1 -2 h-1 l1 -1 l-1 -1 l-1 -1 l-1 -1 l-1 -3 v-1 h-1 l10 -7 l6 -3 l6 4 h3 h2 v-2 v-1 v-1 l-1 -1 v-1 h-1 v-2 l-1 -1 l-1 -1 l-1 -1 l-3 -2 l-1 -2 l-1 -1 l-1 -1 l-1 -1 v-2 h-1 v-1 v-1 v-1 l-1 -5 l-1 -1 h-1 h-1 h-1 l-2 -1 l-1 -1 l-1 -1 l-1 -1 h-2 l-1 -3 l-1 -2 l-1 -1 l-4 1 h-2 l-2 1 l-2 -1 h-1 l-1 -1 l-2 -1 h-1 l-1 -1 h-2 l-1 -1 h-1 l-1 -1 l-2 -1 h-1 l-1 -1 h-1 v-1 l-2 -1 l-1 -1 h-1 l-1 -2 h-1 l-1 -2 l-2 -3 h-1 v-1 h-1 l-1 -2 l-1 -1 v-2 l-2 -3 l-1 -2 v-1 l-1 -1 l-1 -1 l-1 -1 v-1 l-1 -1 l-1 -3 l-1 -1 l-1 -3 l-1 -1 v-2 l1 -1 v-1 h-1 h-1 h-1 l-1 -1 l-1 -1 v-2 l-2 -1 h-2 l-2 -1 l-2 -2 l-2 -3 l-1 -1 l-2 -3 l-1 -3 l-3 -6 l-2 -2 v-2 l-1 -2 l-1 -2 h-2 v2 v1 v1 h-1 v1 h-1 v1 h-1 v1 h-1 h-1 h-2 h-2 h-1 l-1 -1 h-1 v-1 v-1 l-1 -1 v-2 l-1 -1 l-2 -1 h-1 h-3 l-3 -1 l-4 -4 l-4 -3 l-3 -4 l-4 -5 l-5 -8 l-3 -6 l-2 -3 l-1 -1 l-4 -4 l-4 -3 l-2 -1 l-8 -5 l-7 -4 l-7 -7 l-1 -1 l-1 -1 l-1 -1 l-1 -1 h-1 l-1 -1 l-1 -1 h-1 l-2 -3 l-2 -2 l-1 -1 l-1 -1 l-3 -3 h-1 l-2 -1 v-1 l-1 -1 l-1 -2 l-1 -1 h-1 l-3 -2 v-1 h-1 l-1 -1 h-1 l-1 -1 l-1 -1 h-1 v-2 l-1 -3 l-2 -1 v-1 l-2 -1 v-1 l-2 -1 l-1 -1 l-1 -1 l-2 -1 l-1 -1 l-1 -1 l-1 -1 l-1 -1 l-1 -1 h-1 l-1 -2 h-1 l-2 -2 l-1 -2 l-85 29 l-17 5 l-2 1 l-10 3 l1 2 l1 2 l5 -2 l2 2 h3 l2 3 l-1 2 l1 4 l2 -2 h3 h2 l2 2 l6 4 l4 4 l1 3 l-1 1 v2 l1 2 v2 l-1 1 l-1 2 h2 l3 2 l1 3 v4 l5 4 l2 2 l3 2 l2 6 l-1 6 l-6 9 l-2 1 l-15 7 l-1 2 l-1 2 v4 l2 14 l-2 13 l-6 7 l-2 1 v1 l-2 2 l-1 1 l-1 2 l-2 2 l-2 2 l-7 1 h-4 l-3 -2 l-2 1 l-3 2 h-3 v7 l1 3 v7 v1 l-2 2 v-1 h-2 h-5 h-3 l-2 -2 l-1 1 l-2 2 l-2 7 v3 v6 h-2 l-1 -1 l1 -2 l-4 1 l-3 -3 h-2 l-4 -2 l-2 -1 l-1 2 v1 l-3 2 l-1 2 v1 l-9 6 v5 l-1 1 l2 3 l-1 1 l1 2 l-2 1 v4 l-1 1 h-2 l-1 4 l37 1 l30 2 l21 1 l61 3 h1 l-1 2 l-1 5 v5 l3 2 l5 4 l2 5 l3 4 l2 4 l1 5 l2 10 l3 18 l2 11 l2 21 h1 Z"></path></g><g id="2702355"><path d="M-36872 -9585 l3 3 l2 1 l3 1 l3 1 l3 2 l2 2 l2 1 l2 1 l1 2 l1 1 h2 l3 -2 l3 -1 v1 v2 l-1 3 l1 2 l4 3 l1 2 v1 v2 l2 1 l2 1 l1 1 l1 2 h1 l1 -1 h1 v-1 l1 -1 l4 -4 l1 -1 h2 h1 h1 h2 l1 -3 l1 -1 h2 l1 2 l1 1 h1 h2 l1 1 h2 v2 l1 2 h2 l2 -1 h2 h2 l1 2 l1 2 l2 1 l3 1 l2 1 l5 -2 l3 -1 l1 -1 l2 -3 h1 h1 l3 1 l2 -1 h2 l2 -1 l1 -1 v-2 l2 -2 l3 -1 l1 -1 l1 -1 v-6 l2 -5 h1 h4 l2 1 h2 l1 1 l21 -7 h1 l2 2 l1 -1 l6 -1 h3 l3 -3 l2 1 l1 1 l9 3 v-4 l-1 -3 v-3 l-1 -1 l-1 -3 v-2 l-1 -4 l1 1 l2 1 h3 h1 l2 1 h1 l2 -1 l2 -1 l2 -2 l1 -1 h1 l-3 -13 l-4 -12 l-1 -6 l-1 -2 l-2 -5 l-10 -15 l-1 -2 l-12 -4 l-4 -2 l-18 -11 l-2 -10 v-1 v-1 l-7 -7 l-8 -10 l-2 -2 l-20 -24 l-2 2 l-2 3 l-8 8 l-2 2 l-3 3 h-1 l-1 1 h-2 l-2 1 l-4 3 l-3 3 l-1 1 h-1 h-2 l-5 2 l-2 1 v1 l-1 1 l1 4 l1 2 v2 l-1 2 l-5 2 l-3 2 l-3 2 h-2 l-4 2 l-6 3 l-2 1 l-9 7 l-2 -1 h-2 h-2 l-1 1 h-1 l-3 1 l-1 1 l-1 -1 h-1 l-3 7 l-1 4 l-4 8 v2 l-1 1 h-1 l-2 1 l-4 3 l-4 2 h-1 l-2 2 v2 v1 h-1 l-2 2 l-12 6 l2 1 v1 v1 l-1 1 l-2 2 l-1 1 v2 v1 l1 1 h1 l3 1 v1 l3 3 l2 1 l2 1 h2 l2 1 v1 l1 4 v3 v1 h1 l1 1 h2 h1 h2 h2 l1 1 l1 2 l1 2 l1 4 l1 2 l2 1 Z"></path></g><g id="2702405"><path d="M-38177 -9289 l3 4 l8 14 l5 3 l3 4 l1 1 v3 l1 5 v6 l28 -17 v-1 h1 l1 -1 h1 l2 -1 l1 -1 l74 -45 l41 -24 l66 -38 l64 -36 l1 -3 l-2 -4 h-1 h-1 l-3 -3 l-1 -1 v-4 l-1 -2 v-3 l-1 -1 l-1 -1 h-1 l-3 2 l-1 -1 v-3 v-7 l-4 -3 l-1 -2 v-1 l2 -4 l2 -3 v-5 l-2 -5 v-1 l1 -2 l-1 -2 l-3 -3 v-3 v-2 v-4 l1 -3 l-1 -2 l1 -3 l-1 -4 l2 -3 l3 -3 l-3 -10 l1 -4 v-2 l2 -1 h4 l1 -2 l-3 -4 l1 -2 l2 -2 v-1 v-2 l-2 -1 l-5 -1 v-3 l1 -3 h-2 l-14 -7 l-4 -2 h-3 l-5 1 l-5 2 h-2 l-3 3 l-3 1 l-13 3 l-8 5 l-13 2 h-5 l-4 1 l-7 4 h-4 l-3 2 l-7 7 l-2 1 l-2 2 v4 l1 4 l4 8 l-1 1 l-2 2 l-3 5 l-4 7 l-1 2 v1 l-2 2 l-3 2 h-5 l-1 1 l-2 3 v2 v1 l-8 3 h-3 l-3 1 h-1 l-4 -2 l-2 -1 l-4 2 l-4 3 l-4 2 h-1 v2 l-2 1 l-8 1 l-2 -1 v1 l-1 2 l1 2 v2 l-2 4 l-4 4 l-4 3 l-2 1 l-5 1 h-3 l-9 2 l-12 1 h-4 l-1 -1 h-1 l-3 -5 h-4 l-8 3 h-6 l-6 1 l-3 -2 l-6 -2 l-3 -2 l-1 1 l-1 1 l-1 2 l-8 4 l-2 1 l-4 3 l-4 2 l-3 5 l-3 -1 l-3 1 l-4 1 l-3 1 l-6 2 l-6 1 l-2 1 v2 l1 10 l1 4 l1 3 l1 1 l7 5 l-1 1 l-1 1 v1 l2 5 v1 l-4 2 l-2 4 l-2 3 l-2 3 l-2 9 l-2 4 l-7 7 l-9 6 l-3 4 l-5 7 l-5 5 l-1 1 l17 18 l18 15 h1 l10 1 l12 5 l3 2 Z"></path></g><g id="2702504"><path d="M-37120 -9388 v1 l3 1 l3 2 l2 1 l2 2 l2 3 l1 3 l2 3 l1 4 l1 6 l3 3 l3 2 l3 3 l3 3 l2 3 v5 l-1 5 l1 4 l2 4 l4 5 l3 3 l3 2 l3 2 l4 1 h4 h2 l3 -1 l1 -1 l2 1 l1 5 l2 6 h1 l1 -1 l2 -4 l3 -3 l2 -1 h3 h3 l8 2 h3 l5 -2 l3 -4 l3 -4 l1 -6 l4 -9 l6 -8 l4 -6 l12 -3 l9 -2 l3 -2 l2 -1 v-1 l-15 -13 l-9 2 l-22 3 l-1 -1 l-1 -1 v-1 v-3 l-1 -2 v-2 l-1 -2 l-1 -2 v-2 l-2 -6 l-4 -12 l-5 -13 l-64 -39 h-1 l-13 -4 h-1 v22 l-31 2 l1 5 l1 1 l1 5 v1 l1 2 l-2 3 v1 l2 2 l2 1 l2 1 l2 2 l2 2 l1 2 l2 3 l2 3 l7 8 l3 3 l1 2 l1 1 Z"></path></g><g id="2702553"><path d="M-36797 -9293 v13 l20 5 l15 4 l1 -1 l31 -11 l30 -10 l-2 -2 v-2 l1 -1 l-5 -5 l-1 -2 l-1 -4 l-1 -1 l-3 -4 l-2 -6 l1 -7 l-2 -2 l-1 -5 l-1 -2 v-6 v-3 l-2 -2 l-1 -1 l-1 -1 v-8 v-4 l1 -2 l2 -2 l4 -3 l1 -2 v-6 l1 -1 h-1 l1 -1 v-1 l-2 -3 l-2 -3 l-1 -3 l-2 -1 l-5 -1 v-8 l1 -29 v-6 l1 -1 l4 -3 l1 -2 v-2 l-1 -2 l1 -3 v-2 l-2 -2 v-2 l-1 -1 l-1 -9 v-4 v-2 l1 -3 l4 -3 v-1 l1 -1 h2 l3 -2 l1 -2 l1 -2 l-1 -3 h-22 h-24 h-39 l-11 -7 l-14 -7 l-14 -8 l2 5 l-2 4 l-10 11 v4 l2 4 l-3 4 l1 1 l1 1 l2 3 l-2 2 v2 l-1 1 l-1 7 l-1 6 v1 v7 l-1 2 l1 1 l4 3 l6 6 l2 1 l4 3 l1 6 v1 v3 v2 v4 l-4 2 l-1 2 l3 1 v4 v6 l2 2 l1 3 v1 l24 23 l5 8 l1 4 l-1 5 v3 v2 l1 53 Z"></path></g><g id="2702603"><path d="M-36702 -9824 l13 17 l-2 3 l24 -12 l14 -6 l11 -5 l10 -7 h1 l1 -3 l8 -23 l2 -2 h1 l1 -1 l23 -6 h1 v-1 h1 v-1 h1 h1 v-1 h-1 l-1 -1 h-1 h-1 h-2 h-1 h-3 h-2 h-1 v-4 l1 -26 h-1 v-1 l-1 -1 h-1 l-2 -1 l-4 1 l-1 -4 l-1 -2 l-1 -1 v-1 l2 -1 l1 -1 v-2 v-1 l-2 -3 v-1 l1 -3 v-12 l-1 -14 h-11 h-1 h-1 l-1 -1 h-1 h-1 h-1 v-1 l1 -2 l1 -1 l2 -2 v-2 l1 -4 l1 -1 v-1 h-1 l-1 -1 l-1 -1 l-3 -1 v-1 v-3 l1 -2 l1 -1 l1 -2 v-2 l-3 -1 l-2 -1 h-1 l-1 -1 h-3 l-2 1 h-2 v-1 v-1 h1 v-2 l-1 -1 l-2 1 h-2 h-1 l-2 1 l-5 2 l-5 4 l-7 4 l-5 2 l-5 3 l-1 2 h-2 h-2 l-4 3 l-1 2 l1 1 v4 v1 l1 2 l2 1 l4 3 l1 3 l1 2 l1 2 v1 l1 2 l1 3 l-2 1 v1 l-1 1 l-1 1 h-1 l-1 1 v2 l-2 1 v-1 l-1 -2 l-1 1 l-2 1 l-3 2 l-1 2 l-1 1 v1 l1 3 h-1 l-2 1 l-1 1 v2 v2 l1 2 v2 h-1 h-2 l-2 1 h-4 h-1 h-2 l-2 -1 v2 l-1 1 h-2 l-3 1 l-1 1 h-1 v3 h-1 l-2 1 l-2 1 v1 h-1 v-1 l-1 -1 h-1 l-1 -1 l-1 -1 h-1 l-3 1 l-2 2 l-1 2 v2 l-2 1 v1 l-1 2 v2 v2 l-1 2 l-1 -1 h-1 v-2 h-2 l-2 1 h-1 h-1 v2 l-2 3 l-1 1 l-2 -1 h-1 l-1 1 l-2 1 h1 l29 1 l-13 14 l10 14 l10 13 l13 17 Z"></path></g><g id="2702702"><path d="M-36389 -10240 l2 3 h1 l10 -3 l2 -1 l17 -5 l85 -29 l-1 -1 l-1 -1 l-2 -2 l-2 -3 l-2 -2 l-1 -2 l-1 -1 l-2 -1 l-1 -3 h-1 v-1 l-1 -2 l-1 -1 l-1 -1 v-1 l-1 -1 l-1 -2 h-1 l-1 -2 v-1 l-1 -1 l-1 -3 l-1 -2 l-1 -1 v-1 l-1 -3 h-1 v-2 l-1 -1 v-1 l-1 -1 v-1 l-1 -1 v-2 l-1 -3 v-2 v-2 v-2 v-1 v-1 v-4 l1 -4 v-1 l-3 -2 h-2 l-4 -2 h-3 l-3 2 l-13 9 l-17 7 l-46 19 l3 2 l3 7 l2 1 l4 1 l1 1 l1 3 l1 1 v7 l-1 2 l-2 4 l-2 8 l-1 2 l-3 1 l-5 2 h-1 v1 l-2 3 v3 l-1 1 l-1 2 v1 h1 l1 4 v1 l-3 5 l5 5 l3 1 l1 1 Z"></path></g><g id="2702801"><path d="M-35769 -9146 h1 l1 1 l2 2 h1 h1 l1 1 h1 l1 1 h1 h1 h1 l1 1 h1 v1 h1 h2 l1 1 h1 l1 1 h1 h1 h1 h1 l3 2 l2 1 l1 1 l3 2 l1 1 l1 1 h1 l2 1 l3 2 l2 1 h1 l12 -56 l1 -5 l9 -44 l10 -30 l1 -20 v-1 v-1 v-1 v-1 v-2 v-12 l6 -73 h-2 l-58 -13 l-24 -6 l1 2 v38 v15 v26 l-20 23 l-7 9 l-9 10 l-15 1 l-16 1 l1 29 l-8 15 l-18 32 l-28 51 h2 h3 h2 h2 h1 h3 h1 h1 l1 1 v1 h1 h1 l4 -2 l3 -2 l2 -1 l5 -2 l2 -2 l2 -1 l1 -1 l1 -1 l5 -3 h1 h3 h1 l2 1 l2 -1 h2 l2 1 h2 h1 h1 l2 -1 l2 -2 l2 -1 l1 -2 l2 -1 l1 -1 l2 -1 h2 h2 l2 1 h2 h2 h2 l3 1 l2 -1 l2 1 h1 h1 l2 -1 h1 l2 2 l2 1 l1 1 h2 h1 h1 h1 h1 l1 1 l1 1 v1 h2 l1 1 l2 1 l1 1 l1 1 h1 h2 l1 1 Z"></path></g><g id="2702900"><path d="M-36902 -9771 l1 31 l-68 46 l-1 2 l1 3 v3 l1 2 l1 4 l1 3 l1 1 v1 l2 2 h2 l1 2 v1 v1 v1 l1 2 l1 1 l3 2 l1 1 v1 v3 v3 l1 2 l1 2 l1 2 l-1 2 v2 v2 l1 2 h4 l4 1 v2 l-3 3 v2 l1 2 l2 2 l2 2 l3 1 h4 l7 -1 h3 h2 l2 1 h2 l1 -1 h2 l5 -1 h2 l1 1 h1 h1 l1 1 h1 l12 -6 l2 -2 h1 v-1 v-2 l2 -2 h1 l4 -2 l4 -3 l2 -1 h1 l1 -1 v-2 l4 -8 l1 -4 l3 -7 h1 l1 1 l1 -1 l3 -1 h1 l1 -1 h2 h2 l2 1 l9 -7 l2 -1 l6 -3 l4 -2 h2 l3 -2 l3 -2 l5 -2 l1 -2 v-2 l-1 -2 l-1 -4 l1 -1 v-1 l2 -1 l5 -2 h2 h1 l1 -1 l3 -3 l4 -3 l2 -1 h2 l1 -1 h1 l3 -3 l2 -2 l8 -8 l2 -3 l2 -2 l2 -2 l2 -3 h1 l4 -6 l13 -19 l8 -9 l-3 -2 l-1 -2 l-2 -4 l-1 -2 l-1 -2 v-1 l-1 -1 l-3 -3 l-3 -3 l-1 -2 v-2 l-1 -3 l-2 -3 v-4 l2 -4 l1 -3 l1 -3 v-3 l1 -2 l1 -2 v-1 v-1 v-1 l-1 -4 v-2 v-2 l2 -6 l-1 -3 l-1 -3 l-4 -5 v-1 v-1 l12 -34 v-2 v-1 v-1 l-1 -2 l-1 -2 l-3 -3 l-1 -1 l-1 -2 v-1 l-1 -3 l-1 -1 h-1 h-2 l-2 -2 l-2 -3 l-1 -1 l-1 -1 l-3 -2 l-4 -1 h-1 l-3 -1 l-1 -2 l-2 -6 l-1 -2 l-1 -1 l-1 -1 l-2 -1 l-2 -2 v-2 v-3 v-1 v-1 v-4 l-1 -3 v-2 v-1 l-2 -2 v-2 l-1 -1 v-1 h-1 v-1 v-1 h-1 v-1 h1 v-1 v-1 l-1 -1 l-1 -1 v-1 h-2 l-9 -2 h-2 l-9 6 l-3 4 l-1 2 l-4 4 l-1 2 v2 v4 l2 4 v4 l-21 -1 h-1 l-1 1 l-1 1 l-30 25 l-29 10 l-13 11 l1 26 l1 13 l1 24 l4 1 l13 8 v17 l1 20 v2 Z"></path></g><g id="2703007"><path d="M-35963 -8935 l-8 8 v3 l-1 1 l-1 2 h-1 l1 1 l-1 1 l-1 1 h-1 l-1 1 v1 h-1 h-2 l-1 1 v1 v1 v1 v1 l-1 2 l-1 1 l-1 1 h-1 h-2 v1 h-1 v1 v1 l1 1 h1 l2 -2 h2 l2 2 l5 1 l4 2 l1 -1 l2 -3 l3 1 l1 1 l1 1 v2 l1 1 v3 l1 1 l2 1 l3 -1 h1 h2 v1 l2 1 l1 1 l5 5 h2 l10 1 h9 l2 2 l1 2 v3 l1 1 l2 6 l2 3 l5 7 h1 l3 -2 l6 1 l1 1 l1 2 l3 5 h1 l1 -1 l1 -5 l2 -1 l2 -2 h2 h3 l4 2 l1 1 l3 1 h2 h2 h5 l3 1 h2 l1 -1 l1 -1 l2 -1 l3 -2 l2 -3 l2 -2 l1 -1 l1 -3 h2 l3 -1 h1 l3 3 l3 1 h2 l1 -1 h1 l1 1 l1 1 l4 -2 l-8 -75 v-39 l-26 -69 v-1 h-2 h-1 l-1 1 l-1 -1 h-1 h-1 v-1 h-1 h-1 l-1 -1 h-3 l-2 1 h-1 v1 h-1 h-1 v-1 l-1 -1 v-1 v-1 v-1 v-1 h-1 l-1 -1 v-2 v-1 h-1 v-1 h-1 v-2 h-1 h-1 h-1 h-1 l-1 -1 h-1 v1 h-1 h-1 v2 h-1 v1 h-1 h-1 l-2 1 l-1 1 h-1 l-2 1 l-1 2 l-1 1 l1 1 v1 v1 l-1 1 v1 v1 v1 v1 v1 v1 h-1 h-2 l-1 1 l-1 1 l-1 1 l-1 1 l-1 1 v1 h-2 h-3 h-1 l-1 -1 h-1 v1 h-1 v1 v1 l-2 1 v1 h-1 l-1 2 v1 v1 l-1 1 l-1 1 h-2 h-2 h-1 h-1 l-1 -1 l-1 1 l-2 -1 h-1 h-1 h-1 l-2 -1 l-1 -1 l-1 -1 h-2 l-2 1 v1 l-1 -1 h-1 l-3 2 l-1 1 h-1 l-1 1 l-4 26 l-2 9 v1 l1 1 l3 2 l3 3 l2 1 l-2 2 v2 l1 2 l-3 16 l-1 2 h-2 v1 l-1 1 l-1 1 v1 h-1 l1 1 v1 h1 v1 l1 2 v1 v2 v1 h1 h1 v1 h1 v1 h1 v1 h1 v1 h1 l-1 1 l-9 11 Z"></path></g><g id="2703106"><path d="M-36615 -9483 h1 l45 -5 l14 -17 l1 -1 h1 v-1 h1 v-1 v-1 l1 -1 l19 -22 l-1 -1 l-3 -1 h-2 h-2 l-1 -1 h-1 h-1 l-2 1 v-3 h-2 l-1 1 l-1 -1 v-1 l-1 -1 v-1 l-2 1 l-1 -1 h-1 l-1 -1 v-1 v-1 l-2 -1 l-1 -1 l-1 -4 v-1 l-1 -1 h-2 v-2 h-1 l-1 -1 l-1 -1 l-1 -1 v-4 v-1 l-2 -1 l-4 1 l-1 -1 h-1 l-1 -1 v-1 v-1 h1 v-1 l-1 -1 h-2 l-1 -1 l-3 -2 l-1 -1 l-1 -1 l-1 -1 h-2 h-3 h-1 h-1 h-1 l-1 1 h-1 l-1 1 l-1 1 l-1 1 h-2 h-1 l-1 1 l-1 -1 l-1 -2 l1 -2 v-2 l-1 -1 l-2 -1 h-3 l-1 -1 h-1 h-1 l-1 -1 l-2 -1 h-1 l-3 2 l-2 1 l-1 -1 v-1 l-3 -2 l1 -1 l1 -1 l-1 -1 l-1 -1 l1 -1 h1 h1 v-1 l-3 -3 v-1 h1 h1 v-2 l-1 -1 l-1 -1 l-1 -1 l1 -1 l-1 -2 l1 -1 v-1 v-2 v-1 l1 -1 l2 -2 l2 -2 h1 v1 h1 l2 -1 l1 -1 l-1 -2 l4 -7 l-1 -2 l-1 -1 l-1 -1 h-2 h-2 l-2 1 l-2 1 h-1 l-1 -1 v-2 h-2 v-1 v-1 l-1 -1 v-1 l-2 -1 h-1 v-1 l1 -2 l2 -1 h1 l3 2 l2 1 h2 l2 3 h2 l1 -1 l1 -2 l1 -3 l3 -1 v-2 l-1 -1 v-1 l-1 -2 v-1 v-1 v-1 v-2 l1 -1 l1 -1 l-1 -2 l1 -1 h1 h1 v-1 l1 -2 h-2 h-1 v-1 h-2 l-1 1 h-1 l-3 -1 l-2 -1 l-3 -1 l-2 1 l-2 2 l-2 2 l-2 6 l-3 1 l-2 1 l-2 2 l-1 4 h-1 l-2 1 l-3 -2 l-3 -2 h-4 l-2 -1 l-3 -2 l-4 1 l-20 5 l-11 2 l1 2 l1 6 l4 12 l3 13 h-1 l-1 1 l-2 2 l-2 1 l-2 1 h-1 l-2 -1 h-1 h-3 l-2 -1 l-1 -1 l1 4 v2 l1 3 l1 1 v3 l1 3 v4 l-9 -3 l-1 -1 l-2 -1 l-3 3 h-3 l-6 1 l-1 1 l-2 -2 h-1 l-21 7 l-1 -1 h-2 l-2 -1 h-4 h-1 l-2 5 v6 l-1 1 l-1 1 l-3 1 l-2 2 v2 l-1 1 l-2 1 h-2 l-2 1 l-3 -1 h-1 h-1 l-2 3 l-1 1 l-3 1 l-5 2 l-2 -1 l-3 -1 l-2 -1 l-1 -2 l-1 -2 h-2 h-2 l-2 1 h-2 l-1 -2 v-2 h-2 l-1 -1 h-2 h-1 l-1 -1 l-1 -2 h-2 l-1 1 l-1 3 h-2 h-1 h-1 h-2 l-1 1 l-4 4 l-1 1 v1 h-1 l-1 1 h-1 l-1 1 v1 l-1 3 v1 l-1 2 l-1 1 l-2 1 l-1 1 l-1 2 l2 2 l1 2 v2 l-1 1 v1 l1 1 l1 1 l3 1 h1 l-1 1 l-2 2 v1 l-1 1 l-1 3 l-1 2 l-1 3 l-1 1 h-1 l-1 1 v1 l1 1 l1 1 h3 l1 1 l1 1 l1 1 l14 8 l14 7 l11 7 h39 h24 h22 h1 h20 l2 -1 l26 -9 l4 -1 l15 -6 l2 1 l2 1 l11 9 l11 7 v1 Z"></path></g><g id="2703205"><path d="M-36671 -10076 v1 l1 1 v1 v1 v1 v1 v1 v1 l-1 1 v1 l4 13 l1 2 l4 1 h1 l1 2 v2 l-1 4 v5 l3 3 h4 l12 -1 l63 -3 l62 -3 l2 -3 l-1 -2 l1 -3 l2 -1 l2 -6 l1 -6 v-3 v-4 h2 l6 -2 l2 1 l2 -1 h4 h3 l-4 -8 v-1 v-1 v-1 v-1 h-1 v-1 v-1 v-1 v-1 v-1 v-1 l-1 -1 v-1 v-1 l-1 -1 h-1 l-2 -1 h-1 v-1 l-2 -31 l-7 -20 v-3 l-7 -16 l-6 -12 h-1 h-1 h-1 l-4 -1 l-6 -1 l-6 -1 h-3 l-5 -1 l-4 -2 l-4 -1 l-3 -1 h-2 l-1 -2 l-6 -2 l-2 -1 l-4 -2 h-3 l-8 -1 l-4 1 v-1 h-1 h-1 h-1 v-1 h-1 v-1 l-1 -1 h-1 h-1 h-1 l-36 -26 l-7 -10 l-17 -12 v-2 h4 l3 -2 h3 l1 1 l2 -1 l2 -2 l5 3 l5 -2 l3 -3 l1 -2 l-8 2 h-3 l-2 -1 l-5 -3 l-1 -7 l-8 -5 l-3 -2 l-3 1 l-6 1 l-5 -2 h-4 l-4 -2 l1 -1 l-1 -2 h-2 l-3 1 l-2 1 l-11 2 h-1 l-8 3 l-5 1 l-5 2 l1 1 v1 v1 v1 v2 l-1 1 v1 l-2 1 l-1 1 l-1 1 l1 2 l2 2 l-2 6 l1 7 l-8 44 v16 v3 v5 v8 h-1 l-1 1 l-1 1 l-1 1 v1 v1 l-11 11 l7 3 l5 1 h1 l4 -1 l3 1 l1 1 l3 1 h1 l16 7 l6 2 l14 4 l3 11 v1 l1 6 l6 13 l1 16 v1 l2 2 Z"></path></g><g id="2703304"><path d="M-37716 -9191 l24 14 h2 l64 -16 l4 -1 l1 -4 v-3 l3 -5 l-2 -3 h-1 l-2 -1 v-2 l-2 -2 v-4 v-2 l2 -2 l4 -3 l6 -2 l2 -1 v-4 v-1 l-3 -1 l-3 -3 l-3 -1 l-1 -1 v-2 l1 -3 l-1 -3 v-1 h3 l3 -1 l3 -1 v-3 l2 -2 v-1 l1 -4 l1 -2 l-1 -3 v-2 l-2 -3 v-3 v-2 l1 -2 l2 -4 l3 -1 l3 -3 l2 -1 l4 -4 l1 -1 h2 l2 2 h3 l-1 -1 l1 -1 l1 -1 l1 -2 v-2 l-1 -1 v-1 l-1 -4 l-1 -2 l-3 -6 v-1 l-1 -3 l-1 -3 l-2 -2 l-6 -5 l-1 -3 l-3 -4 l-1 -1 l-2 -2 l-1 -2 l-2 -3 v-3 l-1 -2 l-1 -2 l-2 -2 l-1 -2 v-2 l-1 -4 l-1 -2 l-2 -2 l-1 -1 h-1 v-2 v-2 v-1 l-2 -1 l-4 -2 l-3 -4 l-2 -1 l-3 -3 l-1 -2 l-1 -2 l-1 -2 l-1 -2 l-3 -2 l-1 -3 l-2 -2 v-1 l-1 -2 v-1 v-2 v-1 v-2 l-1 -1 v-1 h-1 h-1 h-1 l-1 -1 l-1 -1 v-2 v-1 l-1 -1 l-1 1 l-1 1 l-71 73 l-14 14 l-29 27 l-10 10 l-29 28 l-15 15 l-17 18 v16 l40 3 l43 4 l35 3 h1 l7 5 Z"></path></g><g id="2703403"><path d="M-37238 -9737 h-2 l-48 50 l-15 51 l4 1 h4 l3 1 h2 l2 -1 l2 -2 h2 h5 l2 1 l3 1 h4 h2 h3 l4 1 l3 2 h2 h2 h4 l8 11 l6 9 l-7 11 l-1 2 l-1 2 l-1 1 l-9 15 l54 -16 l38 -11 h1 l1 -1 h1 l2 1 l1 -1 v-4 l1 -1 l2 1 l1 -1 l-14 -29 l-24 -47 l-21 -3 l-2 -2 l-1 -1 l-1 -3 v-2 l1 -3 h-1 l-3 1 h-1 v-2 l1 -2 v-3 l-1 -6 v-5 l-1 -2 l-3 -1 l-3 1 l-2 1 l-1 -2 v-6 l-1 -1 h-4 h-2 v-3 l-1 -3 Z"></path></g><g id="2703502"><path d="M-35408 -8842 l2 -2 l4 -5 l2 -1 l2 -1 l3 1 l44 -11 v-2 l1 -1 l1 -1 l3 -3 l1 -2 l3 -5 l-1 -2 h-4 l-4 -1 l-2 -3 l-2 -3 l-5 -1 v-1 l-2 -6 l-2 -4 l-1 -1 v-4 l-1 -2 l-1 -6 l-5 -3 v-4 l2 -5 l1 -4 l-2 -4 l1 -2 l1 -1 v-3 v-1 v-1 l2 -5 l1 -1 l-12 -26 l-44 48 l-11 -17 l-17 -27 v1 l-3 2 v1 h2 l1 1 l2 3 l-1 3 h-1 l-1 1 l-1 1 l-1 1 l-1 1 l-1 1 l-1 1 h-1 l-1 2 l-3 -1 v2 h-1 l-1 -2 h-1 h-1 l-1 1 v1 l-3 2 l-4 3 l-2 2 v-1 v-1 l2 -3 h-2 l-1 -1 h-1 v1 l-3 2 l-3 -1 h-7 l-2 1 v1 v1 l-1 2 l-2 2 l-1 1 l-1 2 v1 l1 4 v2 v1 l-1 2 l-3 2 v1 v3 v1 l1 1 l1 1 v2 l1 1 v2 v2 v1 v2 l1 2 l-1 3 v2 v2 v1 h-1 l-3 3 l-2 2 l-3 2 h-1 h-1 l-2 1 l-2 2 l-3 1 h-1 l-3 -1 l-2 -1 l-1 -1 h-2 h-4 h-1 h-1 l-1 -1 l-3 -2 l-1 -1 h-1 l-1 1 v1 l-1 1 v1 h1 v1 l-1 2 l-6 22 l-4 16 l8 23 l1 1 h2 l2 1 v-1 l1 -2 v-2 l1 -3 l2 -1 h1 l1 1 l2 3 l7 4 l1 1 l1 2 h1 l1 -1 h1 l1 -1 l2 1 l5 -1 l1 -2 l2 -1 h1 l2 2 h1 v-5 l1 -2 l2 1 l1 -2 l1 2 l2 1 l3 -2 h2 l2 1 h4 l1 2 v3 v1 h3 l3 3 h3 l1 1 l1 3 l2 -1 l1 -1 l-1 -2 l1 -1 l2 1 l1 1 l2 -3 l-2 -1 v-1 l1 -3 l-1 -2 h-1 v-1 l-2 -1 l2 -1 h1 h1 l1 -1 l1 -1 l1 -1 v-3 v-2 v-1 h1 v-1 l2 -2 h1 h2 h1 h1 h1 l2 -1 l2 1 h3 l2 1 l2 -2 l4 1 l1 1 l3 4 l3 -1 h2 l3 -2 l1 1 l1 1 h3 l1 -2 h1 l1 1 l2 2 h3 l1 -2 h3 l-1 -3 v-1 Z"></path></g><g id="2703601"><path d="M-35291 -9156 h-2 h-1 h-1 v1 l1 2 v1 l2 1 l1 1 l1 1 v1 l-2 2 l-2 1 h-5 l-2 -1 h-1 l-4 -1 l-1 -1 h-1 h-1 l-2 1 h-1 v1 v2 l1 1 l1 1 h-1 l-1 1 v1 h1 h2 h1 v2 h1 v-1 v-1 l1 -1 v1 h1 v2 l1 1 v-1 h2 v1 l1 1 l-1 1 v1 h-1 l-6 5 l-7 1 l-1 1 l-2 1 l-7 6 l-1 3 v3 v4 l-1 4 l-1 2 v1 l-1 2 l-2 5 v2 l-1 1 v5 l-1 1 v1 l-2 2 l-1 2 v3 v1 v1 v1 l-1 2 v1 v2 v3 v2 v2 v1 l1 1 l3 2 v1 v2 h-1 v1 l1 2 v1 l-1 1 v2 h-1 l1 1 v1 h-1 l-1 1 v1 v1 v1 v1 v1 l1 3 v3 v3 v1 l33 4 l1 -1 h2 v-1 h5 l1 -2 l2 -2 l4 1 l1 -1 l2 -2 l2 -3 l2 -4 l3 -4 l9 -9 l7 -11 l2 -2 l4 -2 l3 -1 h2 h2 l1 2 l3 1 l1 1 l1 1 l2 2 l1 -1 l1 -1 v-2 l-2 -1 l-1 -2 l-1 -2 l-1 -3 l-1 -1 v-2 l-2 -1 h-1 l-1 -1 l-1 -1 l-1 -1 h-1 v-1 v-1 h-1 l-1 -1 h-1 h-1 v-1 v-1 h-1 v-1 v-1 v-1 h-1 v-1 v-1 v-1 v-1 v-1 v-1 v-1 v-1 h-1 v-1 v-1 h-1 v-1 v-1 h-1 v-1 h-1 v-1 h-1 v-1 v-1 h-1 v-1 h-1 v-1 h-1 v-1 l-1 -1 v-1 h-1 v-1 v-1 h-1 v-1 v-1 v-1 v-1 v-1 l-1 -2 v-1 h-1 h-1 v-1 h-1 l-2 -1 h-2 h-2 h-1 v-1 h-1 v-1 h-1 v-1 l-1 -1 v-1 l-1 -2 l-1 -2 v-2 l-2 -4 v-1 v-1 v-1 v-1 l1 -1 v-1 l1 -1 v-1 v-1 v-1 v-1 l-1 -1 v-1 v-1 h-1 v-1 h-1 v-1 v-1 h-1 h-1 v1 h-1 Z"></path></g><g id="2703700"><path d="M-36993 -9721 l-2 1 l-1 1 l-1 1 l-1 1 l-2 2 l-6 5 l-2 2 l-24 20 l-35 30 l-1 21 l1 1 l2 1 l2 2 l1 3 l1 2 l1 1 l4 3 l2 1 l2 3 l6 -1 l43 -9 h1 h1 l113 31 v-3 l-1 -4 v-1 l-2 -1 h-2 l-2 -1 l-2 -1 l-3 -3 v-1 l-3 -1 h-1 l-1 -1 v-1 v-2 l1 -1 l2 -2 l1 -1 v-1 v-1 l-2 -1 h-1 l-1 -1 h-1 h-1 l-1 -1 h-2 l-5 1 h-2 l-1 1 h-2 l-2 -1 h-2 h-3 l-7 1 h-4 l-3 -1 l-2 -2 l-2 -2 l-1 -2 v-2 l3 -3 v-2 l-4 -1 h-4 l-1 -2 v-2 v-2 l1 -2 l-1 -2 l-1 -2 l-1 -2 v-3 v-3 v-1 l-1 -1 l-3 -2 l-1 -1 l-1 -2 v-1 v-1 v-1 l-1 -2 h-2 l-2 -2 v-1 l-1 -1 l-1 -3 l-1 -4 l-1 -2 v-3 l-1 -3 l1 -2 l-2 -1 l-3 1 l-1 1 h-2 l-1 -2 l-2 -6 l-1 -2 l-5 -2 v-1 v-2 l1 -5 v-2 l-2 -3 l-6 -3 Z"></path></g><g id="2703759"><path d="M-36227 -9850 l8 13 h1 l1 -1 l1 -1 l4 -3 l1 -1 h1 h1 l2 1 l3 2 h2 l2 1 l1 1 h2 l1 2 v1 l-1 1 l-1 2 v1 l1 1 v1 v3 l-3 7 l-2 4 l-2 3 l-1 4 h-1 v1 h-1 l-1 1 h1 v1 h1 l2 1 h2 l2 1 l4 2 h2 l2 1 h2 l1 1 l1 1 l1 1 v2 h2 l1 -3 v-3 l1 -2 l2 -4 l3 -5 l1 -4 l1 -3 l1 -1 l4 -9 v-2 l2 -7 l2 -3 h1 l-1 -6 l1 -3 h1 l1 -2 h1 v-2 l2 -2 l3 -1 l1 -2 l12 1 l1 -2 v1 v4 l3 5 l1 1 l1 2 v1 l6 10 l2 3 l3 5 l2 -5 v-3 v-2 h2 l3 -1 l2 -2 v-2 l2 -2 l3 -1 l2 -1 l3 -3 l4 -2 l2 -1 l3 -2 h3 l2 -2 v-3 l2 -3 l5 -6 h2 l5 1 h2 l4 -4 l2 -2 l2 -5 v-2 l4 -1 h1 l1 1 l-1 3 v1 l1 1 l5 1 h5 l1 1 l2 1 l2 2 l1 2 v1 v1 l-1 1 v1 v1 l1 2 l2 1 l2 1 l4 2 l2 -6 l6 -19 l4 -9 h1 v-1 l-1 -1 v-1 l8 -25 l7 12 l7 -3 l1 2 l6 -6 h1 l3 1 l2 1 h1 h1 h4 h1 h1 h1 l1 1 l1 1 v1 l1 -1 l1 -1 l1 -1 l2 -2 v-1 v-1 h-1 v-1 v-1 v-1 l1 -2 h1 v-1 l-1 -2 h1 v-1 l2 -1 h1 h1 v-1 h1 h1 h1 l1 -1 l1 -1 v-1 v-1 h1 h1 l-1 -1 v-1 v-1 l1 -1 l1 -2 h1 l1 -1 l1 -2 l-1 -1 v-2 h-1 v-1 l-1 -2 l-1 -2 l-1 -1 v-1 v-1 l-1 -1 v-1 h-1 l-1 -3 l-1 -2 l-2 -4 l-1 -1 l-1 -2 l-2 -3 l-1 -1 l-1 -1 l-1 -2 l-1 -1 l-3 -4 l-1 -1 v-1 l-2 -2 l-1 -1 l-3 -3 l-2 -3 l-2 -2 l-1 -3 l-1 -1 l-2 -2 l-1 -1 v-1 h-1 l-2 -3 v-1 h-1 v-1 l-1 -2 l-1 -2 l-1 -2 l-1 -1 l-1 -2 l-1 -2 v-1 l-1 -1 v-1 l-1 -1 l-1 -3 l-3 -4 v-1 l-1 -2 l-2 -2 l-1 -3 l-1 -2 l-1 -3 l-2 -2 l-1 -1 l-1 -2 l-3 -4 l-1 -1 l-1 -1 v1 v2 h-2 h-3 l-6 -4 l-6 3 l-10 7 h1 v1 l1 3 l1 1 l1 1 l1 1 l-1 1 h1 l1 2 v1 l-1 1 h-1 h-1 l-1 2 l-1 6 v4 l1 3 l-1 2 l-5 3 l-1 2 l-2 1 l-4 2 h-3 l-2 1 l-1 3 l-2 9 l-2 4 l-2 5 l-1 2 l-2 1 l-3 2 h-2 l-4 8 l-3 2 l-6 5 l-2 2 l-1 2 v1 v2 v1 l-1 2 l-1 1 l-1 1 v1 l-1 1 h-2 l-2 2 l-1 2 l-3 4 l-2 1 l-1 2 l-1 1 h-1 l-1 1 l-1 1 l-156 -1 h-1 l1 7 l3 29 l13 -1 h8 l6 1 l14 -3 l13 -2 h1 h1 l1 -1 v1 h1 h1 h1 v1 l25 12 l13 2 l-3 9 l-5 1 l-53 7 l13 22 Z"></path></g><g id="2703809"><path d="M-35769 -9146 l-1 -1 h-2 h-1 l-1 -1 l-1 -1 l-2 -1 l-1 -1 h-2 v-1 l-1 -1 l-1 -1 h-1 h-1 h-1 h-1 h-2 l-1 -1 l-2 -1 l-2 -2 h-1 l-2 1 h-1 h-1 l-2 -1 l-2 1 l-3 -1 h-2 h-2 h-2 l-2 -1 h-2 h-2 l-2 1 l-1 1 l-2 1 l-1 2 l-2 1 l-2 2 l-2 1 h-1 h-1 h-2 l-2 -1 h-2 l-2 1 l-2 -1 h-1 h-3 h-1 l-5 3 l-1 1 l-1 1 l-2 1 l-2 2 l-5 2 l-2 1 l-3 2 l-4 2 h-1 h-1 v-1 l-1 -1 h-1 h-1 h-3 h-1 h-2 h-2 h-3 h-2 l6 15 l1 6 l1 2 l16 45 l1 2 l3 15 l26 69 l78 -26 l13 -3 l36 -10 l12 -3 l13 -3 l-1 -3 v-1 h-1 v-1 v-1 l-1 -1 h-1 l-1 -1 h-1 l-2 -1 l-3 -1 l-4 -2 h-1 l-2 -1 l-2 -2 l-2 -1 l-3 -2 l-1 -1 v-1 v-2 l-1 -1 l1 -1 v-2 l-1 -1 v-1 l1 -1 h1 v-1 v-1 v-1 l1 -2 l-1 -1 h-1 v-1 h1 l1 -1 l-1 -1 l1 -2 v-1 l1 -2 v-1 v-2 v-1 v-1 v-1 v-1 v-1 l1 -3 l1 -1 l3 -1 l1 -1 l1 -1 v-1 l1 -1 l1 -2 l1 -1 l1 -1 h1 l2 -2 h1 v-1 l1 -2 v-1 l1 -2 h1 l1 1 h1 l14 2 l43 6 l4 -5 l20 -28 l25 -33 l-7 4 l-30 20 l-3 2 l-2 1 l-2 1 h-2 h-1 l-3 4 l-1 2 h-1 l-1 1 l-1 1 l-1 2 h-1 l-1 1 h-1 h-1 h-1 l-1 -1 l-1 1 h-1 h-2 l-1 -1 l-1 -1 l-1 -1 l-2 -1 v1 v2 v2 l-1 4 l-2 2 v2 v2 v1 h-2 h-2 l-1 -1 l-1 -1 h-1 h-1 l-1 1 h-2 l-2 1 l-2 2 h-3 l-2 1 l-1 1 l-1 2 h-1 h-1 h-2 l-1 1 h-1 l-1 -1 h-3 h-1 h-2 l-2 -1 l-1 -1 l-1 -1 l-1 -1 l-3 -3 l-2 -1 h-1 l-2 -1 h-1 h-1 l-3 -2 l-4 -1 l-1 -1 l-1 -1 l-1 -2 l-2 -1 l-3 -3 l-2 -1 l-1 -1 h-1 h-1 v-2 h-2 h-1 l-2 -1 l-3 -2 l-2 -1 h-1 l-1 -1 l-1 -1 l-3 -2 l-1 -1 l-2 -1 l-3 -2 h-1 h-1 h-1 h-1 l-1 -1 h-1 l-1 -1 h-2 h-1 v-1 h-1 l-1 -1 h-1 h-1 h-1 l-1 -1 h-1 l-1 -1 h-1 h-1 l-2 -2 l-1 -1 h-1 Z"></path></g><g id="2703908"><path d="M-35516 -8949 h1 h1 h1 h2 h1 h2 v-1 h2 h2 l1 1 h1 l1 4 l1 -1 l1 -1 l1 1 l2 1 l2 1 l2 1 v1 v1 l2 -1 h7 l3 1 l3 -2 v-1 h1 l1 1 h2 l-2 3 v1 v1 l2 -2 l4 -3 l3 -2 v-1 l1 -1 h1 h1 l1 2 h1 v-2 l3 1 l1 -2 h1 l1 -1 l1 -1 l1 -1 l1 -1 l1 -1 l1 -1 h1 l1 -3 l-2 -3 l-1 -1 h-2 l-17 -12 l-30 -21 l-7 -4 l-14 -11 l-41 -2 l2 1 l4 1 l1 2 h-1 l-2 1 l-2 2 l-1 1 v1 v3 v1 l-2 2 l-1 1 l-3 2 l-5 1 l-1 2 v2 l-2 4 l-3 3 l-5 1 l-3 4 l-2 -1 l-2 1 v2 l2 2 v1 l2 2 l2 2 v1 l-1 2 l1 1 l-1 1 h1 h1 v1 v1 l-2 1 h-1 l-1 1 h-1 v2 l1 1 l1 -1 l1 1 v1 l1 2 v2 v2 v3 l-1 2 l1 1 l1 1 h1 l1 -1 l1 -1 l2 -1 v1 h2 l1 -1 l1 -1 h1 h1 h2 l4 3 l-1 1 l-1 1 l-1 3 v4 l-1 2 l-1 4 l-1 3 v1 v1 l-1 1 l-5 3 l-1 1 l-1 1 l1 2 v2 l1 -1 l1 -1 h1 l1 -1 h2 l1 1 l5 2 l2 1 h1 l3 1 l1 1 l2 1 l2 1 l2 1 l2 1 l1 -2 l1 -1 v-1 l1 -1 l2 -2 l1 -1 l1 -1 v-1 h1 l1 -2 l1 -2 l1 -2 l1 -2 l1 -3 v-2 l1 -1 l1 -1 l1 -1 h1 v1 l1 -1 h1 l1 -1 l1 -1 v-1 v-1 l3 -4 v-1 v-2 v-1 l1 -1 l1 -2 v-1 h1 v-1 l1 1 l1 1 h1 h1 l1 -1 l2 -1 l1 -1 h1 Z"></path></g><g id="2704005"><path d="M-36413 -9779 l19 5 v-19 l1 -1 l1 -1 l2 -1 l1 -2 v-1 l3 -3 l2 -1 l1 -2 l2 -2 l1 -2 l4 -5 l1 1 l7 -9 l5 -5 l5 -4 l4 -3 l8 -10 l2 -1 v-1 h1 v-1 v-1 l2 -1 l2 -2 l2 -2 l1 -2 l1 -2 l1 -1 l4 -8 l2 -4 l1 -3 l1 -3 l1 -1 l1 -2 l2 -1 l9 -7 l-36 6 h-5 l-26 4 l-16 2 l-3 -13 l-15 -21 l-37 -52 l-3 -1 h-2 h-1 h-1 h-1 h-1 l-1 -1 h-1 l-6 -5 v-1 l-1 -1 v-1 v-2 v1 v1 v1 v1 l-1 1 l-7 5 v1 h-2 l-1 1 l2 1 v2 h1 v1 l2 1 h1 l1 1 v1 l1 3 v1 v2 v1 v1 l1 1 v1 v2 v2 v1 l-1 2 l-1 1 h-1 l-1 1 h-2 l-1 1 l-1 1 v1 l-2 2 h-1 l-2 2 h-1 h-1 l-1 2 v2 v2 v2 l-1 4 l-1 3 l-2 2 l-1 1 v2 l-2 2 l-1 1 l-1 1 l-1 2 l-1 1 v1 v2 v2 l-2 2 v2 v1 l1 1 l1 4 v1 v2 h1 v2 l1 1 v1 l-1 2 v1 l1 2 v2 v1 v2 l-1 2 v1 l-2 2 l-2 1 v1 v1 l-2 3 l-1 2 h-1 v1 h-1 l-2 -1 h-2 l-1 -1 l-1 -1 l-2 -1 l-2 -1 v1 h-1 l-10 10 l-2 2 l-5 1 l-5 3 l-3 1 h-3 l-3 1 l-7 2 l15 18 l13 16 h1 h1 h8 l25 1 h22 h1 l28 12 l25 12 l3 1 Z"></path></g><g id="2704104"><path d="M-36699 -9792 l8 -12 l2 -3 l-13 -17 l-13 -17 l-10 -13 l-10 -14 l13 -14 l-29 -1 h-1 l-12 34 v1 v1 l4 5 l1 3 l1 3 l-2 6 v2 v2 l1 4 v1 v1 v1 l-1 2 l-1 2 v3 l-1 3 l-1 3 l-2 4 v4 l2 3 l1 3 v2 l1 2 l3 3 l3 3 l1 1 v1 l1 2 l1 2 l2 4 l1 2 l3 2 l-8 9 l-13 19 l-4 6 h-1 l-2 3 l-2 2 l20 24 l3 -5 l18 -27 l1 -1 l13 -20 l4 -6 l18 -28 Z"></path></g><g id="2704203"><path d="M-36408 -9658 l1 1 l2 1 l17 4 l1 -1 l2 -2 h1 l4 -2 l1 -1 v-1 l1 -1 v-2 l1 -2 l1 -1 v-1 v-1 v-2 l1 -1 v-1 v-2 l1 -1 v-2 h2 v-2 v-2 v-1 v-1 v-1 l-1 -1 v-1 v-1 v-1 v-1 v-1 v-1 h1 l-1 -1 l1 -1 v-1 l1 -1 v-1 v-3 h1 l2 -1 l1 -1 h1 l1 1 h1 v-1 v-1 v-1 l2 -1 h1 v-1 h1 h1 l1 -2 l1 -1 h1 v-1 h1 h1 l1 -1 l2 -1 h1 l2 -1 l1 1 l1 -1 l2 -1 v-1 h1 v-1 l-1 -2 v-1 v-1 v-1 v-1 l-1 -2 l1 -1 v-1 v-2 v-4 l1 -3 v-1 v-1 l-1 -1 v-2 h1 v-1 v-3 l-2 -2 v-1 h-1 l-1 -4 h-1 h-1 l-2 2 h-2 h-1 l-2 -2 h-2 l-2 -1 v-1 v-1 h-1 v-1 h3 h1 l1 -1 h1 v-1 v-1 l1 -1 v-1 l-1 -1 v-1 l-3 -4 v-1 l-2 -3 v-1 l-4 3 l-1 -1 h-1 l-3 1 h-1 l-3 -1 l-3 -1 l-5 -1 h-4 v-1 h-1 l-2 -1 l-6 -3 l-19 -5 l-3 -1 l-25 -12 l-28 -12 h-1 h-22 l-25 -1 h-8 h-1 h-1 l-13 -16 l-15 -18 v4 v1 l1 4 l1 8 l1 3 v4 l1 2 l2 2 v2 l-7 4 l-8 1 h-1 v3 l1 3 l1 7 l4 5 l2 5 l2 4 l2 3 v2 l1 1 h-1 l-4 1 l-2 2 v1 h2 v1 l-1 2 l-5 3 h-1 l-2 2 l-7 9 v5 l-1 1 l-3 4 l-1 3 l1 4 l1 4 v1 l-1 4 l-4 5 l-2 3 l-1 2 l1 4 l1 2 l5 -2 l5 1 h1 h1 l-3 3 h-1 l-3 -1 l-2 2 l-1 1 l-1 3 l-1 1 h-2 h1 l1 1 l2 2 l2 1 v1 l1 1 v1 l1 1 l1 1 l1 1 l1 1 l2 1 l2 2 l1 1 l2 3 l2 1 h3 l1 1 l1 1 l2 1 h1 l2 1 l2 1 l2 1 l1 1 l2 2 l1 1 l2 2 l1 1 l4 2 l2 1 l1 2 l1 -2 l1 -4 l1 -1 l2 -4 l1 -2 v-5 l2 -4 l1 -3 h1 l8 -3 l4 -1 h4 h1 l10 5 l32 12 l2 1 l19 5 l12 4 l6 1 l20 6 Z"></path></g><g id="2704302"><path d="M-35746 -9384 l58 13 l11 -27 l11 -28 v-2 v-2 h1 l1 -1 h1 h1 h1 l2 -2 l2 -1 l2 -1 l3 -1 l2 -2 l1 -1 h1 v-1 h1 v-1 l3 -1 l1 -1 v-1 h1 h2 h1 v-1 h1 h1 l1 -1 l1 -1 h1 h2 h2 h2 l1 -1 h1 h1 v-1 v-1 l1 -1 v-1 l-1 -1 v-1 l-1 -3 v-1 v-1 l1 -2 l1 -2 h3 l1 -1 l1 -2 v-1 l1 -2 v-1 h1 h2 l1 -1 h1 h1 h1 l1 1 h1 v-1 v-1 h1 v-1 h1 h1 h2 l1 -1 h1 h1 l1 1 h1 h1 l1 1 h1 v1 h1 v1 h1 h1 h1 h1 l1 1 h1 l1 -1 h1 h1 h1 h1 h1 l3 -1 l1 -1 l2 -1 l4 -2 l3 -2 l1 -1 l1 -1 h1 h3 l1 -1 h1 v-1 l1 -2 v-1 v-1 h1 h1 v-2 v-1 v-1 v-1 l-2 -1 h-1 l-1 -1 l-2 -1 h-1 v-1 h-2 v-1 h-2 l-1 -1 l-1 -2 l-1 -1 h-1 h-1 l-1 -1 h-1 l-2 -2 v-1 l-1 -2 l-1 -1 l-1 -2 l-3 -1 l-2 -2 l-2 -4 v-1 l-1 -1 v-2 l-1 -2 v-1 v-1 v-1 v-3 v-2 l-1 -1 h-1 v-1 l-1 1 h-1 h-2 h-1 h-1 h-1 h-2 l-2 -1 h-1 l-1 -2 h-1 l-1 -1 h-1 v-1 h-1 l-1 -1 v-1 h-1 l-1 -2 l-1 -1 v-1 l-1 -3 v-1 l-1 -1 v-1 l-1 -1 l-2 -1 h-1 h-1 l-3 -1 h-1 l-2 -2 h-1 h-2 h-1 v-1 l-2 -1 h-1 h-1 v-1 l-2 -2 l-1 -1 l-2 -1 l-1 -1 h-1 v-1 l-2 -2 v-1 l-1 -1 l-1 -2 v-1 h-1 h-1 h-1 h-1 v-1 l-1 -2 l-2 -2 l-1 -2 l-1 -2 l-1 -1 v-1 l-1 -1 l-1 -1 v-1 h-1 v-1 l-1 -1 l-1 -2 h-1 v-1 h-1 v-1 h-1 l-1 -1 v-1 v-1 h-1 l-2 -1 l-1 -1 h-1 v-1 l-1 -1 l-2 -1 l-1 -2 h-1 l-1 -1 v-1 l-1 -2 l-1 -1 v-1 l-1 -1 l-1 -2 l-1 -1 h-1 v-1 l-1 -1 h-1 v-1 h-1 v-1 l-1 -1 l-1 -1 v-1 l-1 -2 h-1 v-1 l-1 -1 l-1 -2 l-1 -1 l-1 -2 v-2 l-2 -4 v-1 l-1 -1 v-1 l-1 -2 v-2 v-2 l-1 -1 v-2 v-1 v-2 l-1 -1 v-1 v-1 v-2 v-1 h1 v-1 v-1 v-3 v-1 v-1 l1 -1 v-1 l2 -2 v-1 v-1 v-1 h-1 h-1 h-1 h-1 h-1 h-1 l-2 1 h-2 l-1 -1 h-1 h-1 h-1 l-1 -1 l-1 -1 v-1 l-1 -1 l-1 -1 l-1 -2 h-1 v-1 l-1 -2 l-1 -1 l-2 -2 l-3 -6 h-1 l-1 -1 l-1 1 h-1 l-3 1 v1 h1 l4 -1 l1 1 v1 l-2 1 l2 4 l-1 1 l-1 1 v1 h-1 l-2 1 h-1 l-1 1 h-1 h-2 h-1 h-2 h-1 h-1 h-1 v-1 h-2 h-1 h-1 l-1 -1 h-1 l-1 -1 h-1 h-1 v-1 h-1 l-3 -1 l-1 -1 l-2 -1 h-1 l-1 -1 l-1 -1 l-1 -1 l-2 -2 h-1 l-1 -1 v-1 l-1 -1 v-1 l-1 -1 l-1 -1 h-1 l-2 -1 l-1 -1 l-1 -2 h-1 l-1 -1 l-2 -2 h-1 v-1 l-1 -2 l-1 -1 l-1 -1 l-2 -1 l-3 -3 v-1 l-1 -1 l-1 -1 l-1 -1 h-1 v-1 h-1 v-1 h-1 h-1 l-1 -1 h-1 h-1 l-1 -1 l-1 1 v1 h-1 v1 l1 1 v1 l1 1 l2 1 l3 2 l2 1 l2 2 l2 1 l1 1 l1 1 v1 l-1 1 l-1 5 l-2 2 l-1 1 v1 l-1 1 h-1 v1 l-1 1 l-1 1 v1 v1 v2 l1 2 l1 1 l1 1 l1 2 v1 l1 1 v1 l1 1 h1 v1 h1 h1 l1 1 h1 v2 v2 v3 l-1 2 l1 2 v2 l3 5 l2 2 l1 2 l1 1 v1 l2 2 l2 2 v1 v2 l-1 1 l-2 3 l-1 2 l-3 1 l-2 3 l-3 2 l-1 2 l-1 1 l-3 4 v1 l-2 3 l-1 2 l-1 7 l-1 1 v1 h-1 v1 l-2 1 l-1 1 l-1 1 l-1 1 l-1 1 l-2 1 l-1 1 l-1 1 l-1 2 v3 v1 h-1 h-1 h-1 l-1 1 l-1 1 h-1 v1 v1 v1 l-3 1 h-1 l-1 1 l-1 1 v1 l-1 1 l3 4 l3 4 l1 1 v1 h1 l3 10 l2 6 l1 5 l4 9 v2 l1 1 v1 v1 v1 h1 l1 2 l1 2 l1 2 l1 1 l4 7 l3 6 l1 4 v3 l4 31 l10 83 l24 6 Z"></path></g><g id="2704401"><path d="M-37120 -9537 l2 3 l3 6 l3 5 l2 7 v8 l-1 2 l-1 1 l-3 4 v3 v1 l1 1 l2 1 l2 2 h3 l3 1 l1 2 v4 v4 l-1 3 l-1 7 v7 l-1 3 l1 2 l2 2 v2 l64 39 l5 13 l4 12 l10 -22 v-1 l-1 -2 v-2 l1 -4 l1 -2 l1 -3 l1 -2 l1 -1 l-1 -2 l-1 -2 l1 -2 l8 -7 l1 -3 l2 -2 l2 -1 l1 -3 v-2 l1 -4 l2 -2 h1 l1 -1 h1 h1 h1 l1 -2 l2 -1 v-1 v-1 v-1 v-1 l1 -1 h1 l1 -1 l3 -2 l3 -3 v-2 l1 -1 l1 -3 l1 -1 v-2 v-1 l-1 -1 l27 -14 l4 -1 l36 -18 l9 -4 h1 l4 -2 l3 -1 l3 -2 l3 -1 l3 -1 h2 l3 -1 l3 -1 l2 -1 l1 -1 l2 1 l6 1 l3 1 h2 h5 h2 h5 h8 h2 h2 h2 h1 l1 -1 v-2 l-1 -2 l-2 -2 l1 -2 l1 -1 l2 -1 l1 -1 l1 -2 v-1 l1 -3 v-1 l1 -1 l-1 -2 l-1 -1 l-2 -1 l-2 -1 v-2 v-1 l-1 -2 l-4 -3 l-1 -2 l1 -3 v-2 v-1 l-3 1 l-3 2 h-2 l-1 -1 l-1 -2 l-2 -1 l-2 -1 l-2 -2 l-3 -2 l-3 -1 l-3 -1 l-2 -1 l-3 -3 l-2 -1 l-1 -2 l-1 -4 l-1 -2 l-1 -2 l-1 -1 h-2 h-2 h-1 h-2 l-1 -1 h-1 v-1 l-113 -31 h-1 h-1 l-43 9 l-6 1 l-58 14 l-43 3 l-7 1 l39 63 l1 2 Z"></path></g><g id="2704500"><path d="M-35364 -8896 l2 4 l2 6 v1 l5 1 l2 3 l2 3 l4 1 h4 l1 2 l-3 5 l-1 2 l-3 3 l-1 1 l-1 1 v2 l45 -11 l7 -2 l11 -3 l5 1 l3 1 h2 l3 -2 l2 -1 l1 -1 h3 l1 -1 l1 -1 h1 h1 h2 l2 -2 l4 -2 l2 -1 l2 -1 l5 2 h2 l3 1 l2 1 h3 h3 l3 -1 l2 -1 l2 -1 h1 l2 -1 h3 l2 -2 h2 h1 h2 h1 h1 h2 v-2 l2 -1 l1 1 h1 l2 1 l2 2 h2 l3 1 l2 -1 l4 -1 h2 l2 -1 h2 l4 2 l3 -1 h2 l3 -1 l3 -1 l3 -1 l2 -3 l1 -1 l2 -1 v-1 h1 l1 -1 l1 -1 l1 -1 l2 -1 l1 -1 v-1 l1 -1 h-1 v-1 v-1 v-1 h1 v-1 v-1 v-1 h1 v-1 h-1 v-1 v-1 h1 h1 l1 -2 l-1 -1 l-1 -2 l-1 -1 l-1 -1 v-2 l-4 -3 l-2 -2 l-5 -7 v-1 l-1 -2 v-1 v-1 l-1 -1 v-1 v-1 v-1 l-1 -1 v-1 v-1 v-1 l-1 -1 v-1 v-1 v-1 l-1 -2 v-2 l-1 -1 v-1 v-1 h-1 v-1 v-1 v-1 l-1 -1 v-1 l-1 -2 v-1 v-1 v-1 l-1 -1 h-1 v-1 l-1 -1 v-1 l-1 -1 v-1 l-1 -1 v-1 v-1 h-1 l-2 -2 h-1 v-1 h-1 h-1 v-1 l-2 -1 l-1 -1 v-1 h-1 v-1 h-1 v-1 l-1 -1 l-1 -1 h-1 v-1 h-2 l-1 -1 l-1 -1 l-2 -1 h-1 l-1 -1 l-1 -1 l-1 -2 l-3 -3 h-1 v-1 l-1 -1 l-1 -1 v-1 h-1 l-1 -1 l-3 -2 l-2 -4 l-2 -2 v-1 l-1 -2 l-1 -2 l-2 -2 l-1 -6 l-1 -2 v-2 l-2 -2 l-2 -3 v-1 l-3 -4 l-1 -2 l-3 -4 l-1 -1 l-1 -2 v-2 v-3 v-3 v-2 v-1 v-1 v-1 v-1 v-1 h-1 l-1 -1 l-2 -2 l-1 -1 l-1 -1 l-3 -1 l-1 -2 h-2 h-2 l-3 1 l-4 2 l-2 2 l-7 11 l-9 9 l-3 4 l-2 4 l-2 3 l-2 2 l-1 1 l-4 -1 l-2 2 l-1 2 h-5 v1 h-2 l-1 1 l-5 3 h-2 l-1 2 v1 v2 h-2 h-3 l-5 3 l-1 1 l1 1 l-1 1 h-2 v1 l-3 1 l-1 -1 h-2 h-1 l-1 2 h-1 l-1 1 h-1 l-1 1 l-1 1 l-1 2 v1 l-1 2 h-2 h-2 h-1 l-1 1 l2 1 v1 l-13 15 l-2 4 l1 3 l1 5 l-1 3 l2 3 l1 3 l-3 6 l-2 1 v1 l-1 2 l-2 5 l-2 1 v3 l-2 2 l-1 1 l-2 5 v1 v1 v3 l-1 1 l-1 2 l2 4 l-1 4 l-2 5 v4 l5 3 l1 6 l1 2 v4 l1 1 Z"></path></g><g id="2704609"><path d="M-37409 -9202 l55 6 h1 l49 6 l8 1 l34 29 l-1 -1 l1 -3 l2 -1 l5 -5 l2 -3 l4 -3 v-2 l2 -1 l2 -5 l2 -2 l-2 -2 l-2 -2 l2 -3 l2 -3 l2 -2 v-2 l2 -3 l2 -1 l2 -1 l1 -2 v-4 l1 -1 v-6 l1 -4 l2 -2 l1 -2 l-56 -20 l-12 -4 l-48 -17 h-1 l-33 -13 h-1 l-33 -12 l24 -29 l-45 6 l-16 2 l-22 3 l-54 7 l-52 6 l-8 1 v2 l-1 2 l-1 1 l-1 1 l1 1 l8 3 l2 2 l1 1 l3 -1 l3 1 l3 5 l3 5 l3 1 h3 l9 5 h1 l5 5 l2 3 l5 1 l4 -1 l1 -1 l4 2 l4 4 l1 2 v2 l2 2 l1 2 v2 l3 2 h3 l3 1 l3 3 l2 2 h3 l3 1 l2 1 l2 2 l6 2 l1 1 v3 l1 1 h2 l2 -1 l2 1 l2 1 l1 3 l-1 2 v2 v2 l2 1 l2 1 v1 v1 h1 h2 l2 -1 l1 1 l1 1 v2 h2 h1 l1 -1 h1 l55 7 Z"></path></g><g id="2704708"><path d="M-35943 -9640 l55 -8 l20 23 v-2 v-14 l4 -14 h29 h1 h1 h1 h1 h3 l1 -2 l1 -1 h2 l1 1 h2 h3 l1 2 h1 l1 -1 l2 -1 l2 -2 v-1 l1 -1 v-3 l2 -3 l1 -1 v-2 v-2 l1 -2 l1 -2 v-1 l3 -2 l4 -1 l7 -1 v-1 v-1 l1 -1 l1 -1 v-1 h1 l1 -1 v-1 l1 -1 l2 -2 l1 -5 l1 -1 v-1 l-1 -1 l-1 -1 l-2 -1 l-2 -2 l-2 -1 l-3 -2 l-2 -1 l-1 -1 v-1 l-1 -1 v-1 h1 v-1 l1 -1 v-1 h-1 h-1 l-1 -2 l-1 -1 l-1 -1 v-1 h-1 l-3 -4 h-1 l-1 -1 v-1 l-1 -1 l-2 -2 v-1 l-4 -3 v-1 h-1 l-1 -4 l-2 -2 l-1 -3 l-1 -1 l-1 -1 v-1 l1 1 l1 2 l2 2 l1 2 h1 l-1 -1 l-1 -3 l-2 -1 l-1 -2 h-1 v-1 v-1 l-2 -1 v-1 l-3 -3 h-1 l-1 -1 l-2 -2 l-1 -1 l-1 -1 l-1 -2 v-1 l-1 -2 l-1 -1 v-1 l-2 -1 l-1 -2 l-1 -2 v-1 l-1 -1 l-1 -1 h-1 l-3 -2 l-1 -1 l-1 -2 l-1 -1 l-1 -2 l-2 -2 l-2 -2 l-1 -2 h-1 v-1 l-1 -1 l-4 -2 l-3 -2 h-1 l-43 -20 l-1 1 h-2 v1 h-1 v1 h-1 l-1 -1 h-1 h-2 v2 v2 h-1 v1 h-3 h-1 v1 h-2 v1 v2 v1 l-1 1 h-1 v1 l-1 1 l-1 1 h-1 h-1 l-2 1 l-1 -1 l-1 -1 h-1 l-1 1 h-1 v1 v1 l-2 -1 l-1 1 v1 v2 v1 l-1 1 h-1 v1 h-1 h-1 h-1 h-1 l-1 1 h-2 h-1 h-1 h-3 h-3 h-1 h-1 h-1 v-1 v-1 h-1 l-1 -1 h-1 h-1 l-2 1 v1 h-1 h-2 h-1 h-1 v1 l-2 1 h-1 v1 l-1 1 h-1 h-3 h-1 v-1 h-1 l-1 -1 h-1 l-1 1 h-1 h-1 l-1 1 l-1 1 l-1 1 l-2 1 h-1 l-1 -1 l-2 1 l-1 1 h-1 v1 l-1 1 h-1 l-1 1 l-1 1 l-1 1 h-1 l-2 5 l-1 1 l-1 2 l6 9 l4 8 l6 11 l1 1 l1 35 h-1 v2 v1 h-1 v1 h-1 v1 v1 h-1 v1 l-1 1 l-1 1 l-25 7 l-12 16 l2 2 l8 8 v1 v1 v1 l-1 2 l-1 2 l-1 2 l-1 3 v3 l24 -14 l3 -1 v-1 l13 -8 l4 -3 l-7 11 l8 18 h2 h1 h1 h2 v1 h1 v-1 h1 l1 1 v1 v1 h1 h1 h1 v-1 l1 -1 h4 h1 l1 -1 l1 -1 v-1 l1 -1 v-1 h1 l1 2 h1 v1 l1 1 l1 2 l1 1 l2 1 h2 l1 1 h3 l1 -1 Z"></path></g><g id="2704807"><path d="M-36338 -9512 l2 -2 h1 l1 1 h1 h1 l1 1 l1 1 h1 l2 -1 l1 -1 l2 -2 h1 l3 -2 l1 -1 l3 -1 l1 1 l1 -1 l1 1 h1 l1 -1 h1 h1 v-1 v-1 l1 -1 l1 -1 l1 1 l13 2 l32 -1 l20 11 l7 8 l9 11 l8 17 l-7 -26 l-4 -13 v-2 v-1 l9 -48 l5 -6 l22 -30 l-58 3 l-13 1 h-1 l10 -28 l-34 15 v1 v1 l-1 1 l-2 1 v2 v1 h-1 l-1 -1 l-1 1 l-24 -6 h-2 h-1 l-30 1 l1 1 v1 h1 h1 h1 l1 1 v1 l1 1 v1 v1 v1 v1 l-1 1 v1 h-1 v1 v1 l-1 1 h-2 l-1 1 l-1 1 l-1 2 h-1 l-1 1 h-1 l-1 1 v1 h-1 l-1 1 l-4 1 l-1 1 l-2 1 h-1 h-1 h-1 l-1 1 v1 l-1 1 l-1 2 v1 l-1 1 v1 l-1 1 l-1 1 l-1 1 h-1 v-1 h-1 l-1 -1 v1 l-1 1 l1 2 v1 v1 l-1 1 l-1 3 l-1 1 v2 h1 l1 2 v1 v1 v1 v1 v1 v2 l-1 2 h-1 v1 v1 l1 2 l-1 1 v1 h-1 v2 l1 2 h1 v1 l2 1 l1 2 v1 v1 v1 v2 h1 v1 h1 v1 l-1 2 l-2 1 l-1 2 v1 v2 v1 h-2 l-1 -1 h-1 l-1 1 l-1 1 v1 h-1 v1 l1 3 l1 -1 l1 1 l-1 1 l-1 2 h7 l28 4 l11 -6 h1 h1 Z"></path></g><g id="2704906"><path d="M-36340 -9512 l-11 6 l-28 -4 h-7 l-11 1 l-30 2 l-24 2 l-9 11 l-8 8 l1 3 v1 v1 l1 2 l2 2 h1 h1 l1 1 v1 l1 1 v1 v1 l1 1 v1 l1 3 h1 v1 l-1 2 l1 1 v1 l3 2 l1 1 l1 1 v1 l-1 1 h-1 v1 h-1 h-1 l-1 -1 l-2 1 h-1 l-3 1 l2 1 l31 13 l39 16 l2 -1 l50 -40 l-16 -4 l1 -13 l11 -11 l3 -19 Z"></path></g><g id="2705002"><path d="M-37939 -9083 l1 3 l2 1 l6 8 l10 7 l2 3 h1 l5 5 l4 4 l1 1 v8 l1 2 l1 1 l5 2 h4 l3 1 l2 2 h1 h2 l2 -2 l2 -3 l1 -1 l2 1 l3 3 v2 l1 4 l2 6 l-1 2 l-3 4 v2 l-1 2 l2 2 l4 1 h1 h6 l3 3 l11 9 l1 2 l2 6 l4 7 l7 7 l5 18 l2 7 l5 15 l2 6 l-1 -1 l-6 5 l-2 2 l2 1 l4 3 l1 1 v1 v2 v1 v1 h1 v1 l1 1 h1 v1 h1 v1 v1 h1 l1 1 v1 h1 v1 v1 h-1 v1 v1 v1 v1 v1 h1 v1 v1 h-1 v1 v1 h-1 v1 v1 h-1 l-1 1 v1 v2 v1 l4 1 l3 3 l5 2 l7 1 l4 -1 l5 4 l1 3 l2 3 l5 1 l3 4 l2 3 v1 v1 h3 l4 2 l7 -1 l1 3 l2 1 l4 4 h3 l1 -2 v-2 l1 -1 l5 -7 h2 l1 -2 v-1 l1 -3 l-1 -1 l3 -2 l-1 -2 l1 -2 v-2 l1 -1 h1 l2 -4 h4 l2 1 l1 -1 l2 -5 v-1 l-2 -2 l1 -2 h3 l1 -3 l2 -2 l1 -1 l2 1 v-1 l-2 -2 l3 -2 v-1 l1 -4 l1 -3 l3 -1 l1 -2 l5 -3 l5 -6 l3 -5 v-1 v-1 l2 -3 l1 -3 l-1 -1 v-2 h-1 l2 -3 v-1 l4 -3 l8 -5 l2 -3 l1 -3 l2 -4 l1 -2 v-4 l-1 -2 l-4 -5 l-4 -3 l-1 -1 l-4 -1 l-1 -1 l-1 -1 l-1 -1 l-2 1 l1 -3 l1 -1 l-1 -2 h3 l2 1 l2 -1 l2 1 l3 1 h1 v-2 l2 -2 l1 -2 v-1 l-2 -1 h1 v-1 h1 l8 4 l3 2 l6 2 l2 2 l5 2 l1 -1 v-2 v-4 l-1 -3 v-1 l-2 -1 v-1 l3 -1 v-4 l2 -1 l3 -2 l5 -3 l2 -3 l1 -1 l1 -1 l1 -1 l2 -1 h2 l3 2 l4 1 h7 l2 1 l5 2 l2 1 l4 1 l3 4 l1 1 h-1 l-4 1 v3 h-1 l1 4 v2 l1 1 v5 l4 5 l2 2 l2 1 l4 2 l1 1 l1 2 h7 l2 1 l3 2 l5 3 l8 -3 h6 l4 -1 h4 l4 2 l2 2 l1 1 l-1 1 l1 2 l6 2 l2 3 l6 3 l1 -1 l3 -1 l4 -1 l3 -2 l-12 -36 l-1 -2 l-11 -15 l-20 -27 l-11 -16 h-1 l-23 -32 l-10 -7 l-17 -12 v-1 l-13 -18 l-13 -17 l-8 -10 l-3 -2 l-18 -18 l-1 -1 l-24 -14 l-7 -5 h-1 l-35 -3 l-43 -4 l-40 -3 v-16 l-15 14 l-18 18 l-44 45 l-35 35 l1 4 v3 l1 3 v2 v1 h1 l3 1 l3 3 l2 1 l1 2 l-1 1 v1 l4 4 v1 Z"></path></g><g id="2705101"><path d="M-35555 -9191 l-25 33 l-25 33 l-20 28 l-4 5 l-43 -6 l-14 -2 h-1 l-1 -1 h-1 l-1 2 v1 l-1 2 v1 h-1 l-2 2 h-1 l-1 1 l-1 1 l-1 2 l-1 1 v1 l-1 1 l-1 1 l-3 1 l-1 1 l-1 3 v1 v1 v1 v1 v1 v2 v1 l-1 2 v1 l-1 2 l1 1 l-1 1 h-1 v1 h1 l1 1 l-1 2 v1 v1 v1 h-1 l-1 1 v1 l1 1 v2 l-1 1 l1 1 v2 v1 l1 1 l3 2 l2 1 l2 2 l2 1 h1 l4 2 l3 1 l2 1 h1 l1 1 h1 l1 1 v1 v1 h1 v1 l1 3 l35 -10 l29 -8 l57 -16 l61 -18 l-11 -19 h-3 l-4 -1 l-1 -1 h-1 l-1 -3 l-5 -13 l3 -8 l3 -9 h1 l4 1 h3 l2 1 h1 h2 l3 -1 l2 -1 l1 -1 l-1 -1 l1 -1 h2 v-1 l3 1 l2 -1 h1 l2 -1 l1 -2 l1 -1 h2 l3 -1 l2 -1 l1 -1 v-1 v-2 l1 -1 l3 -2 l1 -1 l1 -1 v-2 l1 -1 l4 -4 l1 -2 l1 -3 v-1 h2 h4 h2 h2 h2 l1 2 h1 l2 -1 l2 -1 h1 l1 -1 l3 -1 h1 l1 -1 l1 -3 l2 -1 l2 -1 h1 l3 -2 v-1 l-1 -1 h-2 h-4 h-2 l-1 -1 l-1 -1 h-4 h-2 l-1 -1 l-1 -1 l-1 -1 l-1 -1 h-1 h-2 l-2 2 l-4 3 l-3 3 h-1 h-2 h-3 l-4 1 h-3 h-2 l-1 -1 h-1 l1 -1 l2 -2 l2 -2 l3 -3 l1 -2 v-2 v-2 h-36 h-2 h-41 Z"></path></g><g id="2705200"><path d="M-35850 -9362 l20 39 l-1 3 v1 l1 4 l-1 1 v1 h-1 h-3 l-2 2 l-1 1 l-1 1 l1 3 l1 35 l1 6 l16 -1 l15 -1 l9 -10 l7 -9 l20 -23 v-26 v-15 v-38 l-1 -2 l-70 -16 l-36 -8 l3 5 l10 20 l1 2 l12 25 Z"></path></g><g id="2705309"><path d="M-36838 -9288 l41 8 v-13 l-1 -53 v-2 v-3 l1 -5 l-1 -4 l-5 -8 l-24 -23 l-28 -1 l-10 -1 l-10 -1 l-23 -3 l-3 -1 l-36 21 l4 3 l2 2 l1 2 l-7 9 l-1 5 v3 l1 3 l2 1 l5 2 l5 3 l3 4 l1 4 v4 l-2 2 l-2 1 l-2 2 v2 v2 l5 5 v3 v4 l1 1 l3 5 l2 6 l2 3 l13 13 l3 2 l8 -3 l6 3 l4 2 l5 2 l-5 1 l5 2 l2 5 l2 1 l4 -1 l1 -1 h2 l6 -3 h1 h1 l3 -3 h3 l2 -1 l1 -1 l3 -4 l3 -3 l1 -3 h2 Z"></path></g><g id="2705408"><path d="M-37243 -9601 l7 -11 l-6 -9 l-8 -11 h-4 h-2 h-2 l-3 -2 l-4 -1 h-3 h-2 h-4 l-3 -1 l-2 -1 h-5 h-2 l-2 2 l-2 1 h-2 l-3 -1 h-4 l-4 -1 h-6 l-4 -2 h-4 l-5 -2 h-7 l-22 -5 l-7 1 l2 5 l23 46 l11 22 l8 18 l9 17 l8 -7 l42 -38 l9 -15 l1 -1 l1 -2 l1 -2 Z"></path></g><g id="2705507"><path d="M-35956 -9214 l67 76 l28 -51 l18 -32 l8 -15 l-1 -29 l-1 -6 l-1 -35 l-1 -3 l1 -1 l1 -1 l2 -2 h3 h1 v-1 l1 -1 l-1 -4 v-1 l1 -3 l-20 -39 l-12 -25 l-1 -2 l-10 -20 l-3 -5 l-53 39 l-20 -6 l-8 -2 l-45 -14 l-12 -4 l-16 26 l18 9 v1 l11 27 l-3 12 l-42 -7 l-1 5 l-7 31 l-5 -15 v18 l-6 10 h2 l57 17 l2 1 v1 l48 51 Z"></path></g><g id="2705606"><path d="M-35629 -8879 l6 3 l1 2 l-1 2 l2 1 l1 2 l6 5 h4 h1 l3 -1 h1 h1 l3 3 h3 l2 1 l1 1 v4 l1 1 l3 3 h1 l1 1 l1 2 l2 2 l3 1 l2 1 l3 2 h2 l4 1 h1 l1 -1 h-1 v-1 l-1 -1 v-1 l-1 -1 l-2 -1 v-1 v-1 l-1 -1 l-1 -2 v-1 h-1 l-1 -1 h-2 v-1 v-2 l-1 -3 l5 -4 v-2 l-1 -3 l-1 -4 l-1 -1 l-2 -6 v-1 l-2 -2 l-1 -2 l-1 -6 l1 -2 v-1 l1 -1 v-2 v-1 l1 -1 l1 -1 l1 -1 v-2 l1 -2 l-1 -1 l1 -2 v-1 l1 -2 v-2 l-1 -2 l1 -1 l1 -1 l5 -3 l1 -1 v-1 v-1 l1 -3 l1 -4 l1 -2 v-4 l1 -3 l1 -1 l1 -1 l-4 -3 h-2 h-1 h-1 l-1 1 l-1 1 h-2 v-1 l-2 1 l-1 1 l-1 1 h-1 l-1 -1 l-1 -1 l1 -2 v-3 v-2 v-2 l-1 -2 v-1 l-1 -1 l-1 1 l-1 -1 v-2 h1 l1 -1 h1 l2 -1 v-1 v-1 h-1 h-1 l1 -1 l-1 -1 l1 -2 v-1 l-2 -2 l-2 -2 v-1 l-2 -2 v-2 l2 -1 l2 1 l3 -4 l5 -1 l3 -3 l2 -4 v-2 l1 -2 l5 -1 l3 -2 l1 -1 l2 -2 v-1 v-3 v-1 l1 -1 l2 -2 l2 -1 h1 l-1 -2 l-4 -1 l-2 -1 h-4 v-1 v-2 l2 -1 v-4 v-1 l-1 -1 l2 -3 v-1 v-2 v-2 l-1 -3 l-1 -3 l-1 -2 l3 -1 l1 -3 l1 -1 v-3 l1 -4 v-2 v-1 l-1 -2 v-3 l-1 -2 v-4 l-57 16 l-29 8 l-35 10 l1 3 v1 l2 3 l1 2 v5 v2 l1 2 v1 l-39 -5 l3 39 l17 15 l19 17 l-2 7 l-1 3 l17 18 l18 19 l-6 15 h1 h4 l3 -1 h6 l6 2 l3 2 Z"></path></g><g id="2705705"><path d="M-37334 -9488 l5 5 l18 16 l41 14 l1 -1 l60 -69 l36 -41 l15 -19 l37 44 l-39 -63 v-1 l-1 -2 l-1 -1 l-1 -1 v-1 l-38 11 l-54 16 l-42 38 l-8 7 l-9 -17 l-32 15 l-2 1 l-25 12 l25 25 l14 12 Z"></path></g><g id="2705804"><path d="M-37834 -9353 l4 2 h2 l1 3 l1 6 l1 1 l1 1 l1 1 v1 l2 1 v1 h5 h1 l5 6 h1 l2 2 l1 -1 l1 -1 h1 l4 2 l1 -1 h4 l1 1 l6 1 l2 -1 h2 l2 1 l2 2 l3 8 v6 v3 l1 5 l3 1 v3 v2 v1 l2 2 v1 l29 -27 l14 -14 l5 -50 l-19 -23 l-7 -9 l-24 -30 l-2 -2 l1 -6 v-2 l-1 -2 v-2 l1 -9 v-2 l-3 -2 h-1 v-2 l-1 -4 l1 -2 l-1 -1 l-2 -5 l1 -2 h-1 l-2 -1 l-1 -1 l1 -2 l-1 -1 l-2 -4 h-2 l-2 -1 v-2 v-1 l-1 -1 l-1 1 l-1 -1 h-1 l-1 -1 l-1 -1 v-6 l3 -2 v-1 l5 -7 v-1 l-4 -9 l-2 -4 l-1 -1 l2 -2 l1 -1 l-1 -3 l-1 -2 h-2 l-2 1 h-3 l-2 1 l1 -2 v-3 h-2 l-1 1 l-2 1 l-1 -1 v-2 h-2 h-4 l1 4 h-3 l-1 -1 l-1 -3 h-1 l-4 1 l-10 -3 l-2 -2 l-1 -3 l-3 -4 l-4 -6 l-2 -4 v-2 l3 -2 v-2 v-4 l-2 1 l-4 2 l-8 6 l-8 3 l-4 5 l-9 6 l-9 6 l-2 2 l-3 6 l-1 2 l-1 1 l-1 -1 l-1 3 v3 l5 1 l2 1 v2 v1 l-2 2 l-1 2 l3 4 l-1 2 h-4 l-2 1 v2 l-1 4 l3 10 l-3 3 l-2 3 l1 4 l-1 3 l1 2 l-1 3 v4 v2 v3 l3 3 l1 2 l-1 2 v1 l2 5 v5 l-2 3 l-2 4 v1 l1 2 l4 3 v7 v3 l1 1 l3 -2 h1 l1 1 l1 1 v3 l1 2 v4 l1 1 l3 3 h1 h1 l2 4 l-1 3 l1 3 l1 1 l-1 3 l1 1 l1 1 l2 -3 h1 l3 2 l1 3 h1 h3 h1 l1 2 l-1 3 l2 1 h1 h2 l2 1 v2 l3 2 v1 v2 v1 l3 7 v5 v1 l3 2 l9 8 v1 v2 l1 2 l-1 3 l1 3 h2 Z"></path></g><g id="2705903"><path d="M-36742 -10035 l28 -8 v-1 v-10 l-13 -12 l-2 -6 l-3 -3 l-3 -4 v-1 v-1 v-1 v-1 l-1 -1 l-2 -2 l-1 -1 l-5 -1 l-2 -1 l-5 -5 v-2 l-2 -3 l-3 -3 h-2 l-2 -2 l-1 -1 l-5 -7 l-1 -2 v-3 v-3 l-2 -3 l-1 -1 l-12 12 h-2 l-2 1 l-1 1 l-1 2 l-2 3 l-3 1 l-2 1 l-5 1 l-2 2 l-2 4 l-2 2 h-3 l-4 2 l-3 4 l-2 8 l-4 5 l-41 16 l-2 1 h-1 h-2 h-4 l-3 4 l6 7 l3 5 v2 l2 7 v1 l2 1 l1 3 l3 3 l3 3 l3 2 l1 1 l1 4 l2 2 l3 1 l2 2 l1 -1 h1 l1 -2 h2 h2 h1 h1 l1 2 l2 2 l2 1 h1 l2 3 h2 l2 1 l1 1 l1 1 h1 v-1 h1 h1 l1 -1 v-1 v-1 h1 h2 h1 l1 -2 v-1 h1 v-1 h1 l4 1 l2 1 l1 1 l2 1 h1 h1 v-2 v-1 h1 l2 -1 l1 -1 v-1 h2 l1 -1 l1 -1 h2 h1 l1 -1 l-1 -1 h-1 h-1 l-1 -1 l1 -1 v-2 l1 -1 l10 -3 l34 -10 l2 -1 Z"></path></g><g id="2706000"><path d="M-37246 -9447 h3 l4 1 h3 h2 h4 h5 l3 1 l2 1 l3 1 l1 -1 l2 -1 l3 1 l1 2 l1 2 l1 1 l-1 3 l1 1 l2 1 h3 l2 1 l1 1 h2 l3 -1 h2 h8 l24 -2 l6 -1 h6 l31 -2 v-22 h1 l13 4 h1 v-2 l-2 -2 l-1 -2 l1 -3 v-7 l1 -7 l1 -3 v-4 v-4 l-1 -2 l-3 -1 h-3 l-2 -2 l-2 -1 l-1 -1 v-1 v-3 l3 -4 l1 -1 l1 -2 v-8 l-2 -7 l-3 -5 l-3 -6 l-2 -3 l-1 -2 l-37 -44 l-15 19 l-36 41 l-60 69 l-1 1 l3 3 v1 h1 h3 l1 1 l3 1 h4 h3 l2 -1 l4 1 Z"></path></g><g id="2706109"><path d="M-37421 -9086 l1 5 v1 v2 v2 l4 4 l2 4 l4 3 l2 2 l4 7 l3 4 l2 -1 l13 -5 l13 -8 l34 -14 l2 -1 h2 l1 -1 l2 -7 l1 -2 l3 -2 l4 -1 l2 1 l5 1 l2 -3 l1 -2 l3 -3 v-3 v-2 v-3 l7 -9 l7 -4 l9 -15 l6 -13 l1 -1 l2 -1 v-1 l1 -1 l2 -1 l5 -2 l3 -2 l1 -1 h4 h1 v-1 l-34 -29 l-8 -1 l-49 -6 h-1 l-55 -6 l-55 -7 h-1 l-1 1 l1 4 l2 1 h4 l1 1 l1 3 v1 l4 1 l1 1 l8 3 l1 2 l3 4 l5 4 l1 4 l1 4 l4 4 l5 7 l2 2 v1 v1 l-1 1 v1 h-1 l-1 3 l1 3 l4 14 v1 l-4 5 v7 l-2 4 l1 13 l-2 6 l1 2 l4 8 l1 6 Z"></path></g><g id="2706208"><path d="M-37332 -9669 l14 9 l2 2 l1 4 l7 8 l5 10 l15 -51 l48 -50 l-88 26 l-7 8 l-11 14 l-27 13 h1 l1 1 l3 1 l9 -1 l7 2 l3 2 l2 1 l8 -1 h2 h1 h1 l3 2 Z"></path></g><g id="2706307"><path d="M-36717 -9342 v6 l1 2 l1 5 l2 2 l-1 7 l2 6 l3 4 l1 1 l1 4 l1 2 l5 5 l-1 1 v2 l2 2 l11 -3 l1 -3 l1 -2 l1 -1 l2 -1 l2 -2 l3 -1 l1 -1 l2 -2 l1 -1 h1 h1 h1 v-2 l2 -1 l2 -1 h2 h3 l1 -1 l2 -1 h1 h2 l1 1 l1 1 v1 h3 v-1 h1 l1 -1 l1 -1 l3 2 h1 l2 -2 l1 -2 v-2 h1 l2 -1 h4 l-1 -2 l1 -4 l1 -1 h2 h3 l1 -1 l-1 -3 h1 h2 h1 l12 -11 l1 -1 l19 -17 l2 2 v2 l3 1 l4 2 h1 h1 l3 -3 l4 -1 l8 2 l3 -1 l1 1 h3 l3 1 h5 l2 1 l1 1 v2 l-2 2 v5 l21 -21 l6 -5 l18 -18 l19 -18 l1 -1 l3 -6 l22 -40 l-2 -1 l3 -1 h1 l2 -1 l1 1 h1 h1 v-1 h1 l1 -1 v-1 l-1 -1 l-1 -1 l-3 -2 v-1 l-1 -1 l1 -2 v-1 h-1 l-1 -3 v-1 l-1 -1 v-1 v-1 l-1 -1 v-1 l-1 -1 h-1 h-1 l-2 -2 l-1 -2 v-1 v-1 l-1 -3 h-1 h-1 l-3 -1 h-1 l-1 -2 l-2 -1 l-2 -2 l-1 -1 v-1 l-1 -1 l-1 -2 l-1 -1 l-2 -1 l-1 -1 l-1 -1 l-1 -1 l-2 -1 h-2 l-3 2 h-1 l-1 1 l-2 3 l-1 1 l-1 -2 v-1 l-1 -2 l-10 -2 h-4 l-2 -1 v-2 l-1 -2 h-2 l-4 -7 v-2 l-1 -11 l-1 -1 l-5 -1 v-1 v-1 l-19 22 l-1 1 v1 v1 h-1 v1 h-1 l-1 1 l-14 17 l-45 5 h-1 v-1 l-11 -7 l-11 -9 l-2 -1 l-2 -1 l-15 6 l-4 1 l-26 9 l-2 1 h-20 h-1 l1 3 l-1 2 l-1 2 l-3 2 h-2 l-1 1 v1 l-4 3 l-1 3 v2 v4 l1 9 l1 1 v2 l2 2 v2 l-1 3 l1 2 v2 l-1 2 l-4 3 l-1 1 v6 l-1 29 v8 l5 1 l2 1 l1 3 l2 3 l2 3 v1 l-1 1 h1 l-1 1 v6 l-1 2 l-4 3 l-2 2 l-1 2 v4 v8 l1 1 l1 1 l2 2 v3 Z"></path></g><g id="2706406"><path d="M-37643 -9520 l7 7 l5 3 l10 10 l4 3 l2 -2 h2 h4 l5 -2 l3 -2 l2 -1 l2 -1 l3 -1 l1 -1 h1 l1 -1 l1 -2 l1 -1 h1 l1 -1 h1 l2 -1 l2 -1 h2 l2 1 l2 2 l1 1 l1 2 l1 2 h1 l1 1 v-2 v-1 l1 -2 v-1 l1 -1 v-1 l1 -1 l3 -2 l1 -1 l1 -2 v-2 l-1 -2 l-1 -2 v-1 l-1 -1 l1 -1 l1 -1 v-1 v-2 v-1 v-2 l1 -2 v-1 l-1 -2 v-1 l-1 -1 v-1 l-1 -1 l-2 -2 l-1 -2 h1 l4 -2 l4 -2 l10 -7 l2 -2 l3 -2 l3 -1 l2 -1 l2 -4 l1 -2 v-4 l1 -3 l1 -2 l4 -3 l2 -2 l2 -2 l2 -2 l2 -1 l3 -3 l3 -2 l5 -2 l3 -2 l3 -3 l1 -2 l5 -3 l1 -1 h2 l1 -1 l2 -2 l1 -3 v-2 l1 -1 l1 -1 l5 -3 l1 -2 l2 -1 l2 -1 l2 1 v-2 v-3 v-1 l1 -1 l3 -2 l1 -2 l2 -2 l1 -6 v-1 l1 -1 l1 -2 v-2 h1 l-1 -1 h1 l57 9 h1 h1 h4 l45 7 h1 l1 -2 l2 -3 l-2 -5 l7 -1 l22 5 h7 l5 2 h4 l4 2 h6 l-5 -10 l-7 -8 l-1 -4 l-2 -2 l-14 -9 l-3 -2 h-1 h-1 h-2 l-8 1 l-2 -1 l-3 -2 l-7 -2 l-9 1 l-3 -1 l-1 -1 h-1 l27 -13 l11 -14 l7 -8 l88 -26 l-5 -1 h-2 l-2 -1 l-1 -4 l-1 -7 l-1 -2 l-5 -2 l-2 -2 l1 -2 l-1 -1 l-6 -3 l-2 -1 l-2 -2 l-4 -2 l-2 -2 l-1 -5 h-3 l-2 1 l-4 2 l-2 -1 v-2 l2 -3 v-2 h-5 l-3 -2 l-4 -2 l-3 -5 l-1 -1 l-1 -1 l1 -2 l-1 -2 l-3 -2 l-1 -2 l-3 -3 l-1 -3 l1 -2 l2 -2 l9 -9 v-3 v-3 l1 -5 l-12 3 l-3 1 h-1 l-8 4 l-13 13 l-8 8 l-6 6 l-7 4 l-3 1 l-5 1 l-7 2 l-3 1 l-16 3 l-6 2 l-1 1 h-2 l-10 9 l-10 6 l-10 4 l-6 2 l-16 4 l-17 3 l1 1 l-4 1 l-4 1 l-14 1 l-12 -1 l-19 1 l-3 1 l-6 1 h-1 l-25 3 l-12 1 l-6 1 l-6 3 l-5 3 l-11 10 l-28 14 l-4 4 l-9 5 l-4 5 l-6 3 l-9 5 l-2 1 l-1 2 l-3 7 l3 6 v1 l1 3 l-2 6 l-2 3 l1 4 l4 6 l8 20 l2 3 l2 4 l3 9 l2 6 v2 v3 l-1 3 l-5 7 l-4 10 l-1 3 l-3 4 l-3 3 l-1 4 l-8 10 l-2 8 l-2 4 v1 v1 v4 l-4 3 l1 2 l4 4 l1 2 h1 l2 5 l4 3 h7 h8 h1 Z"></path></g><g id="2706422"><path d="M-38156 -9249 v7 l4 7 l3 4 l3 9 l1 1 l1 3 l3 1 l1 2 l5 1 l7 5 l6 5 l3 2 l1 2 l3 2 l1 4 l9 9 l2 5 l4 1 h1 l3 4 l3 2 l9 2 h4 h4 l9 -3 h2 l3 2 l2 3 l2 1 h3 l8 -1 h1 l13 4 h2 l1 6 l2 2 l1 1 l5 1 l6 -1 h4 l3 -2 l1 -2 l4 -2 l-1 -3 l2 -1 l1 -3 v-3 l1 -2 h2 h1 l2 -1 l3 -3 h2 l1 1 l3 -2 h1 h1 l1 -6 l3 -5 v-2 v-3 l3 -4 l1 -5 v-2 l2 -1 l3 -6 v-1 v-1 h-1 l-2 -2 h-1 l1 -2 l1 -2 l-1 -2 h-1 v-3 l-1 -2 v-1 l-2 -3 l-1 -1 l-5 -4 l-1 -2 l-3 -3 l1 -1 l4 -1 h1 l3 1 h3 l4 -1 l7 -1 h1 l3 -1 l1 -1 v-1 l-2 -2 h-2 l-3 -3 l-3 -2 l-2 -2 l-1 -4 l-6 -7 l-2 -6 v-1 l-1 -1 v-2 v-2 l-2 -5 l-1 -2 l5 -5 v-1 v-3 l2 -2 v-1 v-1 l-4 -1 l-1 -1 v-1 l1 -1 l2 -2 l1 -1 v-5 l-1 -1 h-2 l-4 -18 l-17 -6 l-4 -2 l-41 24 l-74 45 l-1 1 l-2 1 h-1 l-1 1 h-1 v1 l-28 17 Z"></path></g><g id="2706448"><path d="M-35559 -9487 v2 h-1 h-1 v1 v1 l-1 2 v1 h-1 l-1 1 h-3 h-1 l-1 1 l-1 1 l-3 2 l-4 2 l-2 1 l-1 1 l-3 1 h-1 h-1 h-1 h-1 h-1 l-1 1 h-1 l-1 -1 h-1 h-1 h-1 h-1 v-1 h-1 v-1 h-1 l-1 -1 h-1 h-1 l-1 -1 h-1 h-1 l-1 1 h-2 h-1 h-1 v1 h-1 v1 v1 h-1 l-1 -1 h-1 h-1 h-1 l-1 1 h-2 h-1 v1 l-1 2 v1 l-1 2 l-1 1 h-3 l-1 2 l-1 2 v1 v1 l1 3 v1 l1 1 v1 l-1 1 v1 v1 h-1 h-1 l-1 1 h-2 h-2 h-2 h-1 l-1 1 l-1 1 h-1 h-1 v1 h-1 h-2 h-1 v1 l-1 1 l-3 1 v1 h-1 v1 h-1 l-1 1 l-2 2 l-3 1 l-2 1 l-2 1 l-2 2 h-1 h-1 h-1 l-1 1 h-1 v2 v2 l-11 28 h2 h1 l1 -1 h1 h3 h1 h1 h1 h1 l1 -1 h1 h1 l1 -1 h1 v-1 l1 -1 h1 v-1 h1 l2 1 h1 l1 -1 h1 l1 -1 h1 h1 v1 h1 l2 1 h1 h1 h1 v1 h1 h1 h1 l3 -1 l1 -2 h1 l1 -1 h2 h1 l2 1 h1 l1 -1 h1 h1 v-1 l2 -1 h1 h1 v-1 v-1 h1 l2 2 h1 v1 v1 h1 h1 h1 l1 1 h1 h1 v-1 v-2 h1 v1 h1 h1 h1 v-1 l1 -1 l1 1 v1 h1 l1 1 v-1 h1 v1 v1 h1 h1 v-1 l1 -1 l2 -1 l1 1 v-1 l1 -1 v1 l1 1 h1 v1 l1 1 h1 l1 1 h1 h1 h1 h1 l3 1 h1 h1 v1 l1 -1 v-1 h1 l2 2 h1 h1 h1 h1 v-1 l1 1 v1 h1 v-1 h1 h1 h1 h1 l1 -1 v-1 l2 -1 h2 h2 l3 1 h1 h1 h1 h1 l2 1 l1 -1 h1 l1 -1 l1 -1 v-1 h1 v-1 l1 -1 v-1 l1 -1 h-1 v-2 v-1 l-1 -1 v-1 v-1 h1 v-1 l2 -1 v-1 h1 v-1 v-1 h1 l3 -1 l1 -1 v-1 h1 l-1 -1 v-1 l2 -2 v-1 h1 v-1 l1 -1 h1 h1 v-1 v-1 v-1 v-1 h1 v-1 h1 l-1 -1 h1 v1 v1 h1 v-1 h1 l-1 -1 h1 v-1 h1 v-1 v-1 h1 v-1 l-1 -2 l-1 -1 v-1 l-1 -1 l-1 -1 v-2 v-1 v-1 v-1 v-1 v-1 l-2 -2 h-1 h-2 l-2 -1 l-1 -1 l-3 -2 l-1 -1 v-1 l-2 -3 h-1 l-2 -3 h-1 l-1 -1 l-2 -2 h-1 l-1 -1 v-1 l-1 -1 l-1 -1 l-1 -1 l-1 -1 v-1 v-1 v-2 v-1 v-1 v-1 l-1 -1 l-1 -1 h-1 Z"></path></g><g id="2706505"><path d="M-35578 -9255 v1 h-1 v1 v1 h-1 l-1 2 l-2 4 l-2 2 l-5 7 l-5 4 v1 v1 v2 l-1 2 v3 v3 l-1 4 l-1 2 v3 l1 1 v1 l1 1 l1 2 l2 2 v2 v1 v1 l1 2 v2 v3 l1 2 v1 l-1 1 l-2 1 h-1 l-1 1 h-1 l-1 1 l1 1 v1 l1 1 v1 l1 1 l-1 2 v1 l-1 1 l-1 5 l-1 3 l1 2 v1 h-1 l-2 1 l-1 2 l-1 5 l-1 1 l-1 3 l-2 2 h-1 l-1 1 l-1 1 v2 v2 l-1 2 l-1 1 l-1 2 l-2 2 l-1 1 l-1 2 v1 v2 h-1 l-1 1 l-2 2 h-1 h-1 l-1 1 l2 -1 l2 -1 l3 -2 l30 -20 l7 -4 l25 -33 h41 h2 h36 v-7 v-2 v-1 l3 -2 l1 -2 l2 -3 v-3 l1 -2 l-1 -3 l1 -2 l1 -1 l1 -1 v-2 l1 -2 l2 -2 l3 -2 l3 -1 h3 l2 -1 l1 -2 l1 -1 l2 1 h1 l6 -2 l2 -2 l1 -2 l3 -2 h1 l2 -1 l2 -1 l1 -1 l2 -1 l2 -2 l1 1 l1 -1 l1 -2 l1 -1 l1 -2 v-1 h1 v-1 l1 -1 h1 v-1 h2 v-1 v-1 h1 v-1 l2 -1 l2 -1 l1 -1 h2 l1 -1 l2 -2 l3 -2 l1 -3 l1 -1 l1 -1 h1 l2 -1 l1 -1 l1 -2 l1 -3 l2 -1 v-1 v-1 v-1 v-1 l1 -1 l2 -1 l1 -1 l-1 -2 v-2 l-1 -1 l-1 -1 l-2 -1 h-1 l-1 -1 v-1 v-1 v-1 l-1 -2 v-1 v-1 l-2 -2 v-1 h-1 h-1 l-2 -1 l-1 -1 h-1 l-2 -1 h-2 l-1 -1 h-1 v-1 h-1 v-1 h-1 l-1 -1 l-1 -2 l-2 -1 l-1 -1 l-2 -1 l-1 1 h-1 v1 h-1 v-2 l2 -1 l1 -1 l1 -1 h1 l1 1 h1 v-1 v-1 l-1 -1 h-1 h-1 h-3 h-3 h-2 l-3 -1 l-4 -1 l-2 -2 l-2 -1 l-2 -1 v-1 l-1 -1 l-1 -3 v-1 v-1 v-1 v-1 v-1 v-1 l-1 -1 h-1 l-1 -1 h-1 h-2 l-1 -1 l-1 -1 h-1 h-2 h-3 h-2 l-1 -1 h-1 h-1 v-1 h-1 l-1 -1 l-1 -1 l-2 -2 l-11 9 l-25 21 l-14 10 l-23 18 l-18 16 l-13 10 l-9 7 v1 l-1 1 Z"></path></g><g id="2706604"><path d="M-36419 -9367 l-1 1 h1 h1 h1 l1 1 v1 h-1 l-1 -1 h-1 h-1 h-1 h-2 h-2 l-1 1 h-1 l1 2 l1 2 l1 1 l3 2 l3 1 l2 1 l1 1 v2 h3 l2 2 l1 2 v2 l6 3 v6 l18 25 l-6 19 l51 6 l-26 -74 v-1 v-1 l1 -1 h-1 v-1 v-1 v-1 v-1 v-2 v-1 v-1 l-1 -1 l1 -1 h-1 v-1 l2 -1 l-1 -1 h1 v-1 h-1 v-1 v-1 v-1 l1 -1 h1 h1 v-1 h1 l-1 -1 h-1 h-2 h-1 l-1 3 l-1 1 l-2 1 l-1 1 l-1 1 l-1 2 l-13 -43 l-2 -7 l-2 1 l-39 -16 l-31 -13 l-22 40 l-3 6 l-1 1 h2 l56 41 l1 -1 h4 l2 -1 h1 h2 Z"></path></g><g id="2706703"><path d="M-36498 -10093 l1 1 v1 v1 l1 1 v1 v1 v1 v1 v1 v1 h1 v1 v1 v1 v1 l4 8 l11 12 l25 27 l1 -3 v-2 v-1 l1 -4 h2 l1 -1 v-4 l2 -1 l-1 -2 l1 -1 l-2 -3 l1 -1 v-5 l9 -6 v-1 l1 -2 l3 -2 v-1 l1 -2 l2 1 l4 2 h2 l3 3 l4 -1 l-1 2 l1 1 h2 v-6 v-3 l2 -7 l2 -2 l1 -1 l2 2 h3 h5 h2 v1 l2 -2 v-1 v-7 l-1 -3 v-7 h3 l3 -2 l2 -1 l3 2 h4 l7 -1 l2 -2 l2 -2 l1 -2 l1 -1 l2 -2 v-1 l2 -1 l6 -7 l2 -13 l-2 -14 v-4 l1 -2 l1 -2 l15 -7 l2 -1 l6 -9 l1 -6 l-2 -6 l-3 -2 l-2 -2 l-5 -4 v-4 l-1 -3 l-3 -2 h-2 l1 -2 l1 -1 v-2 l-1 -2 v-2 l1 -1 l-1 -3 l-4 -4 l-6 -4 l-2 -2 h-2 h-3 l-2 2 l-1 -4 l1 -2 l-2 -3 h-3 l-2 -2 l-5 2 l-1 -2 l-1 -2 h-1 l-2 -3 l-1 -1 l-3 -1 l-5 -5 l3 -5 v-1 l-1 -4 h-1 v-1 l1 -2 l1 -1 v-3 l2 -3 v-1 h1 l5 -2 l3 -1 l1 -2 l2 -8 l2 -4 l1 -2 v-7 l-1 -1 l-1 -3 l-1 -1 l-4 -1 l-2 -1 l-3 -7 l-3 -2 l-2 2 l-1 3 l-2 2 l-2 -3 l-1 -2 l-2 -1 l-3 -3 l-2 -1 l-3 -4 l1 -3 l-3 -3 l-2 -2 l-2 -4 l-4 -1 l-4 3 h-3 l-2 -2 h-6 l-5 -2 l-7 -4 l-12 2 l-31 -16 v-2 h-1 l-3 -2 l-1 -2 l2 -2 h3 l1 -4 l-1 -3 h-1 v-1 h-1 l-3 -2 h-4 h-2 h-2 l-4 -1 v-4 v-7 l3 -2 h3 l6 1 l3 1 h3 l2 -3 l-5 -7 l-4 -1 l-3 -1 h-1 h-3 l-2 -2 v-3 l4 -8 v-1 l3 -1 l12 -17 l-3 -1 l-11 -6 l-9 -3 h-12 v4 l2 2 l1 2 l2 1 l7 2 l-1 1 h-2 h-4 l-11 -2 l-7 1 h-4 l-1 -1 l-3 -4 l-2 -3 l-10 7 h-4 l-2 1 l-2 2 l-2 4 l-1 4 l3 4 l1 4 v6 l1 5 l-1 9 l-2 4 l-2 2 l-2 5 v6 v4 v5 l1 2 v2 l1 6 v3 v3 l-1 1 l-1 2 v4 l2 6 v1 l-1 3 l-4 5 l-1 2 l-2 3 l-9 8 l-3 2 l-3 3 v3 l-2 12 l-5 3 l-10 6 l-6 7 l-10 12 l-3 3 h-1 l-5 2 l-1 2 l-3 3 l-5 2 l-5 -3 l-2 2 l-2 1 l-1 -1 h-3 l-3 2 h-4 v2 l17 12 l7 10 l36 26 h1 h1 h1 l1 1 v1 h1 v1 h1 h1 h1 v1 l4 -1 l8 1 h3 l4 2 l2 1 l6 2 l1 2 h2 l3 1 l4 1 l4 2 l5 1 h3 l6 1 l6 1 l4 1 h1 h1 h1 l6 12 l7 16 v3 l7 20 l2 31 v1 h1 l2 1 h1 Z"></path></g><g id="2706802"><path d="M-36491 -10364 l1 3 l-1 4 h-3 l-2 2 l1 2 l3 2 h1 v2 l31 16 l12 -2 l7 4 l5 2 h6 l2 2 h3 l4 -3 l4 1 l2 4 l2 2 l3 3 l-1 3 l3 4 l2 1 l3 3 l2 1 l1 2 l2 3 l2 -2 l1 -3 l2 -2 l46 -19 l17 -7 l13 -9 l3 -2 h3 l4 2 h2 l3 2 l1 -2 l1 -3 l1 -1 l1 -1 l1 -1 l1 -1 l1 -1 h1 v-1 v-1 l-1 -1 l-1 -1 h-1 v-1 h-1 v-1 l-1 -1 v-1 l-1 -1 l-5 -1 l-2 -1 l-5 -5 l-2 -2 l-7 -9 l-12 -19 l-3 -5 l-1 -3 l-6 -9 l-3 -7 l-2 -3 l-2 -5 l-2 -2 l-1 -4 h-1 v-2 l-1 -2 l-3 -6 l-6 -11 l-6 -9 l-7 -12 l-2 -5 l-2 -7 l-1 -3 l-3 -5 l-7 -2 l-2 1 v1 l-5 4 l-2 3 l-3 6 l-1 4 l-3 11 l-11 20 l-3 8 l-5 9 l-3 9 l-2 2 l-6 5 h-2 h-2 h-2 l-4 4 l-2 3 l-1 1 l-6 3 h-2 h-2 h-3 l-1 -1 l-3 -1 l-1 -1 l-3 -2 l-3 -3 l-5 -3 l-3 -2 v-1 h-1 l-3 -2 l-12 17 l-3 1 v1 l-4 8 v3 l2 2 h3 h1 l3 1 l4 1 l5 7 l-2 3 h-3 l-3 -1 l-6 -1 h-3 l-3 2 v7 v4 l4 1 h2 h2 h4 l3 2 h1 v1 h1 Z"></path></g><g id="2706901"><path d="M-36075 -9674 l-2 2 l-1 1 v2 l-1 1 l-1 1 l-1 1 h-1 l-1 2 h-1 h-1 l-1 1 v1 l-3 3 l-1 3 h-1 h-1 h-1 h-1 l-1 1 v1 v1 l-1 1 h-1 h-1 h-1 v1 v1 v3 l-2 1 v1 h-1 v1 l-1 2 l-1 1 v2 h-1 l-3 -5 l-1 -1 h-1 l-1 -1 l-1 -1 l-1 -1 h-1 l-1 -1 l-1 -1 l-1 1 l-1 -1 h-2 l-1 1 v-1 h-1 l-1 1 h-1 h-2 h-1 h-1 h-1 h-1 l-1 -1 l-1 -1 l-1 1 h-1 v1 v3 v1 l-3 -1 h-2 l-2 1 v1 l-1 1 h1 v1 v1 v1 v1 h-1 h-1 v1 h-2 v1 v1 l-1 1 v1 l-1 1 h-1 h-1 v1 h-1 v1 v1 h-1 v1 v1 h-1 h-1 l-2 1 v1 v1 h-1 l-2 1 h-1 h-1 l-1 -1 h-1 l-2 1 h-1 h-1 l-2 1 h-1 v1 h-1 h-1 h-1 l-1 -1 h-1 l-1 1 l-1 1 h-1 l-1 1 l1 1 l-1 1 v1 l-1 1 h-1 l-1 1 l1 1 h-1 v1 h-1 l2 1 l2 -1 h1 v1 h2 h1 l1 -1 l1 -1 l2 -1 l1 -1 h1 l2 -1 h1 l3 -1 h1 l2 -1 l2 1 l1 1 v1 l1 1 l3 2 l2 1 h1 l2 -1 h1 h2 h2 h2 h1 l4 4 l3 2 l2 3 l1 1 l1 4 h1 l2 1 l3 1 l2 1 h3 h1 l3 -1 h3 h4 h3 l4 -2 h1 l2 -1 l1 -1 h2 h2 l2 1 h2 h1 h3 v1 h2 v1 h2 l1 1 h1 l2 -1 l1 1 h1 l2 1 l51 19 v1 h2 h1 v-1 h1 l1 -1 l2 -2 l3 -3 h1 v-1 l1 -1 h1 v-1 h1 l1 2 l1 1 v1 l1 1 l1 1 l1 4 l1 2 l23 18 h1 l-4 6 l16 16 l1 2 l1 1 v1 l1 1 h1 v1 l1 -2 l1 -1 h1 h1 l1 -1 l1 1 v-1 v-1 l1 1 h1 h1 v-1 h1 v-1 v-2 h1 h1 l1 -1 h1 h1 l-1 -1 l-1 -1 l1 -1 l1 1 v-2 h-1 v-1 l1 -1 h1 l2 -1 l2 -1 v-1 l1 -2 l1 -1 v-1 h1 h1 l1 -1 l2 -1 l45 -38 l7 -8 v-3 h4 v-4 v-3 l2 -3 l7 -14 l-20 -23 l-55 8 l-1 1 h-3 l-1 -1 h-2 l-2 -1 l-1 -1 l-1 -2 l-1 -1 v-1 h-1 l-1 -2 h-1 v1 l-1 1 v1 l-1 1 l-1 1 h-1 h-4 l-1 1 v1 h-1 h-1 h-1 v-1 v-1 l-1 -1 h-1 v1 h-1 v-1 h-2 h-1 h-1 h-2 l-8 -18 l7 -11 l-4 3 l-13 8 v1 l-3 1 l-24 14 v-3 l1 -3 l1 -2 l1 -2 l1 -2 v-1 v-1 v-1 l-8 -8 l-2 -2 l-2 2 h-2 l-41 -5 Z"></path></g><g id="2707008"><path d="M-36234 -9502 l-7 -8 l-20 -11 l-32 1 l-13 -2 l-1 -1 l-1 1 l-1 1 v1 v1 h-1 h-1 l-1 1 h-1 l-1 -1 l-1 1 l-1 -1 l-3 1 l-1 1 l-3 2 h-1 l-2 2 l-1 1 l-2 1 h-1 l-1 -1 l-1 -1 h-1 h-1 l-1 -1 h-1 l-2 2 h-1 h-1 l-3 19 l-11 11 l-1 13 l16 4 l-9 13 l-3 3 l1 1 l1 -1 l1 1 v1 h1 h1 h1 h1 h1 l2 1 h1 h1 v1 h1 h1 h1 h1 l1 1 h1 v1 l1 1 v-1 h1 h1 v-1 h1 v1 h1 l1 -1 l1 1 h1 v1 h1 v1 h1 h1 v1 v1 h1 v1 l-1 1 h-1 h-1 v1 v1 h1 v1 h1 l1 1 l-1 1 h1 h1 h1 v-1 l1 1 v-1 h1 h1 v1 v1 h2 v1 h1 l1 1 v1 h1 h1 v-1 l1 1 h1 l1 -1 h1 l1 -1 l1 1 v1 h1 v1 h1 v1 h1 v-1 h1 v-1 l2 1 h1 h1 h1 v-1 h1 h1 v-1 h2 l1 -1 l1 -1 l1 1 l18 -8 l17 -6 l42 -9 l4 -1 l-1 -1 l-9 -19 l-8 -17 l-9 -11 Z"></path></g><g id="2707107"><path d="M-37742 -9407 l19 23 l-5 50 l71 -73 l1 -1 l-1 -2 l-1 -1 v-2 l-2 -10 l-3 -8 l-3 -9 v-2 l2 -2 v-2 l-5 -7 v-4 l-2 -5 v-2 l2 -2 v-3 l5 -6 l1 -2 v-2 v-1 v-1 l-1 -1 v-1 l-1 -6 v-1 l-1 -2 l-1 -1 l-7 -6 v-1 l2 -2 l1 -4 v-2 l-1 -2 l-1 -2 l1 -3 l-3 -5 l-1 -1 v-3 l3 -6 l1 -6 l4 -3 v-4 v-1 v-1 l2 -4 l2 -8 l8 -10 l1 -4 l3 -3 l3 -4 l1 -3 l4 -10 l5 -7 l1 -3 v-3 v-2 l-2 -6 l-3 -9 l-2 -4 l-2 -3 l-8 -20 l-4 -6 l-1 -4 l2 -3 l2 -6 l-1 -3 v-1 l-3 -6 l-6 11 l-5 9 l-10 9 l-3 2 l-3 1 l-6 3 l-13 8 l-6 3 l-5 1 h-8 l-8 1 l-4 2 l-6 1 h-4 l-13 -3 l-2 -1 l-3 -2 l-2 -1 l-12 -6 l-3 -1 l-3 1 v1 l-2 2 l-1 2 l-2 5 v3 l-1 1 l-1 2 l-1 2 l-2 2 l-7 4 l-5 5 l-3 3 l-1 2 v3 l-5 4 l-2 5 l-2 1 l-4 1 l-8 -4 h-1 l-2 3 l-1 2 l1 1 l-2 4 l-1 2 l-4 4 v4 v2 l-3 2 v2 l2 4 l4 6 l3 4 l1 3 l2 2 l10 3 l4 -1 h1 l1 3 l1 1 h3 l-1 -4 h4 h2 v2 l1 1 l2 -1 l1 -1 h2 v3 l-1 2 l2 -1 h3 l2 -1 h2 l1 2 l1 3 l-1 1 l-2 2 l1 1 l2 4 l4 9 v1 l-5 7 v1 l-3 2 v6 l1 1 l1 1 h1 l1 1 l1 -1 l1 1 v1 v2 l2 1 h2 l2 4 l1 1 l-1 2 l1 1 l2 1 h1 l-1 2 l2 5 l1 1 l-1 2 l1 4 v2 h1 l3 2 v2 l-1 9 v2 l1 2 v2 l-1 6 l2 2 l24 30 l7 9 Z"></path></g><g id="2707206"><path d="M-37234 -9240 l4 2 l7 7 l3 3 l4 2 l4 5 l3 1 l1 2 h1 h5 l1 1 l3 2 l38 -23 l1 -1 v-1 l-2 -4 l-3 -3 l-4 -5 l-2 -6 l1 -5 v-3 l-12 -7 l-3 -3 l-3 -3 h-2 l-5 -6 l-6 -6 l-3 -1 l-3 -4 l-5 -7 l-3 -6 v-1 l-2 -2 l-2 -1 l-64 -29 h-1 l-1 -1 h-1 h-2 l-20 -6 l-2 -1 l-5 -1 l-7 -1 h-9 h-3 l-4 2 l-4 -1 l-7 -3 l-12 -3 h-5 h-3 h-5 l-4 1 l-10 4 h-3 l-3 -2 l-1 -1 l-3 -4 l-2 -2 l-4 -1 h-9 l-11 2 h-5 l-14 3 h-3 v-1 h-3 l-5 2 l-4 1 l-4 1 l-8 3 l-15 6 l-7 8 l-11 10 l-3 1 l-1 1 l-2 1 l-6 8 l-4 4 l-1 2 h-2 l-3 1 h-1 h-3 h-3 h-3 l-3 1 l-5 1 h-3 l-11 1 l-3 1 h-1 l-5 1 l-9 5 l-4 2 l52 -6 l54 -7 l22 -3 l16 -2 l45 -6 l-24 29 l33 12 h1 l33 13 h1 l48 17 l12 4 l56 20 l-1 -4 l-1 -1 l-3 -1 v-2 v-3 v-3 Z"></path></g><g id="2707305"><path d="M-35433 -8938 l11 17 l44 -48 l12 26 l2 -2 v-3 l2 -1 l2 -5 l1 -2 v-1 l2 -1 l3 -6 l-1 -3 l-2 -3 l1 -3 l-1 -5 l-1 -3 l2 -4 l13 -15 v-1 l-2 -1 l1 -1 h1 h2 h2 l1 -2 v-1 l1 -2 l1 -1 l1 -1 h1 l1 -1 h1 l1 -2 h1 h2 l1 1 l3 -1 v-1 h2 l1 -1 l-1 -1 l1 -1 l5 -3 h3 h2 v-2 v-1 l1 -2 h2 l5 -3 l-33 -4 v-1 v-3 v-3 l-1 -3 v-1 v-1 v-1 v-1 v-1 l1 -1 h1 v-1 l-1 -1 h1 v-2 l1 -1 v-1 l-1 -2 v-1 h1 v-2 v-1 l-3 -2 l-1 -1 v-1 v-2 v-2 v-3 v-2 v-1 l1 -2 v-1 v-1 v-1 v-3 l1 -2 l2 -2 v-1 l1 -1 v-5 l1 -1 v-2 l2 -5 l1 -2 v-1 l1 -2 l1 -4 v-4 v-3 l1 -3 l7 -6 l2 -1 l1 -1 l7 -1 l6 -5 h1 v-1 l1 -1 l-1 -1 v-1 h-2 v1 l-1 -1 v-2 h-1 v-1 l-1 1 v1 v1 h-1 v-2 h-1 h-2 h-1 v-1 l1 -1 h1 l-1 -1 l-1 -1 v-2 v-1 h-2 h-2 h-2 h-3 l-3 1 l-2 1 l-1 1 v1 h-1 v1 h-1 l-1 1 h-1 l-1 1 l-1 1 l-1 1 h-2 h-1 v1 l-1 1 l1 1 l1 1 h1 h2 h1 v1 v1 l-1 1 h-1 h-1 h-2 l-3 2 l-1 1 v1 v1 v1 v1 h-1 v-2 h-1 l-2 1 h-3 h-1 h-1 l-1 -1 h-1 l-1 1 v1 v1 v1 h1 h2 h1 h1 h1 v1 v1 l-1 1 l-1 -1 h-1 h-1 v1 l-1 1 l-2 2 l-3 1 v1 h-1 v1 v2 v1 v1 h1 h1 v-1 h1 l2 -1 l1 -1 v-1 h1 h1 h1 v1 v1 l-2 2 l-1 2 h-1 v2 l-2 2 h-1 l-1 -2 l-2 -1 h-1 v1 l-1 1 v1 h-1 l-1 -1 h-1 l-1 1 l-1 1 v2 l1 2 h2 l1 1 l2 2 v1 v2 l-1 1 h-1 v-1 l-1 -1 v-1 v-1 h-1 h-1 h-1 h-1 v-1 h-1 v1 v2 v1 h1 v1 h1 h2 v1 l-1 2 l-1 1 v1 h-1 v-1 h-1 h-1 l-2 -1 h-1 v-1 l-42 10 l-7 2 l1 2 h-2 l-1 1 l1 1 h-1 l-1 1 h-2 l-1 1 h1 v1 h-1 h-2 h-1 h-1 h-1 l-1 1 l-1 -1 l-2 1 h-1 l-1 2 h-1 l-1 -1 l-1 -1 l-2 1 h-1 l-1 -1 l-1 1 l-2 -1 v1 h-1 h-1 l-1 -1 v1 h-1 v-1 h-1 h-1 h-1 v1 l-1 -1 l-1 -1 h-1 v-1 h-2 v-1 v-1 l-2 -1 v-1 h-1 h-1 h-1 v-1 h-1 h-2 h-2 l-2 1 h-1 v1 h-2 v1 h-1 l-1 -1 v-1 l-1 1 h-1 l-1 1 h-1 h-1 h-1 v-1 h-1 h-1 h-1 v-1 h-1 l-1 -1 l-2 -1 h-2 l-3 -1 l-1 -1 l-1 -1 l-1 -1 h-3 l-61 18 v4 l1 2 v3 l1 2 v1 v2 l-1 4 v3 l-1 1 l-1 3 l-3 1 l1 2 l1 3 l1 3 v2 v2 v1 l-2 3 l1 1 v1 v4 l-2 1 v2 v1 h4 l41 2 l14 11 l7 4 l30 21 l17 12 v-1 l3 -2 v-1 l17 27 Z"></path></g><g id="2707404"><path d="M-35498 -9081 l1 1 l1 1 l1 1 l3 1 h2 l2 1 l1 1 h1 v1 h1 h1 h1 v1 h1 h1 h1 l1 -1 h1 l1 -1 v1 l1 1 h1 v-1 h2 v-1 h1 l2 -1 h2 h2 h1 v1 h1 h1 h1 v1 l2 1 v1 v1 h2 v1 h1 l1 1 l1 1 v-1 h1 h1 h1 v1 h1 v-1 l1 1 h1 h1 v-1 l2 1 l1 -1 l1 1 h1 l2 -1 l1 1 l1 1 h1 l1 -2 h1 l2 -1 l1 1 l1 -1 h1 h1 h1 h2 h1 v-1 h-1 l1 -1 h2 l1 -1 h1 l-1 -1 l1 -1 h2 l-1 -2 l7 -2 l42 -10 v1 h1 l2 1 h1 h1 v1 h1 v-1 l1 -1 l1 -2 v-1 h-2 h-1 v-1 h-1 v-1 v-2 v-1 h1 v1 h1 h1 h1 h1 v1 v1 l1 1 v1 h1 l1 -1 v-2 v-1 l-2 -2 l-1 -1 h-2 l-1 -2 v-2 l1 -1 l1 -1 h1 l1 1 h1 v-1 l1 -1 v-1 h1 l2 1 l1 2 h1 l2 -2 v-2 h1 l1 -2 l2 -2 v-1 v-1 h-1 h-1 h-1 v1 l-1 1 l-2 1 h-1 v1 h-1 h-1 v-1 v-1 v-2 v-1 h1 v-1 l3 -1 l2 -2 l1 -1 v-1 h1 h1 l1 1 l1 -1 v-1 v-1 h-1 h-1 h-1 h-2 h-1 v-1 v-1 v-1 l1 -1 h1 l1 1 h1 h1 h3 l2 -1 h1 v2 h1 v-1 v-1 v-1 v-1 l1 -1 l3 -2 h2 h1 h1 l1 -1 v-1 v-1 h-1 h-2 h-1 l-1 -1 l-1 -1 l1 -1 v-1 h1 h2 l1 -1 l1 -1 l1 -1 h1 l1 -1 h1 v-1 h1 v-1 l1 -1 l2 -1 l3 -1 h3 h2 h2 h2 h1 l2 -1 h1 h1 l1 1 l4 1 h1 l2 1 h5 l2 -1 l2 -2 v-1 l-1 -1 l-1 -1 l-2 -1 v-1 l-1 -2 v-1 v-1 l1 -1 l-1 -1 v-1 v-2 v-2 v-1 v-1 v-2 v-1 v-1 v-1 v-1 l-1 -1 v-1 l-1 -2 l-1 -3 l-1 -2 v-1 l-1 -1 v-1 h-1 l-1 -2 l-2 -3 v-2 l-1 -1 l-2 -1 l-1 -2 h-1 l-2 -1 h-1 h-3 h-1 l-1 -1 l-2 -1 l-1 -2 l-1 -1 l-1 -3 l-1 -1 v-1 h-1 v-1 v-2 v-1 h-1 v-1 l-1 -2 h-1 v-1 l-1 -1 v-3 v-1 h-1 v-1 v-1 l-1 -1 l-1 -2 l-2 -2 l-1 -1 l-2 -2 h-1 l-2 -2 h-3 h-1 l-1 1 h-5 l-10 1 l-19 19 l-50 16 l-48 3 v2 v2 l-1 2 l-3 3 l-2 2 l-2 2 l-1 1 h1 l1 1 h2 h3 l4 -1 h3 h2 h1 l3 -3 l4 -3 l2 -2 h2 h1 l1 1 l1 1 l1 1 l1 1 h2 h4 l1 1 l1 1 h2 h4 h2 l1 1 v1 l-3 2 h-1 l-2 1 l-2 1 l-1 3 l-1 1 h-1 l-3 1 l-1 1 h-1 l-2 1 l-2 1 h-1 l-1 -2 h-2 h-2 h-2 h-4 h-2 v1 l-1 3 l-1 2 l-4 4 l-1 1 v2 l-1 1 l-1 1 l-3 2 l-1 1 v2 v1 l-1 1 l-2 1 l-3 1 h-2 l-1 1 l-1 2 l-2 1 h-1 l-2 1 l-3 -1 v1 h-2 l-1 1 l1 1 l-1 1 l-2 1 l-3 1 h-2 h-1 l-2 -1 h-3 l-4 -1 h-1 l-3 9 l-3 8 l5 13 l1 3 h1 l1 1 l4 1 h3 l11 19 h3 Z"></path></g><g id="2707503"><path d="M-36714 -10043 l1 2 l8 21 v3 l-2 6 l1 5 l-1 5 v1 l1 2 l6 9 l14 26 l1 -2 l4 -3 h2 h2 l1 -2 l5 -3 l5 -2 l7 -4 l5 -4 l5 -2 l2 -1 v-1 v-1 v-1 l3 -3 l1 -2 l-2 -2 l-1 -1 h-3 l-1 -2 l-3 -2 l-1 -5 l1 -1 l2 -1 l4 1 l1 -1 v-2 l-2 -2 l-2 -5 l-1 -1 l-1 1 l-2 3 h-1 v-1 l-1 -4 l4 -5 v-3 v-1 l-2 -1 l-3 -4 l-1 -1 l-3 -3 v-5 l1 -4 v-2 l-1 -2 h-1 l-4 -1 l-1 -2 l-4 -13 v-1 l1 -1 v-1 v-1 v-1 v-1 v-1 v-1 l-1 -1 v-1 l-2 -2 v-1 l-1 -16 l-6 -13 l-1 -6 v-1 l-3 -11 l-14 -4 l-6 -2 l-16 -7 h-1 l-3 -1 l-1 -1 l-3 -1 l-4 1 h-1 l-5 -1 l-7 -3 l11 -11 v-1 v-1 l1 -1 l1 -1 l1 -1 h1 v-8 v-5 v-3 v-16 l8 -44 l-1 -7 l2 -6 l-2 -2 l-1 -2 l1 -1 l1 -1 l2 -1 v-1 l1 -1 v-2 v-1 v-1 v-1 l-1 -1 h-1 h-2 h-1 l-1 1 l-1 1 l-1 1 l-1 1 l-1 1 l-1 3 l-1 1 l-2 1 h-2 l-1 1 h-1 h-2 l-1 1 h-2 h-1 l-3 1 h-1 l-1 1 l-1 1 v1 v1 v1 l1 1 h1 l1 1 v1 v1 v1 l-1 3 v1 l1 1 h1 l1 1 h1 v1 l-1 2 l-3 2 l-9 1 l-8 2 h-5 l-7 2 h-1 l-2 1 h-10 l-19 4 l-6 2 l-5 3 v1 h-1 l-1 1 h-1 l-6 4 l-3 2 l-2 2 l-3 2 l-1 1 l-1 2 l-2 2 v2 l-1 3 l-1 1 l-2 3 l-1 1 h-1 l-1 2 v2 v5 v4 l3 2 l2 1 v2 l1 3 v1 l2 2 l3 1 h2 l8 8 l3 5 l5 3 h1 v1 l15 4 l3 2 l3 2 l4 3 l5 2 h1 l1 1 v1 h1 v1 l6 5 l7 1 l1 1 l1 1 l2 3 v3 v3 l1 2 l5 7 l1 1 l2 2 h2 l3 3 l2 3 v2 l5 5 l2 1 l5 1 l1 1 l2 2 l1 1 v1 v1 v1 v1 l3 4 l3 3 l2 6 l13 12 v10 v1 Z"></path></g><g id="2707602"><path d="M-36458 -9233 h3 l1 1 v2 l-1 3 l1 1 l1 1 h4 l1 1 l3 4 l4 1 l2 2 v3 l2 2 h5 l2 -1 v-1 h2 l3 -1 l2 -1 v-1 l-2 -1 v-4 l1 -4 l2 -3 l2 -1 h5 l1 2 l3 4 l1 1 l1 1 l1 1 h1 h3 l1 -2 l3 -2 h8 h2 l3 1 l1 3 l6 1 l4 3 h2 l3 -3 l1 -1 l4 -2 l6 1 l2 4 h2 l2 -4 l3 -3 v-3 l1 -1 l1 -2 l1 -2 l1 -1 v-2 v-1 h2 l1 -1 l1 -1 h1 h1 v-1 v-2 v-2 v-2 v-1 h1 v-1 l1 -4 l2 -14 v-1 v-1 v-2 l1 -1 v-1 h-1 v-1 h1 h1 v1 l1 -1 l1 -1 h1 l1 -1 h1 v1 l1 -1 h1 v1 h1 h1 l1 -1 v-1 v-1 h-1 v-1 v-1 h1 l1 -1 l-1 -1 v-1 v-1 l-1 -1 l-1 -1 l-1 -1 h-2 l-10 -1 l-51 -6 l6 -19 l-18 -25 v-6 l-6 -3 v-2 l-1 -2 l-2 -2 h-3 v-2 l-1 -1 l-2 -1 l-3 -1 l-3 -2 l-1 -1 l-1 -2 l-1 -2 h1 l1 -1 h2 h2 h1 h1 h1 l1 1 h1 v-1 l-1 -1 h-1 h-1 h-1 l1 -1 h-2 h-1 l-2 1 h-4 l-1 1 l-56 -41 h-2 l-19 18 l-18 18 l-6 5 l-21 21 v-5 l2 -2 v-2 l-1 -1 l-2 -1 h-5 l-3 -1 h-3 l-1 -1 l-3 1 l-8 -2 l-4 1 l-3 3 h-1 h-1 l-4 -2 l-3 -1 v-2 l-2 -2 l-19 17 l-1 1 l-12 11 v4 l2 1 h1 l2 -2 l1 2 l1 1 l3 2 h1 v-1 l-2 -2 v-2 l1 -2 l2 -3 h1 l2 1 h1 h1 v-2 v-3 l1 -1 v-1 v-1 h1 l1 -1 h1 l1 1 l-1 2 l1 1 l2 -1 l3 2 h1 l2 -1 v1 l1 2 h1 h1 l6 -3 h1 v1 v1 h2 l1 1 h4 l2 3 h1 v-2 h1 l1 2 h2 h2 h2 v1 v3 l1 1 l-1 1 v1 l3 1 v1 v1 h-3 v1 v2 l-1 1 l-4 -2 h-1 v1 l2 3 l-2 2 v2 l-1 1 v2 v7 l1 3 v2 l1 2 v2 l19 10 l53 18 l-1 1 l1 1 l1 -2 l2 1 l1 2 h1 h2 h2 l1 1 l-2 2 v2 l-1 3 l2 2 l1 -1 v2 l1 1 l-1 1 l2 3 l-1 1 l1 3 l1 2 h2 h3 v1 l3 -3 l2 -1 l1 -1 l1 1 l2 -1 l2 1 l1 1 l2 1 l5 2 l1 1 l2 4 l2 1 Z"></path></g><g id="2707701"><path d="M-35940 -9498 l1 2 v1 l-1 1 v1 l1 1 h2 v2 v1 l1 1 v1 l1 1 v1 v1 v1 h1 l1 2 v1 l-2 33 l-2 46 l8 26 l53 -39 l36 8 l70 16 l-10 -83 l-4 -31 v-3 l-1 -4 l-3 -6 l-4 -7 l-1 -1 l-1 -2 l-1 -2 l-1 -2 h-1 v-1 h-1 h-1 v-1 h-1 l-1 -1 h-1 l-1 -1 h-1 l-1 -1 h-1 h-1 l-1 -1 h-2 h-3 h-1 h-4 v-2 l-1 -3 v-1 v-1 l-11 -1 l-3 -8 l-1 -2 h-2 l-41 -9 l-11 -26 l-45 38 l-2 1 l-1 1 h-1 h-1 v1 l-1 1 l-1 2 v1 l-2 1 l-2 1 h-1 l-1 1 v1 h1 v2 l-1 -1 l-1 1 l1 1 l1 1 h-1 h-1 l-1 1 h-1 h-1 v2 v1 h-1 v1 h-1 h-1 l-1 -1 v1 v1 l-1 -1 l-1 1 h-1 h-1 l-1 1 l-1 2 l15 25 l4 4 l1 1 Z"></path></g><g id="2707800"><path d="M-35915 -9842 l1 -2 l3 -2 l2 -2 l1 -1 l1 -3 l1 -1 v-1 l2 -3 l1 -3 l-1 -2 v-1 v-2 v-1 v-2 l1 -2 v-1 l-2 -1 l-1 -1 l-2 -3 l-2 -2 l-1 -1 l-2 -1 l-2 -2 h-1 l-2 -2 l-2 -2 h-1 v-1 l-2 -1 v-1 l-3 -2 l-2 -2 l-3 -2 l-1 -1 l-3 -3 l-2 -2 l-1 -1 v-1 l-1 -2 l-2 -1 l-1 -3 l-1 -2 v-1 l-2 -3 l-1 -1 v-1 l-1 -1 v-1 l-2 -2 l-1 -2 v-1 l-1 -1 l-2 -4 l-3 -3 v-1 l-1 -1 l-1 -1 l-1 -1 l-1 -2 l-2 -2 v-1 l-1 2 l-1 1 h-1 l-1 2 l-1 1 v1 v1 l1 1 h-1 h-1 v1 v1 l-1 1 l-1 1 h-1 h-1 h-1 v1 h-1 h-1 l-2 1 v1 h-1 l1 2 v1 h-1 l-1 2 v1 v1 v1 h1 v1 v1 l-2 2 l-1 1 l-1 1 l-1 1 v-1 l-1 -1 l-1 -1 h-1 h-1 h-1 h-4 h-1 h-1 l-2 -1 l-3 -1 h-1 l-6 6 l-1 -2 l-7 3 l-7 -12 l-8 25 v1 l1 1 v1 h-1 l-4 9 l-6 19 l-2 6 l-3 8 l7 23 v4 v1 l-1 1 l-1 1 v3 v1 v1 v1 l1 1 l2 1 h1 l2 1 h2 l1 -1 h1 h1 h1 v1 l1 -1 h1 h1 l1 1 h1 l1 1 v1 l2 1 h1 l1 -1 l1 1 h1 l1 -1 v-1 h2 h1 v-1 l1 -1 v1 h1 l1 -1 h1 h1 v1 l1 -1 l5 -3 v-1 v-1 v-1 l1 -1 h1 v-1 h1 h1 l4 2 h1 l1 -1 l3 -2 v-2 l1 -1 l2 -2 h1 h2 h1 h1 h1 h3 v-1 h1 l2 -1 h1 v-1 l2 -1 l2 -1 l1 -1 h1 l2 -1 l1 -1 l1 -1 v-1 v-1 l2 -1 l1 -1 l1 -1 l2 -1 v-1 l1 -1 l1 -1 l1 -1 h2 h2 h4 h2 h4 l5 2 h1 l2 1 l1 1 l2 1 l1 1 l2 1 h1 h2 l3 -1 l2 -1 l1 -2 Z"></path></g><g id="2707909"><path d="M-35840 -9642 h-3 h-2 l-2 3 h-2 h-1 l-2 1 l-1 1 l-2 1 l-13 9 l1 1 v1 l2 2 l3 2 l2 2 l1 1 l3 2 v1 l1 5 l1 1 h1 h1 v-1 l1 -2 h1 v1 l-1 1 v1 l-1 1 v1 l7 1 l15 21 l2 2 l3 1 v5 h9 l1 -1 v-1 l1 -1 l1 -1 h1 l3 -1 v-1 v-1 v-1 h1 l1 -1 l1 -1 h1 h1 h1 v-1 v-3 l1 -2 l1 -1 l1 -1 l2 -1 l1 -1 l1 -1 l1 -1 l1 -1 l-1 -1 l-2 -2 l-2 -1 l-1 -1 l-1 -1 l-3 -3 l-1 -1 v-1 v-2 v-1 l-2 -1 l-2 -1 l-2 -1 l-2 -1 v-1 v-2 l-1 -3 l-3 -3 l-2 -2 l-1 -2 l-1 -2 l-1 -3 l-1 -2 h-1 l-1 -1 l-1 -1 h-1 h-4 h-2 h-1 l-3 -1 l-3 -1 Z"></path></g><g id="2708006"><path d="M-37123 -9249 l7 8 l8 2 l9 -5 l8 -2 l10 -8 l3 -2 l5 -7 l6 -4 l4 -7 l6 -8 l-1 -9 l-4 -6 v-7 l1 -4 l2 -5 l1 -5 l-2 -1 l-1 1 l-3 1 h-2 h-4 l-4 -1 l-3 -2 l-3 -2 l-3 -3 l-4 -5 l-2 -4 l-1 -4 l1 -5 v-5 l-2 -3 l-3 -3 l-3 -3 l-3 -2 l-3 -3 l-1 -6 l-1 -4 l-2 -3 l-1 -3 l-2 -3 l-2 -2 l-2 -1 l-3 -2 l-3 -1 v-1 l-1 -1 l-1 -2 l-3 -3 l-7 -8 l-2 -3 l-2 -3 l-1 -2 l-2 -2 l-2 -2 l-2 -1 l-2 -1 l-2 -2 v-1 l2 -3 l-1 -2 v-1 l-1 -5 l-1 -1 l-1 -5 h-6 l-6 1 l-24 2 h-8 h-2 l-3 1 h-2 l-1 -1 l-2 -1 h-3 l-2 -1 l-1 -1 l1 -3 l-1 -1 l-1 -2 l-1 -2 l-3 -1 l-2 1 l-1 1 l-3 -1 l-2 -1 l-3 -1 h-5 h-4 h-2 h-3 l-4 -1 h-3 l-4 -1 l-2 1 h-3 h-4 l-3 -1 l-1 -1 h-3 h-1 v-1 l-3 -3 l-49 32 l-7 -2 h-3 l-3 -1 l-89 52 l-24 14 v1 h3 l14 -3 h5 l11 -2 h9 l4 1 l2 2 l3 4 l1 1 l3 2 h3 l10 -4 l4 -1 h5 h3 h5 l12 3 l7 3 l4 1 l4 -2 h3 h9 l7 1 l5 1 l2 1 l20 6 h2 h1 l1 1 h1 l64 29 l2 1 l2 2 v1 l3 6 l5 7 l3 4 l3 1 l6 6 l5 6 h2 l3 3 l3 3 l12 7 v-6 l5 -4 l7 3 l4 2 l2 1 l9 2 l12 8 l4 7 l3 4 Z"></path></g><g id="2708105"><path d="M-36126 -9126 v-2 l-3 -25 v-1 l-5 -5 l-38 -45 l-8 -9 h-1 l-63 17 l-38 10 v1 l-3 2 l-3 10 h1 h1 v3 l6 3 h3 l1 1 h2 l1 -1 l1 -1 h1 v-1 l1 -1 h-1 v-1 h2 h1 v1 l1 -2 h4 v1 h1 l-1 2 v2 v1 h-1 h-1 l8 26 l-1 3 v4 l-2 3 l-4 4 v2 l3 5 l-1 3 l-4 4 l-1 1 l-1 3 v1 v3 l1 2 l11 -1 l4 3 l6 1 h5 l2 -1 l3 -3 l3 3 l1 2 l4 3 l6 9 l-1 3 l1 6 v4 h1 l4 -1 l7 1 l1 2 h1 l1 -1 l1 1 v1 l1 1 l2 2 v5 l3 9 l1 4 v2 l3 2 l1 1 l3 -2 h3 l6 2 l2 3 h2 l2 -2 l2 -1 h2 l4 2 l5 2 l1 -1 h2 h2 l1 -1 l2 2 h1 l2 -2 l1 -1 l5 2 l4 1 h2 l1 3 l1 1 h1 l5 1 l4 1 h2 l3 4 l3 3 l-21 -36 h1 h1 l1 1 h2 l2 -1 h1 l1 1 h1 l1 1 l1 2 h1 h1 v-1 h1 v-1 h1 l1 1 h2 l1 1 h1 l2 2 l1 1 h4 l-5 -28 l-2 -10 l-4 -26 l-1 -6 Z"></path></g><g id="2708204"><path d="M-36847 -10176 l-2 4 l1 2 l-1 7 l-2 3 l-3 1 h-5 l-1 1 h-2 l-2 -1 l-3 1 l-4 3 l-3 5 l-3 4 l-11 3 l-9 1 l-14 4 l-3 2 l-3 3 l-1 1 l-2 1 l-2 3 l-5 10 l-1 8 l-3 4 l-3 4 l-9 9 l-4 7 l-1 1 l-1 3 l-2 4 l-1 3 l1 1 h2 h1 l3 -2 l2 -1 h1 l73 30 l-6 -7 l3 -4 h4 h2 h1 l2 -1 l41 -16 l4 -5 l2 -8 l3 -4 l4 -2 h3 l2 -2 l2 -4 l2 -2 l5 -1 l2 -1 l3 -1 l2 -3 l1 -2 l1 -1 l2 -1 h2 l12 -12 l-1 -1 l-7 -1 l-6 -5 v-1 h-1 v-1 l-1 -1 h-1 l-5 -2 l-4 -3 l-3 -2 l-3 -2 l-15 -4 v-1 h-1 l-5 -3 l-3 -5 l-8 -8 h-2 l-3 -1 l-2 -2 v-1 l-1 -3 v-2 l-2 -1 l-3 -2 Z"></path></g><g id="2708303"><path d="M-36084 -8942 l2 1 l3 5 l3 3 l1 4 l2 3 l6 8 l3 3 l7 2 l10 1 l14 4 h7 l11 -4 l10 -1 l5 3 l1 2 l3 1 l4 2 l4 1 v-1 v-1 h1 v-1 h2 h1 l1 -1 l1 -1 l1 -2 v-1 v-1 v-1 v-1 l1 -1 h2 h1 v-1 l1 -1 h1 l1 -1 l1 -1 l-1 -1 h1 l1 -2 l1 -1 v-3 l8 -8 l9 -11 l1 -1 h-1 v-1 h-1 v-1 h-1 v-1 h-1 v-1 h-1 h-1 v-1 v-2 v-1 l-1 -2 v-1 h-1 v-1 l-1 -1 h1 v-1 l1 -1 l1 -1 v-1 h2 l1 -2 l3 -16 l-1 -2 v-2 l2 -2 l-2 -1 l-3 -3 l-3 -2 l-1 -1 v-1 l2 -9 l4 -26 l-45 -9 h-1 h-1 h-1 h-1 h-1 l-2 -1 l-2 -1 l-1 -1 l-2 -1 l-3 -1 l-2 -1 l-1 -1 h-1 l-1 2 l-2 2 l-3 2 v1 l1 1 l-1 1 l-1 1 h-1 h-1 h-1 l-1 -1 l-1 -1 l-1 -1 h1 v-1 v-1 h1 h1 v1 v1 v1 h1 v-1 l1 -1 v-1 v-1 l-1 -2 l-2 -3 v-1 l1 -1 h1 v-1 l1 -1 h1 l1 -1 l1 -1 l-1 -1 l-1 -1 h-2 h-2 h-1 h-1 v-2 h-1 l-2 -2 l-3 -1 h-3 h-2 l-1 -2 l-1 -1 l-1 -1 h-1 h-2 v3 v1 l-2 1 v1 h-3 h-1 v1 h-1 v-1 h-1 h-1 h-1 h-1 h-1 l-1 1 v-1 h-1 h-1 l-2 -1 l-1 -1 h-1 h-3 h-1 v-1 l-2 -3 l1 -1 v-1 l-2 -1 h-1 h-1 v1 h-3 h-3 h-1 h-2 h-3 l-1 -1 v-1 v-1 v-1 l-1 -2 l-2 -1 v1 l-1 2 l-1 4 l1 2 l1 1 l3 3 l-2 1 h-2 h-2 h-1 h-3 l-3 2 h-2 l-4 1 l-5 1 h-4 l-1 -1 l-2 -2 h-1 l-1 -1 h-2 l-1 -1 h-1 v1 h-1 v1 h-1 h-1 l-1 -2 l-1 -1 h-1 l-1 -1 h-1 l-2 1 h-2 l-1 -1 h-1 h-1 l21 36 l3 3 l3 2 v2 l4 2 l-1 1 l-2 2 l-1 2 l1 4 l3 1 h2 v1 l-1 1 v1 l3 4 l3 2 l-2 5 l-5 5 l-1 1 l-4 2 l-9 3 l-2 2 l-1 4 l-2 6 v5 l1 6 l1 2 l1 2 l3 2 l2 1 l9 2 l12 2 l10 3 l5 2 l2 2 Z"></path></g><g id="2708402"><path d="M-37565 -9525 l1 2 l1 2 v2 l-1 2 l-1 1 l-3 2 l-1 1 v1 l-1 1 v1 l-1 2 v1 v2 l-1 -1 h-1 l-1 -2 l-1 -2 l-1 -1 l-2 -2 l-2 -1 h-2 l-2 1 l-2 1 h-1 l-1 1 h-1 l-1 1 l-1 2 l-1 1 h-1 l-1 1 l-3 1 l-2 1 l-2 1 l-3 2 l-5 2 h-4 h-2 l-2 2 l-4 -3 l-10 -10 l-5 -3 l-7 -7 h-1 h-8 h-7 l-4 -3 l-2 -5 h-1 l-1 -2 l-4 -4 l-1 -2 l-1 6 l-3 6 v3 l1 1 l3 5 l-1 3 l1 2 l1 2 v2 l-1 4 l-2 2 v1 l7 6 l1 1 l1 2 v1 l1 6 v1 l1 1 v1 v1 v2 l-1 2 l-5 6 v3 l-2 2 v2 l2 5 v4 l5 7 v2 l-2 2 v2 l3 9 l3 8 l2 10 v2 l1 1 l1 2 l1 -1 l39 -13 l29 -9 l15 -5 l33 -11 l26 -8 l12 -4 l40 -13 h1 l2 -1 h1 l12 -4 l2 -1 l27 -19 l30 -19 l4 -3 l9 -6 l25 -12 l2 -1 l32 -15 l-8 -18 l-11 -22 l-23 -46 l-2 3 l-1 2 h-1 l-45 -7 h-4 h-1 h-1 l-57 -9 h-1 l1 1 h-1 v2 l-1 2 l-1 1 v1 l-1 6 l-2 2 l-1 2 l-3 2 l-1 1 v1 v3 v2 l-2 -1 l-2 1 l-2 1 l-1 2 l-5 3 l-1 1 l-1 1 v2 l-1 3 l-2 2 l-1 1 h-2 l-1 1 l-5 3 l-1 2 l-3 3 l-3 2 l-5 2 l-3 2 l-3 3 l-2 1 l-2 2 l-2 2 l-2 2 l-4 3 l-1 2 l-1 3 v4 l-1 2 l-2 4 l-2 1 l-3 1 l-3 2 l-2 2 l-10 7 l-4 2 l-4 2 h-1 l1 2 l2 2 l1 1 v1 l1 1 v1 l1 2 v1 l-1 2 v2 v1 v2 v1 l-1 1 l-1 1 l1 1 v1 Z"></path></g><g id="2708501"><path d="M-35702 -9110 h1 l2 1 h1 l2 1 l3 3 l1 1 l1 1 l1 1 l2 1 h2 h1 h3 l1 1 h1 l1 -1 h2 h1 h1 l1 -2 l1 -1 l2 -1 h3 l2 -2 l2 -1 h2 l1 -1 h1 h1 l1 1 l1 1 h2 h2 v-1 v-2 v-2 l2 -2 l1 -4 v-2 v-2 v-1 l2 1 l1 1 l1 1 l1 1 h2 h1 l1 -1 l1 1 h1 h1 h1 l1 -1 h1 l1 -2 l1 -1 l1 -1 h1 l1 -2 l3 -4 h1 h2 l1 -1 h1 h1 l2 -2 l1 -1 h1 v-2 v-1 l1 -2 l1 -1 l2 -2 l1 -2 l1 -1 l1 -2 v-2 v-2 l1 -1 l1 -1 h1 l2 -2 l1 -3 l1 -1 l1 -5 l1 -2 l2 -1 h1 v-1 l-1 -2 l1 -3 l1 -5 l1 -1 v-1 l1 -2 l-1 -1 v-1 l-1 -1 v-1 l-1 -1 l1 -1 h1 l1 -1 h1 l2 -1 l1 -1 v-1 l-1 -2 v-3 v-2 l-1 -2 v-1 v-1 v-2 l-2 -2 l-1 -2 l-1 -1 v-1 l-1 -1 v-3 l1 -2 l1 -4 v-3 v-3 l1 -2 v-2 v-1 v-1 l5 -4 l5 -7 l2 -2 l2 -4 l1 -2 h1 v-1 v-1 h1 v-1 l1 -1 v-1 l9 -7 l13 -10 l18 -16 l23 -18 l1 -2 v-3 l-1 -1 l-3 -3 v-2 l-1 -1 l-2 -2 v-1 l1 -6 v-2 l1 -1 v-1 l2 -4 l1 -1 v-2 v-2 v-2 l1 -3 l-1 -2 l-1 -2 l-1 -1 v-1 l-1 -1 l-1 -1 h-2 h-2 l-2 1 l-2 1 l-1 1 l-2 3 l-2 2 h-4 l-2 -1 l-5 -2 l-4 -2 l-3 -1 l-2 -1 h-1 h-1 v-1 h-1 h-1 l-1 -1 l-1 -1 h-2 l-1 -1 h-1 l-1 1 l-2 2 h-3 l-1 -1 l-5 -1 l-1 -1 l-3 -1 h-4 l-7 -1 l-97 -11 l-6 73 v12 v2 v1 v1 v1 v1 l-1 20 l-10 30 l-9 44 l-1 5 l-12 56 h2 v2 h1 h1 l1 1 l2 1 l3 3 l2 1 l1 2 l1 1 l1 1 l4 1 l3 2 h1 Z"></path></g><g id="2708600"><path d="M-36079 -9694 l10 5 l-10 9 l4 6 l41 5 h2 l2 -2 l12 -16 l25 -7 l1 -1 l1 -1 v-1 h1 v-1 v-1 h1 v-1 h1 v-1 v-2 h1 l-1 -35 l-1 -1 l-6 -11 l-4 -8 l-6 -9 l-23 -42 h1 h1 v-1 h-1 v-1 v-1 h-1 h-1 h-1 l-1 1 h-2 l-2 -1 h-1 l-2 -1 l-1 -1 v-1 v-1 v-1 v-3 l1 -1 l1 -1 v-1 v-4 l-7 -23 l3 -8 l-4 -2 l-2 -1 l-2 -1 l-1 -2 v-1 v-1 l1 -1 v-1 v-1 l-1 -2 l-2 -2 l-2 -1 l-1 -1 h-5 l-5 -1 l-1 -1 v-1 l1 -3 l-1 -1 h-1 l-4 1 v2 l-2 5 l-2 2 l-4 4 h-2 l-5 -1 h-2 l-5 6 l-2 3 v3 l-2 2 h-3 l-3 2 l-2 1 l-4 2 l-3 3 l-2 1 l-3 1 l-2 2 v2 l-2 2 l-3 1 h-2 v2 v3 l-2 5 l-3 -5 l-2 -3 l-6 -10 v-1 l-1 -2 l-1 -1 l-3 -5 v-4 v-1 l-1 2 l-12 -1 l-1 2 l-3 1 l-2 2 v2 h-1 l-1 2 h-1 l-1 3 l1 6 h-1 l-2 3 l-2 7 v2 l-4 9 l-1 1 l-1 3 l-1 4 l-3 5 l-2 4 l-1 2 v3 l-1 3 h-2 v1 l-1 1 l-1 1 l-1 1 v1 l-21 21 l-1 1 l-1 1 l-2 2 l-2 1 l-14 14 l-4 4 l-2 2 l-5 4 v2 h-1 v3 l-2 2 l-2 1 l29 3 l37 4 v1 l2 7 l51 11 l17 4 l32 8 Z"></path></g><g id="2708709"><path d="M-35349 -9230 h5 l1 -1 v-1 h1 l1 -1 h-1 v-1 h1 l-1 -1 l-1 -3 l-2 -3 l-2 -3 l-1 -2 l-2 -2 v-1 l-1 -1 l-1 -2 l-1 -1 v-1 l-1 -1 l-1 -1 l-1 -1 l-3 -4 l-1 -1 l-3 -3 l-1 -1 l-1 -1 v-1 l-1 -1 l-1 -1 l-1 -1 h-1 l-1 -2 l-1 -1 l-2 -3 l-1 -1 h-1 v-1 l-2 -1 l-1 -1 h-1 l-3 -2 l-3 -2 h-1 l-1 -1 l-1 1 l-2 1 l-1 1 v1 v1 v1 v1 l-2 1 l-1 3 l-1 2 l-1 1 l-2 1 h-1 l-1 1 l-1 1 l-1 3 l-3 2 l-2 2 l-1 1 h-2 l-1 1 l-2 1 l-2 1 v1 h-1 v1 v1 h-2 v1 h-1 l-1 1 v1 h-1 v1 l-1 2 l-1 1 l-1 2 l-1 1 l-1 -1 l-2 2 l-2 1 l-1 1 l-2 1 l-2 1 h-1 l-3 2 l-1 2 l-2 2 l-6 2 h-1 l-2 -1 l-1 1 l-1 2 l-2 1 h-3 l-3 1 l-3 2 l-2 2 l-1 2 v2 l-1 1 l-1 1 l-1 2 l1 3 l-1 2 v3 l-2 3 l-1 2 l-3 2 v1 v2 v7 l48 -3 l50 -16 l19 -19 l10 -1 Z"></path></g><g id="2708808"><path d="M-36541 -9872 l-1 1 l-2 1 l-1 1 l-1 4 l-8 9 l-1 5 v9 v1 v1 v1 l7 -2 l3 -1 h3 l3 -1 l5 -3 l5 -1 l2 -2 l10 -10 h1 v-1 l2 1 l2 1 l1 1 l1 1 h2 l2 1 h1 v-1 h1 l1 -2 l2 -3 v-1 v-1 l2 -1 l2 -2 v-1 l1 -2 v-2 v-1 v-2 l-1 -2 v-1 l1 -2 v-1 l-1 -1 v-2 h-1 v-2 v-1 l-1 -4 l-1 -1 v-1 v-2 l2 -2 v-2 v-2 v-1 l1 -1 l1 -2 l1 -1 l1 -1 l2 -2 v-2 l1 -1 l2 -2 l1 -3 l1 -4 v-2 v-2 v-2 l1 -2 h1 h1 l2 -2 h1 l2 -2 v-1 l1 -1 l1 -1 h2 l1 -1 h1 l1 -1 l1 -2 v-1 v-2 v-2 v-1 l-1 -1 v-1 v-1 v-2 v-1 l-1 -3 v-1 l-1 -1 h-1 l-2 -1 v-1 h-1 v-2 l-2 -1 v-1 v-1 h1 v-1 l1 -2 l1 -1 l1 -1 l1 -1 h1 v-2 l1 -2 l1 -1 v-1 l-1 -3 v-1 v-1 v-1 v-1 v-1 l-1 -2 l1 -2 v-1 l-1 -2 v-1 l-1 -1 h1 v-1 v-1 v-1 v-1 v-1 l-1 -2 l1 -1 h-1 l-1 -1 h-1 h-1 h-1 v-1 l-2 -1 v-1 v-1 l-1 -1 v-1 v-1 v-1 h-1 l-2 -1 v-1 v-1 l-1 -1 l-1 -2 l-1 -1 v-1 v-2 v-1 v-1 v-1 l1 -2 l2 -2 v-1 h1 h1 h2 l1 -1 h2 l2 1 l2 -1 v-1 l2 -1 l1 -1 h4 h1 h1 l2 1 l2 -1 l1 1 h1 l1 1 v-1 h1 h1 v-1 l1 -1 l-25 -27 l-11 -12 h-3 h-4 l-2 1 l-2 -1 l-6 2 h-2 v4 v3 l-1 6 l-2 6 l-2 1 l-1 3 l1 2 l-2 3 l-62 3 l-63 3 l-12 1 h-4 l1 1 l3 4 l2 1 v1 v3 l-4 5 l1 4 v1 h1 l2 -3 l1 -1 l1 1 l2 5 l2 2 v2 l-1 1 l-4 -1 l-2 1 l-1 1 l1 5 l3 2 l1 2 h3 l1 1 l2 2 l-1 2 l-3 3 v1 v1 v1 h1 h2 l2 -1 l1 1 v2 h-1 v1 v1 h2 l2 -1 h3 l1 1 h1 l2 1 l3 1 v2 l-1 2 l-1 1 l-1 2 v3 v1 l3 1 l1 1 l1 1 h1 v1 l-1 1 l-1 4 v2 l-2 2 l-1 1 l-1 2 v1 h1 h1 h1 l1 1 h1 h1 h11 l1 14 v12 l-1 3 v1 l2 3 v1 v2 l-1 1 l-2 1 v1 l1 1 l1 2 l1 4 l4 -1 l2 1 h1 l1 1 v1 h1 l-1 26 v4 h1 h2 h3 h1 h2 h1 h1 l1 1 h1 v-1 l-1 -1 l1 -5 l2 -1 l4 -1 l4 2 l6 1 h1 v1 l5 2 l6 1 h2 l2 -1 l8 -3 l6 -2 h1 v-1 h1 l1 -1 v1 v1 v1 l-1 7 h1 h1 Z"></path></g><g id="2708907"><path d="M-35801 -9534 l1 1 h1 v1 h1 h1 v-1 v-1 l-1 -1 v-2 l-4 -9 l-1 -5 l-2 -6 l-3 -10 h-1 v-1 l-1 -1 l-3 -4 l-3 -4 h-9 v-5 l-3 -1 l-2 -2 l-15 -21 l-7 -1 v-1 l1 -1 v-1 l1 -1 v-1 h-1 l-1 2 v1 h-1 h-1 l-1 -1 l-1 -5 v-1 l-3 -2 l-1 -1 l-2 -2 l-3 -2 l-2 -2 v-1 l-1 -1 v2 l-7 14 l-2 3 v3 v4 h-4 v3 l-7 8 l11 26 l41 9 h2 l1 2 l3 8 l11 1 v1 v1 l1 3 v2 h4 h1 h3 h2 l1 1 h1 h1 l1 1 h1 l1 1 h1 Z"></path></g><g id="2708956"><path d="M-37612 -9342 v3 l2 3 l1 2 l2 2 l1 1 l3 4 l1 3 l6 5 l2 2 l1 3 l1 3 v1 l3 6 l1 2 l1 4 v1 l1 1 l8 -1 l4 -2 l9 -5 l5 -1 h1 l3 -1 l11 -1 h3 l5 -1 l3 -1 h3 h3 h3 h1 l3 -1 h2 l1 -2 l4 -4 l6 -8 l2 -1 l1 -1 l3 -1 l11 -10 l7 -8 l15 -6 l8 -3 l4 -1 l4 -1 l5 -2 h3 l24 -14 l89 -52 l-19 -5 l-62 -15 l-37 -9 l4 -19 l1 -5 l-12 4 h-1 l-2 1 h-1 l-40 13 l-12 4 l-26 8 l-33 11 l-15 5 l-29 9 l-39 13 l1 1 v1 v2 l1 1 l1 1 h1 h1 h1 v1 l1 1 v2 v1 v2 v1 l1 2 v1 l2 2 l1 3 l3 2 l1 2 l1 2 l1 2 l1 2 l3 3 l2 1 l3 4 l4 2 l2 1 v1 v2 v2 h1 l1 1 l2 2 l1 2 l1 4 v2 l1 2 l2 2 l1 2 l1 2 Z"></path></g><g id="2709004"><path d="M-36379 -9569 l-1 -2 l1 -1 v-1 l1 1 h1 v1 h1 l1 -1 l1 -1 l1 -1 v-1 l1 -1 v-1 l1 -2 l1 -1 v-1 l1 -1 h1 h1 h1 l2 -1 l1 -1 l4 -1 l1 -1 h1 v-1 l1 -1 h1 l1 -1 h1 l1 -2 l1 -1 l-41 -11 v-3 l3 -23 l8 -6 l-13 -13 h-1 l-1 1 h-1 v1 l-1 1 l-1 1 v1 l-1 1 l-1 1 l-1 1 l-1 1 h-1 l-1 1 h-1 l-3 2 v1 l2 1 v1 v1 l1 1 v1 h1 v1 v1 v1 h1 h1 h1 l1 1 l1 1 l1 1 v1 v1 l-1 1 l-1 1 v1 h-1 l-3 1 h-3 l-1 1 v1 l-1 1 l-2 1 l-1 1 h-1 l-2 1 l-1 1 l-1 -1 h-1 h-1 h-1 l-3 -2 h-1 h-1 l-1 -1 l-1 -1 h-3 h-1 l-1 -1 l-1 1 h-1 l-2 2 l-1 2 l-1 1 l-1 1 h-1 h-1 v2 v1 h-1 l-2 1 v1 h-1 l-1 -1 l-1 -1 l-1 -1 l-1 -3 v-1 l-1 -1 l-3 -3 h-1 h-1 l-1 -1 h-1 l-16 14 l30 16 l-1 1 h-1 l-18 14 l-2 5 l-22 65 l1 1 l1 1 l1 1 l2 1 l1 1 l1 2 l1 1 v1 l1 1 l2 2 l2 1 l1 2 h1 l3 1 h1 h1 l8 -8 l9 -11 l24 -2 l30 -2 l11 -1 l1 -2 l1 -1 l-1 -1 l-1 1 l-1 -3 v-1 h1 v-1 l1 -1 l1 -1 h1 l1 1 h2 v-1 v-2 v-1 l1 -2 l2 -1 l1 -2 v-1 h-1 v-1 h-1 v-2 v-1 v-1 v-1 l-1 -2 l-2 -1 v-1 h-1 l-1 -2 v-2 h1 v-1 l1 -1 l-1 -2 v-1 v-1 h1 l1 -2 v-2 v-1 v-1 v-1 v-1 v-1 l-1 -2 h-1 v-2 l1 -1 l1 -3 l1 -1 v-1 v-1 Z"></path></g><g id="2709103"><path d="M-36570 -9565 l-1 1 h-1 h-1 v-1 h-1 h-1 v1 v1 l1 1 h1 l1 1 l4 -1 l2 1 v1 v4 l1 1 l1 1 l1 1 h1 v2 h2 l1 1 v1 l1 4 l1 1 l2 1 v1 v1 l1 1 h1 l1 1 l2 -1 v1 l1 1 v1 l1 1 l1 -1 h2 v3 l2 -1 h1 h1 l1 1 h2 h2 l3 1 l1 1 l11 -14 l2 -1 l2 -1 l2 -1 v-2 l1 -1 l2 -2 h2 l1 -1 l1 -1 l1 -2 l1 -2 l2 -1 l1 -2 l1 -2 v-2 v-2 l-1 -3 v-3 v-3 l1 -2 l1 -1 l1 -1 l1 -2 h1 h1 l2 -1 l1 -1 h1 l1 1 l3 -1 l3 -2 l1 -1 l1 -1 l1 -1 l2 -1 l1 -1 l1 -1 l1 -3 v-2 l1 -1 l2 -1 l1 -2 l16 -14 h1 l1 1 h1 h1 l3 3 l1 1 v1 l1 3 l1 1 l1 1 l1 1 h1 v-1 l2 -1 h1 v-1 v-2 h1 h1 l1 -1 l1 -1 l1 -2 l2 -2 h1 l1 -1 l1 1 h1 h3 l1 1 l1 1 h1 h1 l3 2 h1 h1 h1 l1 1 l1 -1 l2 -1 h1 l1 -1 l2 -1 l1 -1 v-1 l1 -1 h3 l3 -1 h1 v-1 l1 -1 l1 -1 v-1 v-1 l-1 -1 l-1 -1 l-1 -1 h-1 h-1 h-1 v-1 v-1 v-1 h-1 v-1 l-1 -1 v-1 v-1 l-2 -1 v-1 l3 -2 h1 l1 -1 h1 l1 -1 l1 -1 l1 -1 l1 -1 v-1 l1 -1 l1 -1 v-1 h1 l1 -1 h1 l1 -1 l1 -1 l3 -1 l1 -1 l-17 -4 l-2 -1 l-1 -1 l-20 -6 l-6 -1 l-12 -4 l-19 -5 l-2 -1 l-32 -12 l-10 -5 h-1 h-4 l-4 1 l-8 3 h-1 l-1 3 l-2 4 v5 l-1 2 l-2 4 l-1 1 l-1 4 l-1 2 l-5 15 l-1 3 l-1 4 l-1 13 l-7 7 l-5 14 l-14 42 Z"></path></g><g id="2709152"><path d="M-36451 -9961 l37 52 l15 21 l3 13 l16 -2 l26 -4 h5 l36 -6 l35 -5 l1 -7 l-3 -29 l-1 -7 l-2 -21 l-2 -11 l-3 -18 l-2 -10 l-1 -5 l-2 -4 l-3 -4 l-2 -5 l-5 -4 l-3 -2 v-5 l1 -5 l1 -2 h-1 l-61 -3 l-21 -1 l-30 -2 l-37 -1 v1 v2 l-1 3 l-1 1 v1 h-1 h-1 v1 l-1 -1 h-1 l-1 -1 l-2 1 l-2 -1 h-1 h-1 h-4 l-1 1 l-2 1 v1 l-2 1 l-2 -1 h-2 l-1 1 h-2 h-1 h-1 v1 l-2 2 l-1 2 v1 v1 v1 v2 v1 l1 1 l1 2 l1 1 v1 v1 l2 1 h1 v1 v1 v1 l1 1 v1 v1 l2 1 v1 h1 h1 h1 l1 1 h1 l-1 1 l1 2 v1 v1 v1 v1 v1 h-1 l1 1 v1 l1 2 v1 l-1 2 l1 2 v1 v1 v1 v1 v1 l1 3 v1 l-1 1 l-1 2 v2 h-1 l-1 1 l-1 1 l-1 1 l-1 2 v1 h-1 v1 v1 l1 -1 h2 v-1 l7 -5 l1 -1 v-1 v-1 v-1 v-1 v2 v1 l1 1 v1 l6 5 h1 l1 1 h1 h1 h1 h1 h2 l3 1 Z"></path></g><g id="2709202"><path d="M-37015 -9772 l1 1 l1 1 h2 v1 l5 2 l2 2 l1 1 h3 l2 1 v3 v2 l-1 14 v4 v1 l-3 1 v2 l-1 3 l2 4 l1 1 l4 5 l3 2 l6 3 l2 3 v2 l-1 5 v2 v1 l5 2 l1 2 l2 6 l1 2 h2 l1 -1 l3 -1 l2 1 l68 -46 l-1 -31 v-2 l-1 -20 v-17 l-13 -8 l-4 -1 l-1 -24 l-1 -13 l-1 -26 l13 -11 l29 -10 l30 -25 l1 -1 l1 -1 h1 l21 1 v-4 l-2 -4 v-4 v-2 l1 -2 l4 -4 l1 -2 l3 -4 l9 -6 h2 l9 2 h2 h-1 l-1 -2 l-2 -6 l-6 -8 l-2 -7 l-1 -2 l-3 -2 l-2 -2 l-2 -3 l-5 -3 l-4 -4 l-7 -3 h-3 l-1 -1 l-4 -4 l-1 -3 v-1 l-2 -2 l-3 -1 l-2 -2 l-1 -4 l-1 -1 l-3 -2 l-3 -3 l-3 -3 l-1 -3 l-2 -1 v-1 l-2 -7 v-2 l-3 -5 l-73 -30 h-1 l-2 1 l-3 2 h-1 h-2 l-1 -1 l-2 3 v1 l-3 12 l-2 8 v5 l3 12 v15 l-2 3 v1 v1 l-1 1 v2 l-5 14 l-4 4 l-5 5 l-18 11 l-4 2 h-5 l-6 -1 l-7 -3 l-17 -7 l-8 -3 h-6 l-6 2 l-7 5 l-5 4 h-1 l-2 2 l-3 2 l-13 13 l-8 7 l-14 15 l-19 17 l-11 8 l2 3 l2 2 l1 1 l-1 2 l-3 1 l-2 2 l-1 2 v2 l7 -2 l2 8 l3 1 l2 1 h2 v2 l-1 2 v2 l1 9 l3 5 l2 1 h4 l2 2 v4 l1 8 l1 4 l1 2 h1 v1 h1 l1 1 l1 1 l2 1 l54 35 l3 2 h1 v-1 h1 v1 h1 h1 v1 l2 -1 l-1 1 v1 v1 v1 l1 4 l3 8 l4 4 l7 2 l1 2 l1 3 l1 5 l1 2 l2 1 l1 2 Z"></path></g><g id="2709301"><path d="M-36031 -9056 h1 h2 h2 l1 1 l1 1 l-1 1 l-1 1 h-1 l-1 1 v1 h-1 l-1 1 v1 l2 3 l1 2 v1 v1 l-1 1 v1 h-1 v-1 v-1 v-1 h-1 h-1 v1 v1 h-1 l1 1 l1 1 l1 1 h1 h1 h1 l1 -1 l1 -1 l-1 -1 v-1 l3 -2 l2 -2 l1 -2 h1 l1 1 l2 1 l3 1 l2 1 l1 1 l2 1 l2 1 h1 h1 h1 h1 h1 l45 9 l1 -1 h1 l1 -1 l3 -2 h1 l1 1 v-1 l2 -1 h2 l1 1 l1 1 l2 1 h1 h1 h1 l2 1 l1 -1 l1 1 h1 h1 h2 h2 l1 -1 l1 -1 v-1 v-1 l1 -2 h1 v-1 l2 -1 v-1 v-1 h1 v-1 h1 l1 1 h1 h3 h2 v-1 l1 -1 l1 -1 l1 -1 l1 -1 l1 -1 h2 h1 v-1 v-1 v-1 v-1 v-1 v-1 l1 -1 v-1 v-1 l-1 -1 l1 -1 l1 -2 l2 -1 h1 l1 -1 l2 -1 h1 h1 v-1 h1 v-2 h1 h1 v-1 h1 l1 1 h1 h1 h1 h1 v2 h1 v1 h1 v1 v2 l1 1 h1 v1 v1 v1 v1 l1 1 v1 h1 h1 v-1 h1 l2 -1 h3 l1 1 h1 h1 v1 h1 h1 l1 1 l1 -1 h1 h2 v1 l-3 -15 l-1 -2 l-16 -45 l-1 -2 l-1 -6 l-6 -15 l-54 -26 l-10 -5 l-29 -13 l-17 -7 l-9 -4 l-11 -5 l-13 -5 l-1 -1 l-26 -11 l-1 -1 l-1 1 v1 l-1 3 l-1 2 l-2 2 h-2 l-1 2 h-2 l-2 -1 l-2 -1 l-3 1 h-3 l-3 2 l1 1 h-1 l-3 1 l-6 -1 l-1 -1 h-2 l-3 -1 l-3 -2 h-2 l-2 -1 h-1 l-1 -1 h-1 h-3 l-2 1 h-1 h-3 l-3 2 l-2 1 l-1 1 l-3 2 h-1 h-1 h-1 h-2 h-1 h-2 l-1 -1 l-4 -1 l-4 -1 l-4 -1 h-1 l-3 -1 l-2 -1 l-4 -1 l-2 -1 l-4 -2 l-2 -1 l-3 2 l-2 1 l-1 -1 l-1 -1 h-1 l-2 -1 h-3 h-3 h1 l8 9 l38 45 l5 5 v1 l3 25 v2 l1 6 l4 26 l2 10 l5 28 l5 -1 l4 -1 h2 l3 -2 h3 h1 h2 h2 l2 -1 l-3 -3 l-1 -1 l-1 -2 l1 -4 l1 -2 v-1 l2 1 l1 2 v1 v1 v1 l1 1 h3 h2 h1 h3 h3 v-1 h1 h1 l2 1 v1 l-1 1 l2 3 v1 h1 h3 h1 l1 1 l2 1 h1 h1 v1 l1 -1 h1 h1 h1 h1 h1 v1 h1 v-1 h1 h3 v-1 l2 -1 v-1 v-3 h2 h1 l1 1 l1 1 l1 2 h2 h3 l3 1 l2 2 h1 v2 h1 Z"></path></g><g id="2709400"><path d="M-36185 -9376 l-17 -50 l-9 -27 l-42 9 l-17 6 l-18 8 l-1 -1 l-1 1 l-1 1 h-2 v1 h-1 h-1 v1 h-1 h-1 h-1 l-2 -1 v1 h-1 v1 h-1 v-1 h-1 v-1 h-1 v-1 l-1 -1 l-1 1 h-1 l-1 1 h-1 l-1 -1 v1 h-1 h-1 v-1 l-1 -1 h-1 v-1 h-2 v-1 v-1 h-1 h-1 v1 l-1 -1 v1 h-1 h-1 h-1 l1 -1 l-1 -1 h-1 v-1 h-1 v-1 v-1 h1 h1 l1 -1 v-1 h-1 v-1 v-1 h-1 h-1 v-1 h-1 v-1 h-1 l-1 -1 l-1 1 h-1 v-1 h-1 v1 h-1 h-1 v1 l-1 -1 v-1 h-1 l-1 -1 h-1 h-1 h-1 h-1 v-1 h-1 h-1 l-2 -1 h-1 h-1 h-1 h-1 h-1 v-1 l-1 -1 l-1 1 l-1 -1 l3 -3 l9 -13 l-50 40 l2 7 l13 43 l1 -2 l1 -1 l1 -1 l2 -1 l1 -1 l1 -3 h1 h2 h1 l1 1 h-1 v1 h-1 h-1 l-1 1 v1 v1 v1 h1 v1 h-1 l1 1 l-2 1 v1 h1 l-1 1 l1 1 v1 v1 v2 v1 v1 v1 v1 h1 l-1 1 v1 v1 l26 74 l10 1 h2 l1 1 v-1 v-1 l3 -2 h2 l-1 -1 l-1 -1 l-2 -1 v-2 v-2 l2 -1 l1 -1 h1 h2 l4 1 v-1 l1 -2 l1 -1 v-1 v-1 l2 1 h1 h1 h2 h1 h3 h1 h2 v-1 v-1 l1 -1 l-1 -2 v-1 l-1 -1 h1 h1 l1 1 v-1 v-1 l-1 -1 h-1 l1 -1 h1 h2 l19 7 l19 6 l22 8 l1 1 l55 77 l-1 -96 l2 -35 l1 -14 v-1 l-6 -17 Z"></path></g></g></g></g></svg>