<svg xmlns="http://www.w3.org/2000/svg" width="720" height="404.90797546" version="1.1">
<g class="mapa"><g class="mod" transform="scale(0.736196319018,-0.736196319018)"><g class="mod" transform="translate(48286,15500)"><g id="5300108"><path d="M-48218 -15763 v1 h1 v1 v1 v1 v1 v1 h1 v1 l1 1 v1 v1 h1 v1 v1 l1 2 v1 v1 h-1 v1 v1 v1 v1 h-1 h-1 h-1 h-1 v1 h-1 h1 h1 h1 v1 h1 h1 v1 h1 v1 v1 h1 v1 v1 l-1 1 v1 v1 v1 v1 l-1 1 l1 1 v1 v1 v1 v1 l1 2 v1 h1 v1 v1 v1 v1 h-1 h-1 v1 v1 v1 l-1 1 l-1 1 l-1 1 l-1 1 h-1 l-1 1 h-1 h-1 v1 h-1 h-1 h-1 v-1 h-1 h-1 l-1 1 h-1 h-1 v-1 h-1 h-1 v1 h-1 v-1 h-1 v1 h-1 h-1 h-1 h-1 v1 h-1 h-1 v1 h-1 v1 h-1 v1 v1 v1 v1 h1 v1 v1 v1 v1 h1 v1 h-1 v1 v1 l-1 1 v1 v1 v1 v1 v1 v1 v1 v1 v1 l1 1 v1 v1 v1 v1 h1 v1 v1 h1 v1 v1 v1 v1 h1 v1 v1 v1 h1 v1 l1 1 v1 v1 v1 l1 1 h-1 l1 1 h-1 v1 v1 v1 v1 v1 h1 v1 v1 v1 h-1 v1 l-1 1 v1 v1 v1 v1 v1 h1 v1 v1 v1 v1 v1 v1 v1 h1 l1 1 h1 v1 v1 h1 v1 h1 l1 1 v1 v1 v1 h1 l1 1 v1 h1 v1 v1 h1 v1 h1 h1 h1 v1 h1 v1 h1 v1 l1 1 v1 h1 v1 h1 h1 h1 h1 h1 h1 h1 h1 h1 h1 h1 h1 v-1 h1 h1 h1 h1 v1 h1 h1 v1 h1 l1 6 v3 l1 7 v1 h-1 v1 h-1 v1 v9 l-1 80 v9 l-1 5 h61 h31 h10 h1 h1 h24 h7 h8 h5 h17 h8 h15 h6 h23 h5 h126 h40 h42 h84 h24 h6 h40 v-1 v-1 v-2 h1 h1 l5 -1 h1 l19 -4 h1 l2 -1 v-1 l3 -1 h1 l4 -1 h4 h5 l1 1 h1 v1 v1 l1 1 h1 l1 1 v1 v1 h1 v1 l-1 1 h1 v1 h1 v1 v1 h1 v1 h38 h31 h9 h9 h19 h39 l-1 -46 l1 -1 l1 1 v-1 h1 v-1 h1 h1 h1 v1 h1 v-1 h1 h1 h1 l1 1 h1 h1 h1 l1 -1 h1 v-1 v-1 v-1 h1 v-1 l1 1 h1 v-1 v-1 v-1 v-1 v-1 h-1 v-1 h1 v-1 h1 h1 h1 h1 h1 v-1 v-1 v-1 h1 v-1 l1 -1 h1 v-1 v-1 h1 v-1 v-1 h1 v-1 l1 1 h1 h1 h1 v-1 h1 v1 h1 h1 h1 h1 v-1 h-1 v-1 h1 h1 v-1 h-1 v-1 h1 l-1 -1 h1 v-1 v-1 h1 v-1 v-1 h1 v-1 h1 h1 h1 v-1 h1 v1 h1 v-1 h1 h1 v-1 h1 h1 h1 h1 v1 h1 h1 h1 h1 v-1 v-1 h1 h1 h1 h1 h1 h1 v1 h1 v-1 h1 v1 h1 v-1 h1 h1 h1 h1 l1 1 h1 v-1 h1 v-1 h1 h1 v-1 h1 v-1 h1 l1 -1 h1 h1 v-1 h1 h1 v-1 h1 v-1 h1 v-1 h1 v1 h1 v-1 h1 v1 h1 v1 h1 v-1 h1 v-1 h1 v-1 v-1 h1 v1 h1 h1 h1 v1 l1 1 h1 h1 h1 v-1 h1 v-1 h1 v-1 l1 -1 v-1 v-1 v-1 h1 v-1 v-1 v-1 h-1 h-1 h-1 v-1 h-1 h-1 h-1 v-1 h-1 v-1 v-1 v-1 v-1 v-1 v-1 v-1 h-1 h-1 v-1 v-1 v-1 h-1 l1 -1 h-1 v-1 h-1 v-1 v-1 h-1 v-1 v-1 v-1 l-1 1 v-1 v-1 h1 v-1 h-1 v-1 h1 v-1 h-1 h-1 v-1 v-1 h-1 v-1 h1 v-1 h-1 v-1 v-1 v-1 h-1 v-1 v-1 h-1 v-1 h-1 l1 -1 h-1 v-1 h1 v-1 v-1 h1 v-1 h1 v-1 v-1 v-1 v-1 h1 v-1 v-1 h1 l-1 -1 h1 v-1 v-1 l-1 -1 h1 v-1 v-1 h1 h1 v-1 v-1 h-1 v-1 h-1 v-1 v-1 h1 h1 v-1 v-1 v-1 h-1 v-1 h-1 h1 v-1 h-1 v-1 h-1 l1 -1 h1 v-1 v-1 h1 v-1 v-1 v-1 h-1 l1 -1 v-1 h-1 v-1 v-1 h1 v-1 h1 v-1 h-1 v-1 v-1 h-1 v-1 h1 v-1 v-1 v-1 v-1 h-1 h-1 v-1 v-1 v-1 h-1 v-1 l-1 1 l-1 -1 v-1 h1 v-1 v-1 h1 h1 v1 h1 v-1 v-1 v-1 v-1 v-1 h-1 l1 -1 h1 h1 h1 h1 h1 h1 v1 v1 h1 v-1 h1 v1 h1 v-1 v-1 l1 -1 v-1 v-1 v-1 l1 1 v-1 v-1 h1 v-1 h1 h1 h1 v-1 v-1 v-1 h-1 v-1 l1 -1 l-1 -1 v-1 v-1 v-1 v-1 v-1 v-1 v-1 v-1 h-1 v-1 v-1 h1 v-1 h-1 v-1 h-1 v-1 h1 v-1 l-1 -1 h-1 v-1 l1 -1 h-1 v1 h-1 h-1 v-1 h-1 v-1 v-1 v-1 h-1 v-1 v-1 h1 v-1 h1 l1 -1 v-1 h-1 v-1 h1 v-1 h-1 l1 -1 v-1 v-1 h1 v-1 h-1 v-1 h-1 v-1 v-1 l1 1 v-1 v-1 h1 h1 v-1 h1 l1 -1 v-1 h1 v-1 v-1 h-1 v-1 h1 v-1 h-1 h-1 v-1 h1 v-1 v-1 h-1 v-1 h1 v-1 h-1 h-1 v1 v1 h-1 v-1 v-1 v-1 h-1 h-1 v-1 h1 v-1 v-1 h-1 l-1 -1 v-1 h1 v-1 h-1 h-1 h-1 v1 h-1 v-1 h1 v-1 h1 v-1 h-1 v-1 h-1 h-1 v-1 l-1 -1 l1 -1 v-1 h-1 v1 h-1 v-1 v-1 h-1 v-1 v-1 v-1 h-1 h-1 v-1 h1 h-1 v-1 l-1 -1 h1 v-1 v-1 h1 v-1 h-1 v-1 h-1 v1 h-1 v-1 h1 v-1 h-1 v-1 v-1 v-1 v-1 v-1 v-1 h-1 h-1 v-1 h-1 v-1 h-1 h-1 h-1 v-1 h1 v-1 v-1 h-1 h-1 v-1 v-1 h-1 v-1 v-1 v-1 h-1 v-1 h1 v-1 h-1 v-1 h1 l-1 -1 h-1 h-1 v-1 v-1 h-1 v-1 h1 h-1 h-1 h-1 v-1 h-1 v-1 h1 v-1 v-1 h-1 v-1 v-1 h-1 h-1 v-1 h-1 h-1 v-1 h1 v-1 v-1 h1 v-1 h-1 h-1 v-1 v-1 v-1 h-1 v-1 h-1 h-1 v-1 v-1 h1 v-1 h-1 l-1 1 h-1 v-1 v-1 v-1 h1 h1 v-1 h-1 h-1 v1 l-1 -1 v-1 v-1 h-1 l1 -1 h1 v-1 v-1 h-1 h-1 v1 h-1 v-1 h1 v-1 h-1 h-1 v1 v1 h-1 l-1 1 v-1 v-1 h1 v-1 h-1 h-1 v-1 h-1 v-1 h1 v-1 h-1 v-1 h-1 h-1 l-1 1 h-1 v-1 v-1 v-1 h1 v-1 v-1 v-1 v-1 v-1 v-1 v-1 h-1 v1 v1 h-1 v-1 v-1 v-1 l1 1 v-1 v-1 h-1 v-1 h-1 v-1 h-1 v-1 l1 1 v-1 h1 v-1 h-1 v-1 v-1 h-1 h-1 v-1 h1 h1 v-1 v-1 h-1 v1 h-1 v-1 v-1 h1 h1 v-1 v-1 h1 v-1 v-1 v-1 h-1 h-1 v-1 v-1 v-1 h1 v-1 h-1 v-1 v-1 v-1 v-1 h-1 v-1 h-1 v1 l-1 -1 h-1 v-1 v-1 h1 h1 h1 v-1 l-1 -1 l1 -1 h-1 v-1 h-1 v-1 v-1 h1 v-1 v-1 h-1 v-1 h1 v-1 h-1 v-1 h-1 v-1 l-1 -1 v-1 v-1 h-1 v-1 h-1 h-1 h-1 h-1 h-1 v-1 h1 h1 h1 l1 -1 v-1 h-1 h-1 v-1 h1 v-1 h-1 v-1 v-1 h1 v1 l1 -1 l-1 -1 h1 v-1 h-1 v-1 h1 h1 v-1 v-1 h-1 v-1 h1 v-1 v-1 h-1 v-1 h1 h1 v-1 h-1 v-1 v-1 h1 v1 h1 h1 v-1 h1 l-1 -1 v-1 v-1 h-1 v-1 v-1 v-1 h-1 v-1 h1 l1 1 h1 v-1 l1 -1 h1 h1 h1 h1 v-1 h1 h1 v-1 h-1 h-1 v-1 h1 h-1 h-1 v-1 h1 h1 v-1 h-1 v-1 h-1 v-1 v-1 v-1 h-1 v-1 v-1 h1 v-1 h-1 h1 v-1 h1 h1 v1 h1 h1 h1 v-1 h1 v-1 v-1 v-1 h1 v-1 v-1 h-1 h-1 v-1 h1 v-1 v-1 l-1 -1 h-1 v-1 h1 h1 v-1 h-1 l-1 1 h-1 h-1 v-1 l1 -1 h-1 h-1 h-1 v-1 h-1 v-1 h-1 h-1 h-1 v-1 h-1 h-1 v-1 v-1 h1 h1 v1 v1 h1 h1 v-1 h-1 v-1 v-1 h-1 v-1 h-1 v-1 h1 h1 h1 v-1 h-1 v-1 h1 v-1 v-1 v-1 h1 v-1 h-1 h-1 h-1 l1 -1 v-1 v-1 v-1 v-1 v-1 h-1 v-1 v-1 v-1 h-1 h-1 h-1 v-1 v-1 h1 h1 v-1 v-1 h-1 h-1 v-1 h-1 v-1 h-1 h-1 h-1 l1 -1 h1 v-1 v-1 h1 v-1 h1 v-1 h-1 v-1 v-1 h-1 h-1 v1 h-1 v-1 v-1 l1 -1 h1 v-1 h-1 v-1 h-1 v-1 h1 v-1 v-1 l-1 -1 v-1 h1 l1 -1 v1 h1 v-1 v-1 v-1 h1 v1 h1 v-1 h-1 v-1 h-1 h-1 v-1 h1 v-1 v-1 h-1 v-1 v-1 h1 v1 h1 v-1 h-1 v-1 h1 v-1 v-1 h1 v-1 l1 -2 v-1 v-1 h1 l1 1 h1 v-1 v-1 v-1 v-1 v-1 v-1 v-1 v-1 v-1 h1 h1 v1 l1 1 h1 h1 v-1 v-1 v-1 v-1 h1 l1 -1 h1 v-1 h1 v1 h1 h1 l-1 -1 v-1 h1 h1 h1 h1 h1 v1 h1 h1 h1 l1 1 v-1 h1 h1 v1 h1 v-1 v-1 v-1 h1 h1 v-1 v-1 v-1 h1 h1 h1 h1 v-1 h1 v1 h1 h1 v-1 l1 -1 v-1 h-1 h-1 h-1 v-1 h1 v-1 l-1 -1 v-1 v-1 h1 l1 1 h1 v1 l1 1 h1 v-1 h-1 v-1 v-1 h1 h1 v-1 h1 v-1 h1 h1 h1 v-1 v-1 l1 -1 h1 v-1 v-1 v-1 h1 h1 h1 v-1 v-1 h1 v1 v1 h-1 v1 h1 h1 v1 h1 h1 v-1 v-1 v-1 v-1 v-1 h1 h1 h1 v-1 v-1 v-1 h-1 v-1 h-1 v-1 h1 h1 v-1 v-1 h1 v1 l1 1 h1 h1 h1 v1 h1 h1 l1 -1 h1 v-1 v-1 h-1 v-1 v-1 l-1 -1 l-1 -1 l1 -1 h1 v1 h1 h1 h1 l-1 -1 v-1 h-1 v-1 l1 -1 h1 l-1 -1 v-1 h-1 v-1 h1 v-1 h1 h-108 h-50 h-56 h-15 h-19 h-41 h-20 h-57 h-5 h-4 h-38 h-1 h-13 h-4 h-72 h-2 h-2 h-4 h-3 h-5 h-4 h-57 h-32 h-19 v1 h-10 h-5 h-8 v-1 h-10 h-3 h-3 v1 h-3 h-1 h-5 h-2 h-6 h-3 h-3 h-4 h-3 h-1 h-2 h-1 h-3 h-2 h-1 h-3 h-1 h-1 h-1 h-3 h-1 h-1 h-1 h-1 v-1 h-2 h-1 h-1 h-1 h-1 h-1 h-1 h-2 h-1 h-1 h-2 h-4 h-1 h-1 h-3 h-3 h-1 h-4 h-4 h-1 h-1 h-1 h-2 l-1 1 h-1 h-1 v1 h-1 v1 h-1 v1 h-1 h-1 h-1 h-1 l-1 -1 h-1 h-1 v-1 h-1 v-1 h-1 v-1 h-3 h-1 h-1 h-2 h-1 h-4 h-2 h-1 h-1 h-1 h-8 h-30 h-3 h-50 h-43 h-23 h-20 h1 v1 h1 l-1 1 v1 v1 v1 v1 v1 v1 h-1 l1 1 h1 v1 v1 v1 h1 v1 l1 1 h1 h1 v1 h-1 v1 v1 h1 v1 h1 v1 h-1 v1 v1 h1 v1 v1 v1 v1 l-1 1 h1 h1 v1 h1 v1 v1 l-1 1 l1 1 v1 v1 v1 h-1 l-1 1 h1 v1 h-1 v1 v1 v1 v1 h1 v1 h-1 l1 1 v1 l1 1 v1 v1 l1 1 v1 h1 v1 h1 h1 v1 v1 v1 h1 v1 v1 h1 h1 v1 v1 l-1 1 v1 h1 h1 v1 v1 h-1 v1 l1 2 v1 v1 h1 h1 h1 v1 h1 v1 l-1 1 l1 1 h-1 v1 h-1 l-1 1 h1 h1 v1 v1 h1 v1 h-1 v1 l-1 1 h1 l1 1 v1 l-1 1 l-1 1 v1 v1 v1 l1 1 l1 1 v1 h1 v1 v1 h-1 v1 h1 v-1 h1 h1 v1 l-1 1 v1 h1 v1 h1 v1 h1 v1 h1 v1 h1 v1 h-1 v1 v1 v1 v1 v1 l-1 1 h-1 v1 h1 h1 v-1 h1 h1 v1 l-1 1 v1 v1 h-1 v-1 h-1 v1 v1 v1 h1 v1 h-1 v1 l1 1 l1 1 h-1 v1 v1 h-1 l-1 -1 h-1 v1 v1 v1 l-1 1 v1 h-1 h-1 h-1 v1 v1 v1 h-1 h-1 v1 h-1 l-1 -1 v1 h-1 v-1 l-1 -1 v-1 v-1 h-1 h-1 v-1 h-1 h-1 v1 h-1 h-1 h-1 h-1 v1 h-1 h-1 l-1 -1 v1 v1 h1 v1 v1 v1 h-1 h-1 v1 h1 v1 h1 v1 h-1 l1 1 h-1 v1 h1 v-1 h1 v1 h1 h1 v1 h-1 v1 h1 h1 h1 v1 h-1 v1 v1 l1 -1 v1 v1 h-1 v1 h1 v1 v1 v1 v1 v1 h-1 v-1 h-1 h-1 v1 h-1 l-1 1 v1 v1 h-1 h-1 v1 h1 h1 v1 v1 h1 v1 h-1 h-1 v1 v1 l-1 1 h1 v1 l1 -1 h1 v1 v1 l-1 1 h-1 v1 l1 1 h1 l1 -1 v1 v1 h-1 h-1 h-1 v1 v1 v1 h1 v1 h1 v1 v1 v1 h1 v1 v1 h1 v1 v1 h-1 v1 h-1 v1 v1 v1 h-1 v-1 v-1 l-1 1 v1 v1 v1 h1 v1 h-1 h-1 v1 l-1 1 v1 v1 h-1 l1 1 l1 -1 v1 l1 1 l-1 1 h-1 v1 h-1 v-1 h-1 v1 h1 v1 h-1 h-1 v1 h1 v1 h1 v1 v1 h-1 v1 h1 v1 v1 h-1 v-1 h-1 v1 h-1 l1 1 l-1 1 h1 h1 v1 h-1 h-1 v1 h-1 v1 v1 h-1 v1 h1 h1 v1 h-1 v1 v1 h-1 v1 v1 v1 h-1 v1 v1 h-1 v1 v1 h1 h1 v1 v1 h-1 v1 v1 v1 v1 v1 l1 1 l1 1 v1 h1 v1 v1 v1 l1 1 v1 v1 v1 v1 v1 h1 v1 h1 v1 h1 v1 h1 v1 v1 h1 l-1 1 h1 l1 1 h1 l1 1 h1 v1 h1 v1 v1 h1 v1 h1 v-1 h1 v1 v1 v1 v1 v1 h1 v-1 h1 v1 h-1 v1 h1 v-1 l1 -1 v1 v1 h1 h1 v1 h1 v-1 h1 v1 v1 h1 v1 h1 v1 h1 h1 v1 h1 h1 h1 h1 h1 h1 h1 v1 h1 v-1 h1 v1 l-1 1 v1 h1 h1 v-1 h1 v1 l-1 1 v1 h1 v-1 h1 v1 h1 h1 v-1 v-1 h1 v-1 l1 1 v1 v1 v1 v1 v1 h1 l1 1 v1 h1 v1 l1 1 v1 v1 l-1 1 v1 h1 v1 h1 h1 h1 h1 v1 h1 v1 h-1 v1 v1 v1 h1 v1 v1 h-1 l1 1 v1 h1 v1 h1 l-1 1 h1 v1 h1 h1 h1 v1 h1 v1 v1 h1 v1 h1 v1 h1 v1 v1 h-1 v1 h-1 v1 h1 v-1 h1 h1 h1 h1 v-1 h1 v1 h1 v1 v1 Z"></path></g></g></g></g></svg>